<?xml version="1.0" encoding="utf-8"?>
<!-- Generator: Adobe Illustrator 19.1.1, SVG Export Plug-In . SVG Version: 6.00 Build 0)  -->
<svg version="1.1" id="Layer_1" xmlns="http://www.w3.org/2000/svg" xmlns:xlink="http://www.w3.org/1999/xlink" x="0px" y="0px"
	 viewBox="-352 478 62 69" preserveAspectRatio="XminYmid" style="enable-background:new -352 478 62 69;" xml:space="preserve">
<style type="text/css">
	.st0{fill:#FFFFFF;}
</style>
<path class="st0" d="M-313.7,506.5c-1,4.4-2.9,8-6.5,8s-5.4-3.7-6.5-8c-1-4.3,2.9-8,6.5-8S-312.7,502.2-313.7,506.5z"/>
<g>
	<path class="st0" d="M-314,512.1c-1.4,2.3-3.3,3.9-6.1,3.9c-2.6,0-4.5-1.4-5.9-3.6c-3.9,2-6.2,4.8-7.4,7.3c0,4.6,5.4,8.1,13.5,8.1
		s13.4-3.5,13.4-8.1C-308.3,516.7-310,513.9-314,512.1z"/>
</g>
</svg>
