<?xml version="1.0" encoding="utf-8"?>
<!-- Generator: Adobe Illustrator 19.1.1, SVG Export Plug-In . SVG Version: 6.00 Build 0)  -->
<svg version="1.1" id="Layer_1" xmlns="http://www.w3.org/2000/svg" xmlns:xlink="http://www.w3.org/1999/xlink" x="0px" y="0px"
	 viewBox="-288 534 62 69" style="enable-background:new -288 534 62 69;" xml:space="preserve">
<style type="text/css">
	.st0{fill:#AFAFAF;}
</style>
<g>
	<path class="st0" d="M-241.6,578.2V566c0-6.8-4.8-12.5-11.2-14v-3.4c0,0-0.3-2.3-3.3-2.3s-3.1,2.3-3.1,2.3v3.4
		c-6.4,1.5-11.2,7.2-11.2,14v12.3c-5.4,2.1-5.5,7.4-5.5,7.4h5.5h28.7h5.5C-236.1,581.2-238.9,579.1-241.6,578.2z"/>
</g>
<g>
	<path class="st0" d="M-255.5,590.7c2.3,0,4.3-1.5,4.3-3.3h-8.5C-259.7,589.2-257.8,590.7-255.5,590.7z"/>
</g>
</svg>
