<?xml version="1.0" encoding="utf-8"?>
<!-- Generator: Adobe Illustrator 19.1.1, SVG Export Plug-In . SVG Version: 6.00 Build 0)  -->
<svg version="1.1" id="Layer_1" xmlns="http://www.w3.org/2000/svg" xmlns:xlink="http://www.w3.org/1999/xlink" x="0px" y="0px"
	 viewBox="-288 534 62 69" style="enable-background:new -288 534 62 69;" xml:space="preserve" preserveAspectRatio="xminymid">
<g>
	<path d="M-242.6,578.2V566c0-6.8-4.8-12.5-11.2-14v-3.4c0,0-0.3-2.3-3.3-2.3s-3.1,2.3-3.1,2.3v3.4c-6.4,1.5-11.2,7.2-11.2,14v12.3
		c-5.4,2.1-5.5,7.4-5.5,7.4h5.5h28.7h5.5C-237.1,581.2-239.9,579.1-242.6,578.2z"/>
</g>
<g>
	<path d="M-256.5,590.7c2.3,0,4.3-1.5,4.3-3.3h-8.5C-260.7,589.2-258.8,590.7-256.5,590.7z"/>
</g>
</svg>
