<?xml version="1.0" encoding="utf-8"?>
<!-- Generator: Adobe Illustrator 19.1.1, SVG Export Plug-In . SVG Version: 6.00 Build 0)  -->
<svg version="1.1" id="Layer_1" xmlns="http://www.w3.org/2000/svg" xmlns:xlink="http://www.w3.org/1999/xlink" x="0px" y="0px"
	 viewBox="-352 478 62 69" preserveAspectRatio="xMinYmid" style="enable-background:new -352 478 62 69;" xml:space="preserve">
<style type="text/css">
	.st0{fill:#FFFFFF;}
</style>
<g>
	<path class="st0" d="M-306.2,522.2V510c0-6.8-4.8-12.5-11.2-14v-3.4c0,0-0.3-2.3-3.3-2.3s-3.1,2.3-3.1,2.3v3.4
		c-6.4,1.5-11.2,7.2-11.2,14v12.3c-5.4,2.1-5.5,7.4-5.5,7.4h5.5h28.7h5.5C-300.7,525.2-303.5,523.1-306.2,522.2z"/>
</g>
<g>
	<path class="st0" d="M-320.1,534.7c2.3,0,4.3-1.5,4.3-3.3h-8.5C-324.3,533.2-322.4,534.7-320.1,534.7z"/>
</g>
</svg>
