<?xml version="1.0" encoding="utf-8"?>
<!-- Generator: Adobe Illustrator 19.1.1, SVG Export Plug-In . SVG Version: 6.00 Build 0)  -->
<svg version="1.1" id="Layer_1" xmlns="http://www.w3.org/2000/svg" xmlns:xlink="http://www.w3.org/1999/xlink" x="0px" y="0px"
	 viewBox="0 0 62 69" style="enable-background:new 0 0 62 69;" xml:space="preserve" preserveAspectRatio="xMinYmid">
<style type="text/css">
	.st0{fill:none;stroke:#8C1521;stroke-width:2;stroke-miterlimit:10;}
	.st1{fill-rule:evenodd;clip-rule:evenodd;fill:#898989;}
	.st2{fill-rule:evenodd;clip-rule:evenodd;fill:#848484;}
	.st3{fill-rule:evenodd;clip-rule:evenodd;fill:#BCBCBC;}
	.st4{opacity:0.4;}
	.st5{fill:#FFFFFF;}
	.st6{fill:#E04148;}
	.st7{fill:#A5A5A5;}
	.st8{fill:none;}
	.st9{fill:#D62727;}
	.st10{fill:none;stroke:#D62727;stroke-miterlimit:10;}
	.st11{fill:#CE0000;}
	.st12{fill:none;stroke:#9B9B9B;stroke-miterlimit:10;}
	.st13{fill:none;stroke:#9B9B9B;stroke-linecap:round;stroke-miterlimit:10;}
	.st14{fill:#999999;}
	.st15{fill:#9B9B9B;}
	.st16{fill:none;stroke:#999999;stroke-width:2;stroke-miterlimit:10;}
	.st17{fill:none;stroke:#000000;stroke-miterlimit:10;}
	.st18{fill:#5F5F5F;}
	.st19{fill:none;stroke:#FFFFFF;stroke-width:2;stroke-miterlimit:10;}
	.st20{opacity:0.4;fill-rule:evenodd;clip-rule:evenodd;}
	.st21{fill-rule:evenodd;clip-rule:evenodd;stroke:#FFFFFF;stroke-width:3;stroke-miterlimit:10;}
	.st22{fill-rule:evenodd;clip-rule:evenodd;fill:#ED342E;}
	.st23{opacity:0.2;fill-rule:evenodd;clip-rule:evenodd;}
	.st24{filter:url(#Adobe_OpacityMaskFilter);}
	.st25{mask:url(#SVGID_1_);}
	.st26{fill:none;stroke:#000000;stroke-width:2.7824;stroke-miterlimit:10;}
	.st27{fill:#A6D53E;}
	.st28{fill:#D9D9D9;}
	.st29{fill:#526A1E;}
	.st30{fill:#848484;stroke:#CFCFCF;stroke-miterlimit:10;}
	.st31{fill:#D47023;}
	.st32{fill:#E38842;}
	.st33{fill:#B2B2B2;}
	.st34{fill:#DF4148;}
	.st35{fill:#CFCFCF;}
	.st36{fill:#B22936;}
	.st37{opacity:0.9;fill:#B22936;}
	.st38{opacity:0.9;fill:#CFCFCF;}
	.st39{fill:#E85D5D;}
	.st40{fill:#D89C4C;}
	.st41{fill:#303D74;}
	.st42{fill:#6CA198;}
	.st43{fill:#A52D36;}
	.st44{fill:#686868;}
	.st45{fill-rule:evenodd;clip-rule:evenodd;fill:#DD3C3C;}
	.st46{fill-rule:evenodd;clip-rule:evenodd;fill:#E5E5E5;}
	.st47{fill-rule:evenodd;clip-rule:evenodd;fill:#FF7373;}
	.st48{fill:none;stroke:#D6D6D6;stroke-width:1.1111;stroke-miterlimit:10;}
	.st49{opacity:0.5;fill-rule:evenodd;clip-rule:evenodd;}
	.st50{fill-rule:evenodd;clip-rule:evenodd;fill:#EF9A9A;}
	.st51{fill-rule:evenodd;clip-rule:evenodd;fill:#A00E0E;}
	.st52{fill:#858585;}
	.st53{fill:#BF2121;}
	.st54{fill:#1936B2;}
	.st55{fill:#D63232;}
	.st56{opacity:0.28;fill:#FF0000;}
	.st57{opacity:0.28;fill:#00FF12;}
	.st58{fill:#FF0000;}
	.st59{fill:#8D930F;}
	.st60{filter:url(#Adobe_OpacityMaskFilter_1_);}
	.st61{mask:url(#SVGID_2_);fill:#B22936;}
	.st62{filter:url(#Adobe_OpacityMaskFilter_2_);}
	.st63{mask:url(#SVGID_3_);fill:#2C7AB6;}
	.st64{filter:url(#Adobe_OpacityMaskFilter_3_);}
	.st65{mask:url(#SVGID_4_);fill:#2C7AB6;}
	.st66{filter:url(#Adobe_OpacityMaskFilter_4_);}
	
		.st67{mask:url(#SVGID_5_);fill:none;stroke:#2C7AB6;stroke-width:2.0881;stroke-linecap:round;stroke-linejoin:round;stroke-miterlimit:10;}
	.st68{filter:url(#Adobe_OpacityMaskFilter_5_);}
	
		.st69{mask:url(#SVGID_6_);fill:none;stroke:#2C7AB6;stroke-width:2.0881;stroke-linecap:round;stroke-linejoin:round;stroke-miterlimit:10;}
	.st70{fill:#2C7AB6;stroke:#2C7AB6;stroke-linecap:round;stroke-linejoin:round;stroke-miterlimit:10;}
	.st71{fill:#2C7AB6;stroke:#2C7AB6;stroke-width:1.3717;stroke-linecap:round;stroke-linejoin:round;stroke-miterlimit:10;}
	.st72{fill:#2C7AB6;}
	.st73{fill:#CFCFCF;stroke:#CFCFCF;stroke-width:1.3717;stroke-linecap:round;stroke-linejoin:round;stroke-miterlimit:10;}
	.st74{fill:#7FA311;}
</style>
<g>
	<path class="st12" d="M20.5,27.1L20.5,27.1c-1.3,0-2.4-1.1-2.4-2.4v-6.1c0-1.3,1.1-2.4,2.4-2.4h0c1.3,0,2.4,1.1,2.4,2.4v6.1
		C22.8,26.1,21.7,27.1,20.5,27.1z"/>
	<path class="st12" d="M38.5,27.1L38.5,27.1c-1.3,0-2.4-1.1-2.4-2.4v-6.1c0-1.3,1.1-2.4,2.4-2.4h0c1.3,0,2.4,1.1,2.4,2.4v6.1
		C40.8,26.1,39.7,27.1,38.5,27.1z"/>
	<rect x="13.2" y="31.6" class="st13" width="32.7" height="19.1"/>
	<g>
		<path class="st13" d="M24.1,22v3c0,2-1.6,3.6-3.6,3.6S16.8,27,16.8,25v-3"/>
		<line class="st13" x1="24.1" y1="22" x2="34.8" y2="22"/>
		<polyline class="st13" points="16.8,22 10.4,22 10.4,53.8 49.2,53.8 49.2,22 42.1,22 		"/>
		<path class="st13" d="M42.1,22v3c0,2-1.6,3.6-3.6,3.6S34.8,27,34.8,25v-3"/>
	</g>
	<g>
		<path class="st15" d="M30.1,47h-7.2v-1l3.6-4c0.6-0.7,1.1-1.3,1.3-1.7c0.2-0.4,0.3-0.9,0.3-1.3c0-0.6-0.2-1-0.5-1.4
			C27.4,37.2,27,37,26.5,37c-0.8,0-1.3,0.2-1.7,0.6c-0.4,0.4-0.5,0.9-0.5,1.7h-1.4l0,0c0-1,0.3-1.8,0.9-2.4s1.6-1,2.7-1
			c1,0,1.8,0.3,2.4,0.9s0.9,1.3,0.9,2.2c0,0.6-0.2,1.2-0.5,1.8s-0.9,1.3-1.5,1.9l-2.9,3.2l0,0h5.3V47z"/>
		<path class="st15" d="M33.7,40.8H35c0.7,0,1.1-0.2,1.4-0.5s0.4-0.8,0.4-1.4c0-0.6-0.2-1.1-0.5-1.4C36.1,37.1,35.6,37,35,37
			c-0.6,0-1,0.2-1.4,0.5c-0.4,0.3-0.5,0.8-0.5,1.4h-1.4l0,0c0-0.8,0.3-1.5,0.9-2.1c0.6-0.6,1.5-0.9,2.5-0.9c1,0,1.8,0.3,2.4,0.8
			c0.6,0.5,0.9,1.3,0.9,2.3c0,0.5-0.1,0.9-0.4,1.4s-0.7,0.8-1.2,1c0.7,0.2,1.1,0.6,1.4,1s0.4,1,0.4,1.6c0,1-0.3,1.8-1,2.4
			S36,47.2,35,47.2c-1,0-1.8-0.3-2.5-0.8s-1-1.3-1-2.2l0,0H33c0,0.6,0.2,1,0.5,1.4S34.4,46,35,46c0.6,0,1.1-0.2,1.5-0.5
			s0.5-0.8,0.5-1.5c0-0.7-0.2-1.2-0.5-1.5S35.7,42,35,42h-1.3V40.8z"/>
	</g>
</g>
</svg>
