<?xml version="1.0" encoding="utf-8"?>
<!-- Generator: Adobe Illustrator 19.1.1, SVG Export Plug-In . SVG Version: 6.00 Build 0)  -->
<svg version="1.1" id="Layer_1" xmlns="http://www.w3.org/2000/svg" xmlns:xlink="http://www.w3.org/1999/xlink" x="0px" y="0px"
	 viewBox="0 0 62 69" preserveAspectRatio="xminymid" style="enable-background:new 0 0 62 69;" xml:space="preserve">
<style type="text/css">
	.st0{fill:none;}
	.st1{fill:#D62727;}
	.st2{fill:none;stroke:#D62727;stroke-miterlimit:10;}
	.st3{fill:#CE0000;}
	.st4{fill:none;stroke:#9B9B9B;stroke-miterlimit:10;}
	.st5{fill:none;stroke:#9B9B9B;stroke-linecap:round;stroke-miterlimit:10;}
	.st6{fill:#999999;}
	.st7{fill:none;stroke:#999999;stroke-width:2;stroke-miterlimit:10;}
	.st8{fill:none;stroke:#000000;stroke-miterlimit:10;}
	.st9{opacity:0.4;fill-rule:evenodd;clip-rule:evenodd;}
	.st10{fill-rule:evenodd;clip-rule:evenodd;stroke:#FFFFFF;stroke-width:3;stroke-miterlimit:10;}
	.st11{fill-rule:evenodd;clip-rule:evenodd;fill:#ED342E;}
	.st12{opacity:0.2;fill-rule:evenodd;clip-rule:evenodd;}
	.st13{filter:url(#Adobe_OpacityMaskFilter);}
	.st14{mask:url(#SVGID_1_);}
	.st15{fill:none;stroke:#000000;stroke-width:2.7824;stroke-miterlimit:10;}
	.st16{fill:#A6D53E;}
	.st17{fill:#D9D9D9;}
	.st18{fill:#526A1E;}
	.st19{fill:#848484;stroke:#CFCFCF;stroke-miterlimit:10;}
	.st20{fill:#D47023;}
	.st21{fill:#E38842;}
	.st22{fill:#DF4148;}
	.st23{fill:#FFFFFF;}
</style>
<g>
	<path class="st4" d="M20.5,27.1L20.5,27.1c-1.3,0-2.4-1.1-2.4-2.4v-6.1c0-1.3,1.1-2.4,2.4-2.4h0c1.3,0,2.4,1.1,2.4,2.4v6.1
		C22.8,26.1,21.7,27.1,20.5,27.1z"/>
	<path class="st4" d="M38.5,27.1L38.5,27.1c-1.3,0-2.4-1.1-2.4-2.4v-6.1c0-1.3,1.1-2.4,2.4-2.4h0c1.3,0,2.4,1.1,2.4,2.4v6.1
		C40.8,26.1,39.7,27.1,38.5,27.1z"/>
	<rect x="13.2" y="31.6" class="st5" width="32.7" height="19.1"/>
	<g>
		<path class="st5" d="M24.1,22v3c0,2-1.6,3.6-3.6,3.6S16.8,27,16.8,25v-3"/>
		<line class="st5" x1="24.1" y1="22" x2="34.8" y2="22"/>
		<polyline class="st5" points="16.8,22 10.4,22 10.4,53.8 49.2,53.8 49.2,22 42.1,22 		"/>
		<path class="st5" d="M42.1,22v3c0,2-1.6,3.6-3.6,3.6S34.8,27,34.8,25v-3"/>
	</g>
	<rect x="24" y="35.2" class="st6" width="2.9" height="2.9"/>
	<rect x="28" y="35.2" class="st6" width="2.9" height="2.9"/>
	<rect x="32" y="35.2" class="st6" width="2.9" height="2.9"/>
	<rect x="36" y="35.2" class="st6" width="2.9" height="2.9"/>
	<rect x="40" y="35.2" class="st6" width="2.9" height="2.9"/>
	<rect x="16" y="40.2" class="st6" width="2.9" height="2.9"/>
	<rect x="20" y="40.2" class="st6" width="2.9" height="2.9"/>
	<rect x="24" y="40.2" class="st6" width="2.9" height="2.9"/>
	<rect x="28" y="40.2" class="st6" width="2.9" height="2.9"/>
	<rect x="32" y="40.2" class="st6" width="2.9" height="2.9"/>
	<rect x="36" y="40.2" class="st6" width="2.9" height="2.9"/>
	<rect x="40" y="40.2" class="st6" width="2.9" height="2.9"/>
	<rect x="16" y="45.1" class="st6" width="2.9" height="2.9"/>
	<rect x="20" y="45.1" class="st6" width="2.9" height="2.9"/>
	<rect x="24" y="45.1" class="st6" width="2.9" height="2.9"/>
	<rect x="28" y="45.1" class="st6" width="2.9" height="2.9"/>
	<rect x="32" y="45.1" class="st6" width="2.9" height="2.9"/>
</g>
</svg>
