<?xml version="1.0" encoding="utf-8"?>
<!-- Generator: Adobe Illustrator 19.1.1, SVG Export Plug-In . SVG Version: 6.00 Build 0)  -->
<svg version="1.1" id="Layer_1" xmlns="http://www.w3.org/2000/svg" xmlns:xlink="http://www.w3.org/1999/xlink" x="0px" y="0px"
	 viewBox="-193 426.8 379.7 172.2" style="enable-background:new -193 426.8 379.7 172.2;" xml:space="preserve">
<style type="text/css">
	.st0{enable-background:new    ;}
	.st1{fill:#CF1E26;}
	.st2{fill:none;stroke:#CF1E26;stroke-width:3;stroke-miterlimit:10;}
	.st3{opacity:0.4;enable-background:new    ;}
	.st4{fill:#FFFFFF;}
	.st5{stroke:#FFFFFF;stroke-width:3;stroke-miterlimit:10;}
	.st6{fill:#ED342E;}
</style>
<g class="st0">
	<path class="st1" d="M-63.9,566.9c0.3,0,0.5,0.1,0.7,0.3l1.8,2c-1.4,1.6-3.1,2.9-5.1,3.8c-2,0.9-4.4,1.4-7.2,1.4
		c-2.4,0-4.6-0.4-6.6-1.3c-2-0.8-3.7-2-5.1-3.6c-1.4-1.5-2.5-3.4-3.3-5.5c-0.8-2.1-1.2-4.5-1.2-7s0.4-4.9,1.2-7
		c0.8-2.1,1.9-4,3.4-5.5c1.5-1.5,3.2-2.7,5.2-3.6c2-0.8,4.3-1.3,6.8-1.3c2.4,0,4.6,0.4,6.4,1.2c1.8,0.8,3.5,1.8,4.9,3.2l-1.5,2.1
		c-0.1,0.2-0.2,0.3-0.4,0.4c-0.2,0.1-0.4,0.2-0.6,0.2c-0.3,0-0.6-0.2-1-0.5c-0.4-0.3-0.9-0.7-1.6-1s-1.5-0.7-2.5-1
		c-1-0.3-2.2-0.5-3.7-0.5c-1.8,0-3.4,0.3-4.8,0.9c-1.5,0.6-2.7,1.5-3.8,2.6s-1.9,2.6-2.5,4.2c-0.6,1.7-0.9,3.5-0.9,5.6
		c0,2.1,0.3,4,0.9,5.7c0.6,1.7,1.4,3.1,2.5,4.2c1.1,1.1,2.3,2,3.7,2.6c1.4,0.6,3,0.9,4.6,0.9c1,0,1.9-0.1,2.7-0.2
		c0.8-0.1,1.6-0.3,2.3-0.6c0.7-0.3,1.3-0.6,1.9-1c0.6-0.4,1.2-0.8,1.8-1.4C-64.4,567-64.1,566.9-63.9,566.9z"/>
	<path class="st1" d="M-23.3,556.9c0,2.5-0.4,4.9-1.2,7s-1.9,4-3.4,5.5c-1.5,1.5-3.2,2.7-5.3,3.6c-2.1,0.8-4.3,1.3-6.8,1.3
		c-2.5,0-4.8-0.4-6.8-1.3c-2.1-0.8-3.8-2-5.3-3.6c-1.5-1.5-2.6-3.4-3.4-5.5s-1.2-4.5-1.2-7s0.4-4.9,1.2-7s1.9-4,3.4-5.5
		c1.5-1.5,3.2-2.7,5.3-3.6c2.1-0.9,4.3-1.3,6.8-1.3c2.5,0,4.8,0.4,6.8,1.3c2.1,0.9,3.8,2.1,5.3,3.6c1.5,1.5,2.6,3.4,3.4,5.5
		S-23.3,554.4-23.3,556.9z M-28.1,556.9c0-2.1-0.3-4-0.9-5.6c-0.6-1.7-1.4-3.1-2.4-4.2s-2.3-2-3.8-2.6c-1.5-0.6-3.1-0.9-5-0.9
		c-1.8,0-3.5,0.3-5,0.9c-1.5,0.6-2.8,1.5-3.8,2.6c-1.1,1.1-1.9,2.5-2.4,4.2c-0.6,1.7-0.9,3.5-0.9,5.6c0,2.1,0.3,4,0.9,5.6
		s1.4,3,2.4,4.2c1.1,1.1,2.3,2,3.8,2.6c1.5,0.6,3.1,0.9,5,0.9c1.8,0,3.5-0.3,5-0.9c1.5-0.6,2.7-1.5,3.8-2.6s1.8-2.5,2.4-4.2
		S-28.1,559-28.1,556.9z"/>
	<path class="st1" d="M12.7,539.9v34h-2.3c-0.4,0-0.7-0.1-0.9-0.2c-0.2-0.1-0.5-0.3-0.7-0.6l-19.6-25.6c0,0.4,0.1,0.8,0.1,1.2
		c0,0.4,0,0.7,0,1.1v24.2h-4v-34h2.4c0.2,0,0.4,0,0.5,0c0.1,0,0.3,0.1,0.4,0.1c0.1,0.1,0.2,0.1,0.3,0.2s0.2,0.2,0.4,0.4l19.6,25.6
		c0-0.4-0.1-0.8-0.1-1.2c0-0.4,0-0.8,0-1.1v-24.1H12.7z"/>
	<path class="st1" d="M50.9,539.9v34h-2.3c-0.4,0-0.7-0.1-0.9-0.2c-0.2-0.1-0.5-0.3-0.7-0.6l-19.6-25.6c0,0.4,0.1,0.8,0.1,1.2
		c0,0.4,0,0.7,0,1.1v24.2h-4v-34h2.4c0.2,0,0.4,0,0.5,0c0.1,0,0.3,0.1,0.4,0.1s0.2,0.1,0.3,0.2s0.2,0.2,0.4,0.4L47,566.3
		c0-0.4-0.1-0.8-0.1-1.2c0-0.4,0-0.8,0-1.1v-24.1H50.9z"/>
	<path class="st1" d="M82.5,570.2l0,3.7H61.6v-34h20.9v3.7H66.2V555h13.2v3.6H66.2v11.6H82.5z"/>
	<path class="st1" d="M114.1,566.9c0.3,0,0.5,0.1,0.7,0.3l1.8,2c-1.4,1.6-3.1,2.9-5.1,3.8c-2,0.9-4.4,1.4-7.2,1.4
		c-2.4,0-4.6-0.4-6.6-1.3c-2-0.8-3.7-2-5.1-3.6c-1.4-1.5-2.5-3.4-3.3-5.5c-0.8-2.1-1.2-4.5-1.2-7s0.4-4.9,1.2-7
		c0.8-2.1,1.9-4,3.4-5.5c1.5-1.5,3.2-2.7,5.2-3.6c2-0.8,4.3-1.3,6.8-1.3c2.4,0,4.6,0.4,6.4,1.2c1.8,0.8,3.5,1.8,4.9,3.2l-1.5,2.1
		c-0.1,0.2-0.2,0.3-0.4,0.4c-0.2,0.1-0.4,0.2-0.6,0.2c-0.3,0-0.6-0.2-1-0.5c-0.4-0.3-0.9-0.7-1.6-1c-0.7-0.4-1.5-0.7-2.5-1
		c-1-0.3-2.2-0.5-3.7-0.5c-1.8,0-3.4,0.3-4.8,0.9s-2.7,1.5-3.8,2.6s-1.9,2.6-2.5,4.2c-0.6,1.7-0.9,3.5-0.9,5.6c0,2.1,0.3,4,0.9,5.7
		c0.6,1.7,1.4,3.1,2.5,4.2c1.1,1.1,2.3,2,3.7,2.6c1.4,0.6,3,0.9,4.6,0.9c1,0,1.9-0.1,2.7-0.2c0.8-0.1,1.6-0.3,2.3-0.6s1.3-0.6,1.9-1
		c0.6-0.4,1.2-0.8,1.8-1.4C113.5,567,113.8,566.9,114.1,566.9z"/>
	<path class="st1" d="M146.8,543.8h-11v30.1h-4.6v-30.1h-11v-3.9h26.6V543.8z"/>
</g>
<g class="st0">
	<path class="st2" d="M-63.9,566.9c0.3,0,0.5,0.1,0.7,0.3l1.8,2c-1.4,1.6-3.1,2.9-5.1,3.8c-2,0.9-4.4,1.4-7.2,1.4
		c-2.4,0-4.6-0.4-6.6-1.3c-2-0.8-3.7-2-5.1-3.6c-1.4-1.5-2.5-3.4-3.3-5.5c-0.8-2.1-1.2-4.5-1.2-7s0.4-4.9,1.2-7
		c0.8-2.1,1.9-4,3.4-5.5c1.5-1.5,3.2-2.7,5.2-3.6c2-0.8,4.3-1.3,6.8-1.3c2.4,0,4.6,0.4,6.4,1.2c1.8,0.8,3.5,1.8,4.9,3.2l-1.5,2.1
		c-0.1,0.2-0.2,0.3-0.4,0.4c-0.2,0.1-0.4,0.2-0.6,0.2c-0.3,0-0.6-0.2-1-0.5c-0.4-0.3-0.9-0.7-1.6-1s-1.5-0.7-2.5-1
		c-1-0.3-2.2-0.5-3.7-0.5c-1.8,0-3.4,0.3-4.8,0.9c-1.5,0.6-2.7,1.5-3.8,2.6s-1.9,2.6-2.5,4.2c-0.6,1.7-0.9,3.5-0.9,5.6
		c0,2.1,0.3,4,0.9,5.7c0.6,1.7,1.4,3.1,2.5,4.2c1.1,1.1,2.3,2,3.7,2.6c1.4,0.6,3,0.9,4.6,0.9c1,0,1.9-0.1,2.7-0.2
		c0.8-0.1,1.6-0.3,2.3-0.6c0.7-0.3,1.3-0.6,1.9-1c0.6-0.4,1.2-0.8,1.8-1.4C-64.4,567-64.1,566.9-63.9,566.9z"/>
	<path class="st2" d="M-23.3,556.9c0,2.5-0.4,4.9-1.2,7s-1.9,4-3.4,5.5c-1.5,1.5-3.2,2.7-5.3,3.6c-2.1,0.8-4.3,1.3-6.8,1.3
		c-2.5,0-4.8-0.4-6.8-1.3c-2.1-0.8-3.8-2-5.3-3.6c-1.5-1.5-2.6-3.4-3.4-5.5s-1.2-4.5-1.2-7s0.4-4.9,1.2-7s1.9-4,3.4-5.5
		c1.5-1.5,3.2-2.7,5.3-3.6c2.1-0.9,4.3-1.3,6.8-1.3c2.5,0,4.8,0.4,6.8,1.3c2.1,0.9,3.8,2.1,5.3,3.6c1.5,1.5,2.6,3.4,3.4,5.5
		S-23.3,554.4-23.3,556.9z M-28.1,556.9c0-2.1-0.3-4-0.9-5.6c-0.6-1.7-1.4-3.1-2.4-4.2s-2.3-2-3.8-2.6c-1.5-0.6-3.1-0.9-5-0.9
		c-1.8,0-3.5,0.3-5,0.9c-1.5,0.6-2.8,1.5-3.8,2.6c-1.1,1.1-1.9,2.5-2.4,4.2c-0.6,1.7-0.9,3.5-0.9,5.6c0,2.1,0.3,4,0.9,5.6
		s1.4,3,2.4,4.2c1.1,1.1,2.3,2,3.8,2.6c1.5,0.6,3.1,0.9,5,0.9c1.8,0,3.5-0.3,5-0.9c1.5-0.6,2.7-1.5,3.8-2.6s1.8-2.5,2.4-4.2
		S-28.1,559-28.1,556.9z"/>
	<path class="st2" d="M12.7,539.9v34h-2.3c-0.4,0-0.7-0.1-0.9-0.2c-0.2-0.1-0.5-0.3-0.7-0.6l-19.6-25.6c0,0.4,0.1,0.8,0.1,1.2
		c0,0.4,0,0.7,0,1.1v24.2h-4v-34h2.4c0.2,0,0.4,0,0.5,0c0.1,0,0.3,0.1,0.4,0.1c0.1,0.1,0.2,0.1,0.3,0.2s0.2,0.2,0.4,0.4l19.6,25.6
		c0-0.4-0.1-0.8-0.1-1.2c0-0.4,0-0.8,0-1.1v-24.1H12.7z"/>
	<path class="st2" d="M50.9,539.9v34h-2.3c-0.4,0-0.7-0.1-0.9-0.2c-0.2-0.1-0.5-0.3-0.7-0.6l-19.6-25.6c0,0.4,0.1,0.8,0.1,1.2
		c0,0.4,0,0.7,0,1.1v24.2h-4v-34h2.4c0.2,0,0.4,0,0.5,0c0.1,0,0.3,0.1,0.4,0.1s0.2,0.1,0.3,0.2s0.2,0.2,0.4,0.4L47,566.3
		c0-0.4-0.1-0.8-0.1-1.2c0-0.4,0-0.8,0-1.1v-24.1H50.9z"/>
	<path class="st2" d="M82.5,570.2l0,3.7H61.6v-34h20.9v3.7H66.2V555h13.2v3.6H66.2v11.6H82.5z"/>
	<path class="st2" d="M114.1,566.9c0.3,0,0.5,0.1,0.7,0.3l1.8,2c-1.4,1.6-3.1,2.9-5.1,3.8c-2,0.9-4.4,1.4-7.2,1.4
		c-2.4,0-4.6-0.4-6.6-1.3c-2-0.8-3.7-2-5.1-3.6c-1.4-1.5-2.5-3.4-3.3-5.5c-0.8-2.1-1.2-4.5-1.2-7s0.4-4.9,1.2-7
		c0.8-2.1,1.9-4,3.4-5.5c1.5-1.5,3.2-2.7,5.2-3.6c2-0.8,4.3-1.3,6.8-1.3c2.4,0,4.6,0.4,6.4,1.2c1.8,0.8,3.5,1.8,4.9,3.2l-1.5,2.1
		c-0.1,0.2-0.2,0.3-0.4,0.4c-0.2,0.1-0.4,0.2-0.6,0.2c-0.3,0-0.6-0.2-1-0.5c-0.4-0.3-0.9-0.7-1.6-1c-0.7-0.4-1.5-0.7-2.5-1
		c-1-0.3-2.2-0.5-3.7-0.5c-1.8,0-3.4,0.3-4.8,0.9s-2.7,1.5-3.8,2.6s-1.9,2.6-2.5,4.2c-0.6,1.7-0.9,3.5-0.9,5.6c0,2.1,0.3,4,0.9,5.7
		c0.6,1.7,1.4,3.1,2.5,4.2c1.1,1.1,2.3,2,3.7,2.6c1.4,0.6,3,0.9,4.6,0.9c1,0,1.9-0.1,2.7-0.2c0.8-0.1,1.6-0.3,2.3-0.6s1.3-0.6,1.9-1
		c0.6-0.4,1.2-0.8,1.8-1.4C113.5,567,113.8,566.9,114.1,566.9z"/>
	<path class="st2" d="M146.8,543.8h-11v30.1h-4.6v-30.1h-11v-3.9h26.6V543.8z"/>
</g>
<g class="st0">
	<path class="st1" d="M-32.6,523.9c0.6,0,1.1,0,1.5-0.1c0.4-0.1,0.8-0.2,1.2-0.3c0.3-0.1,0.6-0.3,0.8-0.5s0.4-0.3,0.6-0.5
		c0.2-0.1,0.3-0.3,0.5-0.3c0.1-0.1,0.3-0.1,0.4-0.1c0.1,0,0.2,0,0.2,0.1s0.1,0.1,0.2,0.1l1.1,1.4c-0.8,0.9-1.8,1.7-3,2.2
		s-2.5,0.8-4,0.8c-1.2,0-2.3-0.2-3.2-0.6s-1.7-1-2.4-1.8c-0.6-0.8-1.1-1.7-1.5-2.7c-0.3-1-0.5-2.2-0.5-3.4c0-1.7,0.3-3.3,0.8-4.7
		c0.5-1.4,1.3-2.6,2.2-3.7c0.9-1,2-1.8,3.3-2.4c1.3-0.6,2.6-0.8,4.1-0.8c0.7,0,1.4,0.1,1.9,0.2c0.6,0.1,1.1,0.3,1.6,0.5
		c0.5,0.2,0.9,0.5,1.3,0.8s0.7,0.7,1.1,1.1l-1.1,1.3c-0.1,0.1-0.2,0.2-0.3,0.3c-0.1,0.1-0.2,0.1-0.4,0.1c-0.1,0-0.2,0-0.4-0.1
		c-0.1-0.1-0.3-0.2-0.4-0.3c-0.1-0.1-0.3-0.3-0.5-0.4c-0.2-0.1-0.4-0.3-0.7-0.4s-0.6-0.2-1-0.3s-0.8-0.1-1.3-0.1
		c-1,0-1.9,0.2-2.8,0.6c-0.9,0.4-1.6,1-2.2,1.7c-0.6,0.7-1.1,1.7-1.5,2.7c-0.4,1.1-0.5,2.3-0.5,3.6c0,1,0.1,1.8,0.4,2.6
		s0.6,1.4,1,1.9c0.4,0.5,1,0.9,1.6,1.2C-34,523.7-33.4,523.9-32.6,523.9z"/>
	<path class="st1" d="M-3.5,526.3h-2.4c-0.3,0-0.5-0.1-0.6-0.2s-0.3-0.3-0.3-0.5l-0.9-4.4h-7.7l-2,4.4c-0.1,0.2-0.2,0.4-0.4,0.5
		c-0.2,0.1-0.4,0.2-0.7,0.2h-2.4l9.6-19.7h3.1L-3.5,526.3z M-8.2,518.9l-1.6-7.4c0-0.3-0.1-0.6-0.2-1c-0.1-0.4-0.1-0.8-0.2-1.2
		c-0.2,0.4-0.3,0.8-0.5,1.2c-0.2,0.4-0.3,0.7-0.4,1l-3.4,7.3H-8.2z"/>
	<path class="st1" d="M15.2,509.9c-0.1,0.2-0.2,0.3-0.3,0.3c-0.1,0.1-0.2,0.1-0.4,0.1c-0.2,0-0.3-0.1-0.5-0.2
		c-0.2-0.2-0.4-0.3-0.7-0.5c-0.3-0.2-0.6-0.3-1-0.5c-0.4-0.2-0.8-0.2-1.4-0.2s-1,0.1-1.4,0.2s-0.8,0.4-1.1,0.7s-0.5,0.6-0.6,1
		c-0.1,0.4-0.2,0.8-0.2,1.2c0,0.4,0.1,0.8,0.3,1.1c0.2,0.3,0.5,0.6,0.9,0.8c0.4,0.2,0.8,0.4,1.2,0.6c0.4,0.2,0.9,0.4,1.4,0.5
		c0.5,0.2,0.9,0.4,1.4,0.6c0.4,0.2,0.8,0.5,1.2,0.9s0.6,0.8,0.9,1.2c0.2,0.5,0.3,1.1,0.3,1.8c0,0.9-0.2,1.8-0.5,2.7
		c-0.3,0.8-0.8,1.6-1.4,2.2c-0.6,0.6-1.3,1.1-2.2,1.5c-0.9,0.4-1.8,0.6-2.9,0.6c-0.6,0-1.1-0.1-1.7-0.2c-0.5-0.1-1.1-0.3-1.5-0.5
		c-0.5-0.2-0.9-0.5-1.3-0.8c-0.4-0.3-0.8-0.7-1.1-1.1l1.1-1.5c0.1-0.1,0.2-0.2,0.3-0.3c0.1-0.1,0.3-0.1,0.4-0.1
		c0.2,0,0.4,0.1,0.6,0.3c0.2,0.2,0.5,0.4,0.8,0.7c0.3,0.2,0.7,0.5,1.1,0.7s1,0.3,1.6,0.3c0.6,0,1.1-0.1,1.5-0.3
		c0.5-0.2,0.8-0.4,1.2-0.7s0.6-0.7,0.7-1.1c0.2-0.5,0.3-1,0.3-1.5c0-0.5-0.1-0.9-0.3-1.2c-0.2-0.3-0.5-0.6-0.8-0.8s-0.8-0.4-1.2-0.6
		s-0.9-0.3-1.4-0.5s-0.9-0.4-1.4-0.6c-0.4-0.2-0.8-0.5-1.2-0.8c-0.4-0.3-0.6-0.8-0.8-1.3c-0.2-0.5-0.3-1.1-0.3-1.9
		c0-0.8,0.2-1.6,0.5-2.4c0.3-0.8,0.7-1.4,1.3-2c0.6-0.6,1.3-1.1,2.1-1.4s1.7-0.5,2.7-0.5c0.5,0,1,0.1,1.5,0.2
		c0.5,0.1,0.9,0.3,1.3,0.5c0.4,0.2,0.8,0.4,1.1,0.7s0.6,0.6,0.9,0.9L15.2,509.9z"/>
	<path class="st1" d="M40.1,506.6l-2.4,19.7h-3.1l1.1-8.8h-8.9l-1.1,8.8h-3.1l2.4-19.7h3.1l-1.1,8.7h8.9l1.1-8.7H40.1z"/>
</g>
<path class="st3" d="M-134.1,446.4c0,0,10.1,13.1,32.8,27.8c22.9,14.6,43.7,20.6,43.7,20.6l-17.3,33.4c0,0-13.1-4.4-22.7-9.8
	c-16.8,31.8-34.3,65.9-34.3,65.9s-22.8-11.8-35.7-22.3c22.3-42.9,31.5-64,31.5-64s-11.5-8.3-18.2-16.9
	C-147.3,468-134.1,446.4-134.1,446.4z"/>
<g class="st0">
	<path class="st4" d="M-33.6,516.9c0.6,0,1.1,0,1.5-0.1c0.4-0.1,0.8-0.2,1.2-0.3c0.3-0.1,0.6-0.3,0.8-0.5s0.4-0.3,0.6-0.5
		c0.2-0.1,0.3-0.3,0.5-0.3c0.1-0.1,0.3-0.1,0.4-0.1c0.1,0,0.2,0,0.2,0.1s0.1,0.1,0.2,0.1l1.1,1.4c-0.8,0.9-1.8,1.7-3,2.2
		s-2.5,0.8-4,0.8c-1.2,0-2.3-0.2-3.2-0.6s-1.7-1-2.4-1.8c-0.6-0.8-1.1-1.7-1.5-2.7c-0.3-1-0.5-2.2-0.5-3.4c0-1.7,0.3-3.3,0.8-4.7
		c0.5-1.4,1.3-2.6,2.2-3.7c0.9-1,2-1.8,3.3-2.4c1.3-0.6,2.6-0.8,4.1-0.8c0.7,0,1.4,0.1,1.9,0.2c0.6,0.1,1.1,0.3,1.6,0.5
		c0.5,0.2,0.9,0.5,1.3,0.8s0.7,0.7,1.1,1.1l-1.1,1.3c-0.1,0.1-0.2,0.2-0.3,0.3c-0.1,0.1-0.2,0.1-0.4,0.1c-0.1,0-0.2,0-0.4-0.1
		c-0.1-0.1-0.3-0.2-0.4-0.3c-0.1-0.1-0.3-0.3-0.5-0.4c-0.2-0.1-0.4-0.3-0.7-0.4s-0.6-0.2-1-0.3s-0.8-0.1-1.3-0.1
		c-1,0-1.9,0.2-2.8,0.6c-0.9,0.4-1.6,1-2.2,1.7c-0.6,0.7-1.1,1.7-1.5,2.7c-0.4,1.1-0.5,2.3-0.5,3.6c0,1,0.1,1.8,0.4,2.6
		c0.2,0.8,0.6,1.4,1,1.9c0.4,0.5,1,0.9,1.6,1.2C-35,516.7-34.4,516.9-33.6,516.9z"/>
	<path class="st4" d="M-4.5,519.3h-2.4c-0.3,0-0.5-0.1-0.6-0.2s-0.3-0.3-0.3-0.5l-0.9-4.4h-7.7l-2,4.4c-0.1,0.2-0.2,0.4-0.4,0.5
		c-0.2,0.1-0.4,0.2-0.7,0.2h-2.4l9.6-19.7h3.1L-4.5,519.3z M-9.2,511.9l-1.6-7.4c0-0.3-0.1-0.6-0.2-1c-0.1-0.4-0.1-0.8-0.2-1.2
		c-0.2,0.4-0.3,0.8-0.5,1.2c-0.2,0.4-0.3,0.7-0.4,1l-3.4,7.3H-9.2z"/>
	<path class="st4" d="M14.2,502.9c-0.1,0.2-0.2,0.3-0.3,0.3c-0.1,0.1-0.2,0.1-0.4,0.1c-0.2,0-0.3-0.1-0.5-0.2
		c-0.2-0.2-0.4-0.3-0.7-0.5c-0.3-0.2-0.6-0.3-1-0.5c-0.4-0.2-0.8-0.2-1.4-0.2s-1,0.1-1.4,0.2s-0.8,0.4-1.1,0.7s-0.5,0.6-0.6,1
		c-0.1,0.4-0.2,0.8-0.2,1.2c0,0.4,0.1,0.8,0.3,1.1c0.2,0.3,0.5,0.6,0.9,0.8s0.8,0.4,1.2,0.6c0.4,0.2,0.9,0.4,1.4,0.5
		c0.5,0.2,0.9,0.4,1.4,0.6c0.4,0.2,0.8,0.5,1.2,0.9s0.6,0.8,0.9,1.2c0.2,0.5,0.3,1.1,0.3,1.8c0,0.9-0.2,1.8-0.5,2.7
		c-0.3,0.8-0.8,1.6-1.4,2.2c-0.6,0.6-1.3,1.1-2.2,1.5c-0.9,0.4-1.8,0.6-2.9,0.6c-0.6,0-1.1-0.1-1.7-0.2c-0.5-0.1-1.1-0.3-1.5-0.5
		c-0.5-0.2-0.9-0.5-1.3-0.8c-0.4-0.3-0.8-0.7-1.1-1.1l1.1-1.5c0.1-0.1,0.2-0.2,0.3-0.3c0.1-0.1,0.3-0.1,0.4-0.1
		c0.2,0,0.4,0.1,0.6,0.3c0.2,0.2,0.5,0.4,0.8,0.7c0.3,0.2,0.7,0.5,1.1,0.7s1,0.3,1.6,0.3c0.6,0,1.1-0.1,1.5-0.3
		c0.5-0.2,0.8-0.4,1.2-0.7s0.6-0.7,0.7-1.1c0.2-0.5,0.3-1,0.3-1.5c0-0.5-0.1-0.9-0.3-1.2c-0.2-0.3-0.5-0.6-0.8-0.8s-0.8-0.4-1.2-0.6
		s-0.9-0.3-1.4-0.5s-0.9-0.4-1.4-0.6c-0.4-0.2-0.8-0.5-1.2-0.8c-0.4-0.3-0.6-0.8-0.8-1.3c-0.2-0.5-0.3-1.1-0.3-1.9
		c0-0.8,0.2-1.6,0.5-2.4c0.3-0.8,0.7-1.4,1.3-2c0.6-0.6,1.3-1.1,2.1-1.4s1.7-0.5,2.7-0.5c0.5,0,1,0.1,1.5,0.2
		c0.5,0.1,0.9,0.3,1.3,0.5c0.4,0.2,0.8,0.4,1.1,0.7s0.6,0.6,0.9,0.9L14.2,502.9z"/>
	<path class="st4" d="M39.1,499.6l-2.4,19.7h-3.1l1.1-8.8h-8.9l-1.1,8.8h-3.1l2.4-19.7h3.1l-1.1,8.7h8.9l1.1-8.7H39.1z"/>
</g>
<g class="st0">
	<path class="st4" d="M-64.9,562.9c0.3,0,0.5,0.1,0.7,0.3l1.8,2c-1.4,1.6-3.1,2.9-5.1,3.8c-2,0.9-4.4,1.4-7.2,1.4
		c-2.4,0-4.6-0.4-6.6-1.3c-2-0.8-3.7-2-5.1-3.6c-1.4-1.5-2.5-3.4-3.3-5.5c-0.8-2.1-1.2-4.5-1.2-7s0.4-4.9,1.2-7
		c0.8-2.1,1.9-4,3.4-5.5c1.5-1.5,3.2-2.7,5.2-3.6c2-0.8,4.3-1.3,6.8-1.3c2.4,0,4.6,0.4,6.4,1.2c1.8,0.8,3.5,1.8,4.9,3.2l-1.5,2.1
		c-0.1,0.2-0.2,0.3-0.4,0.4c-0.2,0.1-0.4,0.2-0.6,0.2c-0.3,0-0.6-0.2-1-0.5c-0.4-0.3-0.9-0.7-1.6-1s-1.5-0.7-2.5-1
		c-1-0.3-2.2-0.5-3.7-0.5c-1.8,0-3.4,0.3-4.8,0.9c-1.5,0.6-2.7,1.5-3.8,2.6s-1.9,2.6-2.5,4.2c-0.6,1.7-0.9,3.5-0.9,5.6
		c0,2.1,0.3,4,0.9,5.7c0.6,1.7,1.4,3.1,2.5,4.2c1.1,1.1,2.3,2,3.7,2.6c1.4,0.6,3,0.9,4.6,0.9c1,0,1.9-0.1,2.7-0.2
		c0.8-0.1,1.6-0.3,2.3-0.6c0.7-0.3,1.3-0.6,1.9-1c0.6-0.4,1.2-0.8,1.8-1.4C-65.4,563-65.1,562.9-64.9,562.9z"/>
	<path class="st4" d="M-24.3,552.9c0,2.5-0.4,4.9-1.2,7s-1.9,4-3.4,5.5c-1.5,1.5-3.2,2.7-5.3,3.6c-2.1,0.8-4.3,1.3-6.8,1.3
		c-2.5,0-4.8-0.4-6.8-1.3c-2.1-0.8-3.8-2-5.3-3.6c-1.5-1.5-2.6-3.4-3.4-5.5s-1.2-4.5-1.2-7s0.4-4.9,1.2-7s1.9-4,3.4-5.5
		c1.5-1.5,3.2-2.7,5.3-3.6c2.1-0.9,4.3-1.3,6.8-1.3c2.5,0,4.8,0.4,6.8,1.3c2.1,0.9,3.8,2.1,5.3,3.6c1.5,1.5,2.6,3.4,3.4,5.5
		S-24.3,550.4-24.3,552.9z M-29.1,552.9c0-2.1-0.3-4-0.9-5.6c-0.6-1.7-1.4-3.1-2.4-4.2s-2.3-2-3.8-2.6c-1.5-0.6-3.1-0.9-5-0.9
		c-1.8,0-3.5,0.3-5,0.9c-1.5,0.6-2.8,1.5-3.8,2.6c-1.1,1.1-1.9,2.5-2.4,4.2c-0.6,1.7-0.9,3.5-0.9,5.6c0,2.1,0.3,4,0.9,5.6
		s1.4,3,2.4,4.2c1.1,1.1,2.3,2,3.8,2.6c1.5,0.6,3.1,0.9,5,0.9c1.8,0,3.5-0.3,5-0.9c1.5-0.6,2.7-1.5,3.8-2.6s1.8-2.5,2.4-4.2
		S-29.1,555-29.1,552.9z"/>
	<path class="st4" d="M11.7,535.9v34H9.4c-0.4,0-0.7-0.1-0.9-0.2c-0.2-0.1-0.5-0.3-0.7-0.6l-19.6-25.6c0,0.4,0.1,0.8,0.1,1.2
		c0,0.4,0,0.7,0,1.1v24.2h-4v-34h2.4c0.2,0,0.4,0,0.5,0c0.1,0,0.3,0.1,0.4,0.1c0.1,0.1,0.2,0.1,0.3,0.2s0.2,0.2,0.4,0.4l19.6,25.6
		c0-0.4-0.1-0.8-0.1-1.2c0-0.4,0-0.8,0-1.1v-24.1H11.7z"/>
	<path class="st4" d="M49.9,535.9v34h-2.3c-0.4,0-0.7-0.1-0.9-0.2c-0.2-0.1-0.5-0.3-0.7-0.6l-19.6-25.6c0,0.4,0.1,0.8,0.1,1.2
		c0,0.4,0,0.7,0,1.1v24.2h-4v-34h2.4c0.2,0,0.4,0,0.5,0c0.1,0,0.3,0.1,0.4,0.1s0.2,0.1,0.3,0.2s0.2,0.2,0.4,0.4L46,562.3
		c0-0.4-0.1-0.8-0.1-1.2c0-0.4,0-0.8,0-1.1v-24.1H49.9z"/>
	<path class="st4" d="M81.5,566.2l0,3.7H60.6v-34h20.9v3.7H65.2V551h13.2v3.6H65.2v11.6H81.5z"/>
	<path class="st4" d="M113.1,562.9c0.3,0,0.5,0.1,0.7,0.3l1.8,2c-1.4,1.6-3.1,2.9-5.1,3.8c-2,0.9-4.4,1.4-7.2,1.4
		c-2.4,0-4.6-0.4-6.6-1.3c-2-0.8-3.7-2-5.1-3.6c-1.4-1.5-2.5-3.4-3.3-5.5c-0.8-2.1-1.2-4.5-1.2-7s0.4-4.9,1.2-7
		c0.8-2.1,1.9-4,3.4-5.5c1.5-1.5,3.2-2.7,5.2-3.6c2-0.8,4.3-1.3,6.8-1.3c2.4,0,4.6,0.4,6.4,1.2c1.8,0.8,3.5,1.8,4.9,3.2l-1.5,2.1
		c-0.1,0.2-0.2,0.3-0.4,0.4c-0.2,0.1-0.4,0.2-0.6,0.2c-0.3,0-0.6-0.2-1-0.5c-0.4-0.3-0.9-0.7-1.6-1c-0.7-0.4-1.5-0.7-2.5-1
		c-1-0.3-2.2-0.5-3.7-0.5c-1.8,0-3.4,0.3-4.8,0.9s-2.7,1.5-3.8,2.6s-1.9,2.6-2.5,4.2c-0.6,1.7-0.9,3.5-0.9,5.6c0,2.1,0.3,4,0.9,5.7
		c0.6,1.7,1.4,3.1,2.5,4.2c1.1,1.1,2.3,2,3.7,2.6c1.4,0.6,3,0.9,4.6,0.9c1,0,1.9-0.1,2.7-0.2c0.8-0.1,1.6-0.3,2.3-0.6s1.3-0.6,1.9-1
		c0.6-0.4,1.2-0.8,1.8-1.4C112.5,563,112.8,562.9,113.1,562.9z"/>
	<path class="st4" d="M145.8,539.8h-11v30.1h-4.6v-30.1h-11v-3.9h26.6V539.8z"/>
</g>
<path class="st5" d="M-136.4,436.6c0,0,9.7,12.6,31.5,26.7c22,14.1,43.6,19.7,43.6,19.7l-16.1,31.2c0,0-14.2-4-23.4-9.3
	c-16.2,30.6-33.5,64.3-33.5,64.3s-21.8-11.4-34.3-21.5c21.4-41.2,33.3-63.7,33.3-63.7s-11-8-17.5-16.3
	C-146.1,455.2-136.4,436.6-136.4,436.6z"/>
<path class="st6" d="M-162.9,545.9l30.9-59.5c0,0,9.1,7.5,20.9,13.5c-12.9,24.6-31.2,59.3-31.2,59.3S-155.4,552.2-162.9,545.9z"/>
<path class="st6" d="M-129.9,482.4l12.4-23.6c0,0,8,6.4,20.6,13.5c-6.6,12.1-12.2,23.5-12.2,23.5S-118.4,491.7-129.9,482.4z"/>
</svg>
