<?xml version="1.0" encoding="utf-8"?>
<!-- Generator: Adobe Illustrator 19.1.1, SVG Export Plug-In . SVG Version: 6.00 Build 0)  -->
<svg version="1.1" id="Layer_1" xmlns="http://www.w3.org/2000/svg" xmlns:xlink="http://www.w3.org/1999/xlink" x="0px" y="0px"
	 viewBox="-129 482.8 379.7 172.2" style="enable-background:new -129 482.8 379.7 172.2;" xml:space="preserve">
<style type="text/css">
	.st0{opacity:0.2;enable-background:new    ;}
	.st1{enable-background:new    ;}
	.st2{fill:#898989;}
	.st3{stroke:#FFFFFF;stroke-width:3;stroke-miterlimit:10;}
	.st4{fill:#ED342E;}
</style>
<g>
	<path class="st0" d="M-58.3,501.8c0,0,10.1,13.1,32.8,27.8c22.9,14.7,43.7,20.7,43.7,20.7L0.9,583.7c0,0-13.1-4.4-22.7-9.8
		c-16.9,31.7-34.3,65.9-34.3,65.9s-22.8-11.8-35.7-22.3c22.3-42.9,31.5-64,31.5-64s-11.5-8.3-18.2-16.9
		C-71.5,523.4-58.3,501.8-58.3,501.8z"/>
	<g class="st1">
		<path class="st2" d="M42.1,572.3c0.6,0,1.1,0,1.5-0.1c0.4-0.1,0.8-0.2,1.2-0.3c0.3-0.1,0.6-0.3,0.8-0.5s0.4-0.3,0.6-0.5
			c0.2-0.1,0.3-0.3,0.5-0.3c0.1-0.1,0.3-0.1,0.4-0.1c0.1,0,0.2,0,0.2,0.1s0.1,0.1,0.2,0.1l1.1,1.4c-0.8,0.9-1.8,1.7-3,2.2
			s-2.5,0.8-4,0.8c-1.2,0-2.3-0.2-3.2-0.6s-1.7-1-2.4-1.8c-0.6-0.8-1.1-1.7-1.5-2.7c-0.3-1-0.5-2.2-0.5-3.4c0-1.7,0.3-3.3,0.8-4.7
			c0.5-1.4,1.3-2.6,2.2-3.7c0.9-1,2-1.8,3.3-2.4c1.3-0.6,2.6-0.8,4.1-0.8c0.7,0,1.4,0.1,1.9,0.2c0.6,0.1,1.1,0.3,1.6,0.5
			c0.5,0.2,0.9,0.5,1.3,0.8s0.7,0.7,1.1,1.1l-1.1,1.3c-0.1,0.1-0.2,0.2-0.3,0.3c-0.1,0.1-0.2,0.1-0.4,0.1c-0.1,0-0.2,0-0.4-0.1
			c-0.1-0.1-0.3-0.2-0.4-0.3c-0.1-0.1-0.3-0.3-0.5-0.4c-0.2-0.1-0.4-0.3-0.7-0.4s-0.6-0.2-1-0.3s-0.8-0.1-1.3-0.1
			c-1,0-1.9,0.2-2.8,0.6c-0.9,0.4-1.6,1-2.2,1.7c-0.6,0.7-1.1,1.7-1.5,2.7c-0.4,1.1-0.5,2.3-0.5,3.6c0,1,0.1,1.8,0.4,2.6
			s0.6,1.4,1,1.9c0.4,0.5,1,0.9,1.6,1.2C40.7,572.2,41.4,572.3,42.1,572.3z"/>
		<path class="st2" d="M71.3,574.7h-2.4c-0.3,0-0.5-0.1-0.6-0.2s-0.3-0.3-0.3-0.5l-0.9-4.4h-7.7l-2,4.4c-0.1,0.2-0.2,0.4-0.4,0.5
			c-0.2,0.1-0.4,0.2-0.7,0.2h-2.4l9.6-19.7h3.1L71.3,574.7z M66.6,567.4L65,560c0-0.3-0.1-0.6-0.2-1c-0.1-0.4-0.1-0.8-0.2-1.2
			c-0.2,0.4-0.3,0.8-0.5,1.2s-0.3,0.7-0.4,1l-3.4,7.3H66.6z"/>
		<path class="st2" d="M89.9,558.4c-0.1,0.2-0.2,0.3-0.3,0.3c-0.1,0.1-0.2,0.1-0.4,0.1c-0.2,0-0.3-0.1-0.5-0.2s-0.4-0.3-0.7-0.5
			s-0.6-0.3-1-0.5s-0.8-0.2-1.4-0.2c-0.5,0-1,0.1-1.4,0.2c-0.4,0.2-0.8,0.4-1.1,0.7s-0.5,0.6-0.6,1c-0.1,0.4-0.2,0.8-0.2,1.2
			c0,0.4,0.1,0.8,0.3,1.1c0.2,0.3,0.5,0.6,0.9,0.8c0.4,0.2,0.8,0.4,1.2,0.6c0.4,0.2,0.9,0.4,1.4,0.5c0.5,0.2,0.9,0.4,1.4,0.6
			c0.4,0.2,0.8,0.5,1.2,0.9s0.6,0.8,0.9,1.2s0.3,1.1,0.3,1.8c0,0.9-0.2,1.8-0.5,2.7c-0.3,0.8-0.8,1.6-1.4,2.2s-1.3,1.1-2.2,1.5
			c-0.9,0.4-1.8,0.6-2.9,0.6c-0.6,0-1.1-0.1-1.7-0.2s-1.1-0.3-1.5-0.5s-0.9-0.5-1.3-0.8s-0.8-0.7-1.1-1.1l1.1-1.5
			c0.1-0.1,0.2-0.2,0.3-0.3c0.1-0.1,0.3-0.1,0.4-0.1c0.2,0,0.4,0.1,0.6,0.3c0.2,0.2,0.5,0.4,0.8,0.7c0.3,0.2,0.7,0.5,1.1,0.7
			s1,0.3,1.6,0.3c0.6,0,1.1-0.1,1.5-0.3c0.5-0.2,0.8-0.4,1.2-0.7s0.6-0.7,0.7-1.1c0.2-0.5,0.3-1,0.3-1.5c0-0.5-0.1-0.9-0.3-1.2
			c-0.2-0.3-0.5-0.6-0.8-0.8c-0.4-0.2-0.8-0.4-1.2-0.6c-0.4-0.2-0.9-0.3-1.4-0.5s-0.9-0.4-1.4-0.6c-0.4-0.2-0.8-0.5-1.2-0.8
			s-0.6-0.8-0.8-1.3s-0.3-1.1-0.3-1.9c0-0.8,0.2-1.6,0.5-2.4c0.3-0.8,0.7-1.4,1.3-2s1.3-1.1,2.1-1.4c0.8-0.4,1.7-0.5,2.7-0.5
			c0.5,0,1,0.1,1.5,0.2c0.5,0.1,0.9,0.3,1.3,0.5s0.8,0.4,1.1,0.7s0.6,0.6,0.9,0.9L89.9,558.4z"/>
		<path class="st2" d="M114.8,555l-2.4,19.7h-3.1l1.1-8.8h-8.9l-1.1,8.8h-3.1l2.4-19.7h3.1l-1.1,8.7h8.9l1.1-8.7H114.8z"/>
	</g>
	<g class="st1">
		<path class="st2" d="M10.9,618.3c0.3,0,0.5,0.1,0.7,0.3l1.8,2c-1.4,1.6-3.1,2.9-5.1,3.8c-2,0.9-4.4,1.4-7.2,1.4
			c-2.4,0-4.6-0.4-6.6-1.3c-2-0.8-3.7-2-5.1-3.6c-1.4-1.5-2.5-3.4-3.3-5.5c-0.8-2.1-1.2-4.5-1.2-7s0.4-4.9,1.2-7
			c0.8-2.1,1.9-4,3.4-5.5c1.5-1.5,3.2-2.7,5.2-3.6c2-0.8,4.3-1.3,6.8-1.3c2.4,0,4.6,0.4,6.4,1.2c1.8,0.8,3.5,1.8,4.9,3.2l-1.5,2.1
			c-0.1,0.2-0.2,0.3-0.4,0.4c-0.2,0.1-0.4,0.2-0.6,0.2c-0.3,0-0.6-0.2-1-0.5c-0.4-0.3-0.9-0.7-1.6-1s-1.5-0.7-2.5-1
			c-1-0.3-2.2-0.5-3.7-0.5c-1.8,0-3.4,0.3-4.8,0.9c-1.5,0.6-2.7,1.5-3.8,2.6s-1.9,2.6-2.5,4.2c-0.6,1.7-0.9,3.5-0.9,5.6
			c0,2.1,0.3,4,0.9,5.7c0.6,1.7,1.4,3.1,2.5,4.2c1.1,1.1,2.3,2,3.7,2.6c1.4,0.6,3,0.9,4.6,0.9c1,0,1.9-0.1,2.7-0.2
			c0.8-0.1,1.6-0.3,2.3-0.6c0.7-0.3,1.3-0.6,1.9-1c0.6-0.4,1.2-0.8,1.8-1.4C10.3,618.4,10.6,618.3,10.9,618.3z"/>
		<path class="st2" d="M51.4,608.4c0,2.5-0.4,4.9-1.2,7s-1.9,4-3.4,5.5c-1.5,1.5-3.2,2.7-5.3,3.6c-2.1,0.8-4.3,1.3-6.8,1.3
			c-2.5,0-4.8-0.4-6.8-1.3c-2.1-0.8-3.8-2-5.3-3.6c-1.5-1.5-2.6-3.4-3.4-5.5s-1.2-4.5-1.2-7s0.4-4.9,1.2-7s1.9-4,3.4-5.5
			c1.5-1.5,3.2-2.7,5.3-3.6c2.1-0.9,4.3-1.3,6.8-1.3c2.5,0,4.8,0.4,6.8,1.3c2.1,0.9,3.8,2.1,5.3,3.6c1.5,1.5,2.6,3.4,3.4,5.5
			S51.4,605.8,51.4,608.4z M46.7,608.4c0-2.1-0.3-4-0.9-5.6c-0.6-1.7-1.4-3.1-2.4-4.2s-2.3-2-3.8-2.6c-1.5-0.6-3.1-0.9-5-0.9
			c-1.8,0-3.5,0.3-5,0.9c-1.5,0.6-2.8,1.5-3.8,2.6c-1.1,1.1-1.9,2.5-2.4,4.2c-0.6,1.7-0.9,3.5-0.9,5.6c0,2.1,0.3,4,0.9,5.6
			s1.4,3,2.4,4.2c1.1,1.1,2.3,2,3.8,2.6c1.5,0.6,3.1,0.9,5,0.9c1.8,0,3.5-0.3,5-0.9c1.5-0.6,2.7-1.5,3.8-2.6s1.8-2.5,2.4-4.2
			S46.7,610.5,46.7,608.4z"/>
		<path class="st2" d="M87.5,591.4v34h-2.3c-0.4,0-0.7-0.1-0.9-0.2c-0.2-0.1-0.5-0.3-0.7-0.6l-19.6-25.6c0,0.4,0.1,0.8,0.1,1.2
			s0,0.7,0,1.1v24.2h-4v-34h2.4c0.2,0,0.4,0,0.5,0c0.1,0,0.3,0.1,0.4,0.1c0.1,0.1,0.2,0.1,0.3,0.2s0.2,0.2,0.4,0.4l19.6,25.6
			c0-0.4-0.1-0.8-0.1-1.2c0-0.4,0-0.8,0-1.1v-24.1H87.5z"/>
		<path class="st2" d="M125.7,591.4v34h-2.3c-0.4,0-0.7-0.1-0.9-0.2c-0.2-0.1-0.5-0.3-0.7-0.6l-19.6-25.6c0,0.4,0.1,0.8,0.1,1.2
			s0,0.7,0,1.1v24.2h-4v-34h2.4c0.2,0,0.4,0,0.5,0c0.1,0,0.3,0.1,0.4,0.1c0.1,0.1,0.2,0.1,0.3,0.2s0.2,0.2,0.4,0.4l19.6,25.6
			c0-0.4-0.1-0.8-0.1-1.2c0-0.4,0-0.8,0-1.1v-24.1H125.7z"/>
		<path class="st2" d="M157.3,621.6l0,3.7h-20.9v-34h20.9v3.7h-16.3v11.3h13.2v3.6h-13.2v11.6H157.3z"/>
		<path class="st2" d="M188.8,618.3c0.3,0,0.5,0.1,0.7,0.3l1.8,2c-1.4,1.6-3.1,2.9-5.1,3.8c-2,0.9-4.4,1.4-7.2,1.4
			c-2.4,0-4.6-0.4-6.6-1.3c-2-0.8-3.7-2-5.1-3.6c-1.4-1.5-2.5-3.4-3.3-5.5s-1.2-4.5-1.2-7s0.4-4.9,1.2-7c0.8-2.1,1.9-4,3.4-5.5
			s3.2-2.7,5.3-3.6c2-0.8,4.3-1.3,6.8-1.3c2.4,0,4.5,0.4,6.4,1.2c1.8,0.8,3.5,1.8,4.9,3.2l-1.5,2.1c-0.1,0.2-0.2,0.3-0.4,0.4
			c-0.2,0.1-0.4,0.2-0.6,0.2c-0.3,0-0.6-0.2-1-0.5c-0.4-0.3-0.9-0.7-1.6-1c-0.7-0.4-1.5-0.7-2.5-1c-1-0.3-2.2-0.5-3.7-0.5
			c-1.8,0-3.4,0.3-4.8,0.9c-1.5,0.6-2.7,1.5-3.8,2.6s-1.9,2.6-2.5,4.2c-0.6,1.7-0.9,3.5-0.9,5.6c0,2.1,0.3,4,0.9,5.7
			c0.6,1.7,1.4,3.1,2.5,4.2c1.1,1.1,2.3,2,3.7,2.6s3,0.9,4.6,0.9c1,0,1.9-0.1,2.7-0.2c0.8-0.1,1.6-0.3,2.3-0.6
			c0.7-0.3,1.3-0.6,1.9-1c0.6-0.4,1.2-0.8,1.8-1.4C188.3,618.4,188.5,618.3,188.8,618.3z"/>
		<path class="st2" d="M221.6,595.2h-11v30.1H206v-30.1h-11v-3.9h26.6V595.2z"/>
	</g>
	<path class="st3" d="M-60.6,492c0,0,9.7,12.6,31.5,26.7c22,14.1,43.6,19.7,43.6,19.7l-16.1,31.2c0,0-14.2-4-23.4-9.3
		c-16.2,30.6-33.5,64.3-33.5,64.3s-21.9-11.4-34.3-21.5c21.4-41.2,33.3-63.7,33.3-63.7s-11-8-17.5-16.3
		C-70.3,510.6-60.6,492-60.6,492z"/>
	<path class="st4" d="M-87.2,601.3l30.9-59.5c0,0,9.1,7.5,20.9,13.5c-12.8,24.6-31.1,59.4-31.1,59.4S-79.6,607.6-87.2,601.3z"/>
	<path class="st4" d="M-54.1,537.9l12.4-23.6c0,0,8,6.4,20.6,13.5c-6.7,12-12.3,23.4-12.3,23.4S-42.7,547.2-54.1,537.9z"/>
</g>
</svg>
