<?xml version="1.0" encoding="utf-8"?>
<!-- Generator: Adobe Illustrator 19.1.1, SVG Export Plug-In . SVG Version: 6.00 Build 0)  -->
<svg version="1.1" id="Layer_1" xmlns="http://www.w3.org/2000/svg" xmlns:xlink="http://www.w3.org/1999/xlink" x="0px" y="0px"
	 viewBox="0 0 119 133.7" style="enable-background:new 0 0 119 133.7;" xml:space="preserve" preserveAspectRatio="xminymid">
<style type="text/css">
	.st0{fill-rule:evenodd;clip-rule:evenodd;fill:#898989;}
	.st1{fill-rule:evenodd;clip-rule:evenodd;fill:#848484;}
	.st2{fill-rule:evenodd;clip-rule:evenodd;fill:#BCBCBC;}
	.st3{opacity:0.4;}
	.st4{fill:#FFFFFF;}
	.st5{fill:#E04148;}
	.st6{fill:#A5A5A5;}
	.st7{fill:none;}
	.st8{fill:#D62727;}
	.st9{fill:none;stroke:#D62727;stroke-miterlimit:10;}
	.st10{fill:#CE0000;}
	.st11{fill:none;stroke:#9B9B9B;stroke-miterlimit:10;}
	.st12{fill:none;stroke:#9B9B9B;stroke-linecap:round;stroke-miterlimit:10;}
	.st13{fill:#999999;}
	.st14{fill:none;stroke:#999999;stroke-width:2;stroke-miterlimit:10;}
	.st15{fill:none;stroke:#000000;stroke-miterlimit:10;}
	.st16{opacity:0.4;fill-rule:evenodd;clip-rule:evenodd;}
	.st17{fill-rule:evenodd;clip-rule:evenodd;stroke:#FFFFFF;stroke-width:3;stroke-miterlimit:10;}
	.st18{fill-rule:evenodd;clip-rule:evenodd;fill:#ED342E;}
	.st19{opacity:0.2;fill-rule:evenodd;clip-rule:evenodd;}
	.st20{filter:url(#Adobe_OpacityMaskFilter);}
	.st21{mask:url(#SVGID_1_);}
	.st22{fill:none;stroke:#000000;stroke-width:2.7824;stroke-miterlimit:10;}
	.st23{fill:#A6D53E;}
	.st24{fill:#D9D9D9;}
	.st25{fill:#526A1E;}
	.st26{fill:#848484;stroke:#CFCFCF;stroke-miterlimit:10;}
	.st27{fill:#D47023;}
	.st28{fill:#E38842;}
	.st29{fill:#B2B2B2;}
	.st30{fill:#DF4148;}
	.st31{fill:#B22936;}
	.st32{filter:url(#Adobe_OpacityMaskFilter_1_);}
	.st33{mask:url(#SVGID_2_);fill:#B22936;}
	.st34{opacity:0.9;fill:#B22936;}
	.st35{filter:url(#Adobe_OpacityMaskFilter_2_);}
	.st36{mask:url(#SVGID_3_);fill:#2C7AB6;}
	.st37{filter:url(#Adobe_OpacityMaskFilter_3_);}
	.st38{mask:url(#SVGID_4_);fill:#2C7AB6;}
	.st39{filter:url(#Adobe_OpacityMaskFilter_4_);}
	
		.st40{mask:url(#SVGID_5_);fill:none;stroke:#2C7AB6;stroke-width:2.0881;stroke-linecap:round;stroke-linejoin:round;stroke-miterlimit:10;}
	.st41{filter:url(#Adobe_OpacityMaskFilter_5_);}
	
		.st42{mask:url(#SVGID_6_);fill:none;stroke:#2C7AB6;stroke-width:2.0881;stroke-linecap:round;stroke-linejoin:round;stroke-miterlimit:10;}
	.st43{fill:#2C7AB6;stroke:#2C7AB6;stroke-linecap:round;stroke-linejoin:round;stroke-miterlimit:10;}
	.st44{filter:url(#Adobe_OpacityMaskFilter_6_);}
	.st45{mask:url(#SVGID_7_);fill:#2C7AB6;}
	.st46{fill:#D89C4C;}
	.st47{fill:#303D74;}
	.st48{fill:#6CA198;}
	.st49{fill:#A52D36;}
	.st50{fill:#686868;}
	.st51{fill:#E85D5D;}
	.st52{fill-rule:evenodd;clip-rule:evenodd;fill:#DD3C3C;}
	.st53{fill-rule:evenodd;clip-rule:evenodd;fill:#E5E5E5;}
	.st54{fill-rule:evenodd;clip-rule:evenodd;fill:#FF7373;}
	.st55{fill:none;stroke:#D6D6D6;stroke-width:1.1111;stroke-miterlimit:10;}
	.st56{opacity:0.5;fill-rule:evenodd;clip-rule:evenodd;}
	.st57{fill-rule:evenodd;clip-rule:evenodd;fill:#EF9A9A;}
	.st58{fill-rule:evenodd;clip-rule:evenodd;fill:#A00E0E;}
	.st59{fill:#858585;}
	.st60{fill:#BF2121;}
	.st61{fill:#1936B2;}
	.st62{fill:#D63232;}
	.st63{opacity:0.28;fill:#FF0000;}
	.st64{opacity:0.28;fill:#00FF12;}
	.st65{fill:#FF0000;}
	.st66{fill:#8D930F;}
</style>
<path class="st4" d="M97.9,64c6.2-1.3,6.9-1.9,6.8-3.4c-0.1-1.5-1.1-3.2-4.2-2.8c-2,0.3-10,1.6-18.6,2.6L60.7,80h-2l-18-6v-7
	l13.4-11.5c-1.3-5.9,1.5-8.1,1.5-8.1s0,0,1.2-0.9c1.2-0.9,3-5.6,0.4-10c-2.6-4.5-6.1-3.6-5.9-1.8c0.2,1.9-0.3,5.8-0.8,7.2
	c-0.5,1.4-3.9,4-3.6,6.2s-3.5,8-6.4,10.4s-1.9,3.9-2.6,6.2C37.1,67,21,74.6,21,74.6s0,0-2.6,1.3c-2.6,1.3-1.4,6.6-1.4,6.6
	C19.9,90.6,31,98.5,33.8,98c2.8-0.5,8.7-10.9,15.3-11.9s23.6,0.3,30.1,0.2c6.5-0.1,13-1.9,13.9-2.8s-0.3-2.4-2.2-2.9
	c-1.9-0.5-10,0.5-13,0.8c-3,0.3-1.6-2.2-0.2-3c1.5-0.8,7.7-1.8,15.8-3c8.2-1.1,9.5-2.1,9.8-3.6c0.3-1.5-0.7-3.3-3.2-2.8
	c-2.5,0.5-16,3.1-20.8,3.3c-4.9,0.2-3-0.3-2.1-1.9C78.1,68.7,91.7,65.3,97.9,64z"/>
<g>
	<polygon class="st4" points="41.7,68 41.7,69 58.7,75 58.7,74 	"/>
	<polygon class="st4" points="41.7,70 41.7,71 58.7,77 58.7,76 	"/>
	<polygon class="st4" points="41.7,72 41.7,73 58.7,79 58.7,78 	"/>
	<polygon class="st4" points="59.7,74 59.7,75 92.7,45 92.7,44 	"/>
	<polygon class="st4" points="59.7,76 59.7,77 92.7,47 92.7,46 	"/>
	<polygon class="st4" points="59.7,78 59.7,79 92.7,49 92.7,48 	"/>
	<path class="st4" d="M76.7,37l-35,30l18,6l33-30L76.7,37z M73.9,55.6c-0.5,1.9-3.6,2.6-6.8,1.7c-3.2-0.9-5.5-3.1-4.9-5
		s3.6-2.6,6.8-1.7C72.2,51.5,74.4,53.7,73.9,55.6z"/>
</g>
</svg>
