<?xml version="1.0" encoding="utf-8"?>
<!-- Generator: Adobe Illustrator 19.1.1, SVG Export Plug-In . SVG Version: 6.00 Build 0)  -->
<svg version="1.1" id="Layer_1" xmlns="http://www.w3.org/2000/svg" xmlns:xlink="http://www.w3.org/1999/xlink" x="0px" y="0px"
	 viewBox="0 0 640 166.4" style="enable-background:new 0 0 640 166.4;" xml:space="preserve">
<style type="text/css">
	.st0{fill-rule:evenodd;clip-rule:evenodd;fill:#231F20;}
	.st1{fill:#231F20;}
	.st2{fill-rule:evenodd;clip-rule:evenodd;fill:#ED342E;}
</style>
<path class="st0" d="M51.7,0c0,0,9.7,12.6,31.5,26.7c22,14.1,43.6,19.7,43.6,19.7l-16.1,31.2c0,0-14.2-4-23.4-9.3
	c-16.2,30.6-33.5,64.3-33.5,64.3s-21.9-11.4-34.3-21.5C41,70,52.8,47.5,52.8,47.5s-11-8-17.5-16.3C42,18.6,51.7,0,51.7,0z"/>
<g>
	<path class="st1" d="M115.1,126.3l7.2-34.4h7.1l-7.2,34.4H115.1z"/>
	<path class="st1" d="M133.9,101.4h6.4l-0.9,3.6c1.6-1.4,3.7-3.2,5.1-3.8c1.4-0.6,2.6-0.9,4.1-0.9c2.1,0,3.7,0.6,4.9,1.8
		c1.2,1.2,1.8,3.3,1.8,5.3c0,0.9-0.3,2.5-0.8,5l-3,14.1h-6.7l3-14.1c0.4-2.1,0.7-3.4,0.7-3.8c0-0.9-0.3-1.6-0.8-2.1
		c-0.5-0.5-1.2-0.7-2.2-0.7c-1,0-2.1,0.4-3.4,1.2c-1.2,0.8-2.2,1.9-2.9,3.3c-0.5,1-1.1,2.9-1.7,5.9l-2.1,10.2h-6.7L133.9,101.4z"/>
	<path class="st1" d="M163.2,101.4h6.4l-0.9,3.6c1.6-1.4,3.7-3.2,5.1-3.8c1.4-0.6,2.6-0.9,4.1-0.9c2.1,0,3.7,0.6,4.9,1.8
		c1.2,1.2,1.8,3.3,1.8,5.3c0,0.9-0.3,2.5-0.8,5l-3,14.1H174l3-14.1c0.4-2.1,0.7-3.4,0.7-3.8c0-0.9-0.3-1.6-0.8-2.1
		c-0.5-0.5-1.2-0.7-2.2-0.7c-1,0-2.1,0.4-3.4,1.2c-1.2,0.8-2.2,1.9-2.9,3.3c-0.5,1-1.1,2.9-1.7,5.9l-2.1,10.2H158L163.2,101.4z"/>
	<path class="st1" d="M188.2,116c0-4.6,1.3-8.3,3.9-11.1c2.6-2.7,6-4.1,10.2-4.1c3.7,0,6.5,1,8.6,3c2.1,2,3.1,4.8,3.1,8.2
		c0,4-1.3,7.5-3.9,10.5c-2.6,2.9-6,4.4-10.3,4.4c-2.3,0-4.4-0.5-6.2-1.4c-1.8-0.9-3.2-2.3-4-4C188.7,119.8,188.2,118,188.2,116z
		 M207.3,111.2c0-1.6-0.5-3.2-1.4-4.1c-0.9-1-2.1-1.4-3.6-1.4c-1.5,0-2.7,0.5-3.9,1.4c-1.1,0.9-2,2.5-2.6,4.2
		c-0.6,1.7-0.9,3.3-0.9,4.7c0,1.8,0.5,3.5,1.5,4.5c1,1.1,2.2,1.6,3.7,1.6c1.8,0,3.4-0.8,4.6-2.4
		C206.4,117.4,207.3,114.4,207.3,111.2z"/>
	<path class="st1" d="M228,126.3h-5.8l-5-24.9h6.6l1.7,10.9c0.5,2.9,0.8,4.9,0.9,5.8c0.1-0.2,0.7-1.2,1.7-3c1-1.8,1.5-2.8,1.8-3.2
		l6.2-10.6h7.3L228,126.3z"/>
	<path class="st1" d="M251.7,108.5l-6.6-0.6c0.7-2.2,2-3.9,3.9-5.2c1.9-1.2,4.3-1.9,7.4-1.9c3.2,0,5.5,0.6,7.1,1.9
		c1.5,1.3,2.3,2.9,2.3,4.7c0,0.8-0.1,1.5-0.2,2.4c-0.1,0.8-0.6,3.1-1.4,6.7c-0.7,3-1,5.1-1,6.2c0,1.1,0.2,2.2,0.5,3.5h-6.5
		c-0.3-0.9-0.5-1.8-0.6-2.8c-1,1.1-2.1,1.9-3.4,2.5c-1.3,0.6-2.5,0.9-3.8,0.9c-2,0-3.7-0.7-5.1-2c-1.3-1.4-2-3.1-2-5.2
		c0-2.4,0.8-4.3,2.2-5.8c1.5-1.4,4.1-2.8,7.8-3.1c3.2-0.3,5.3-0.3,6.4-0.4c0.2-0.8,0.4-1.7,0.4-2.3c0-0.7-0.3-1.3-0.9-1.8
		c-0.6-0.5-1.4-0.7-2.5-0.7c-1.2,0-2.1,0.2-2.8,0.7C252.4,106.9,251.9,107.6,251.7,108.5z M258,114.3c-0.6,0.1-1,0-1.6,0.1
		c-3.3,0.4-5.2,0.9-6.3,1.7c-0.7,0.6-1.3,1.7-1.3,3c0,0.8,0.3,1.5,0.8,2c0.6,0.5,1.3,0.8,2.2,0.8c1,0,1.9-0.2,2.8-0.7
		c0.9-0.5,1.5-1.1,2-1.9c0.4-0.8,0.8-2,1.2-3.6L258,114.3z"/>
	<path class="st1" d="M270.2,106.5l1.1-5.1h3.3l0.8-3.9l7.7-4.6l-1.8,8.6h4.1l-1.1,5.1h-4.1l-2.2,10.4c-0.4,1.9-0.6,3-0.6,3.2
		c0,0.5,0.2,0.9,0.5,1.2c0.3,0.3,0.9,0.4,1.8,0.4c0.3,0,1-0.1,2.2-0.2l-1.1,5c-1.2,0.2-2.3,0.4-3.6,0.4c-2.4,0-4.1-0.5-5.2-1.4
		c-1.1-0.9-1.6-2.2-1.6-3.8c0-0.8,0.3-2.5,0.9-5.3l2.2-10H270.2z"/>
	<path class="st1" d="M290.3,101.4h6.7l-5.2,24.9H285L290.3,101.4z M292.2,92h6.7l-1.3,6.1H291L292.2,92z"/>
	<path class="st1" d="M311.1,126.3h-5.8l-5-24.9h6.6l1.7,10.9c0.5,2.9,0.8,4.9,0.9,5.8c0.1-0.2,0.7-1.2,1.7-3c1-1.8,1.5-2.8,1.8-3.2
		l6.2-10.6h7.3L311.1,126.3z"/>
	<path class="st1" d="M348.9,116h-16.8c0,0.3,0,0.5,0,0.6c0,1.7,0.5,3,1.4,4c0.9,1,2.1,1.5,3.5,1.5c2.2,0,4-1.2,5.2-3.5l6,1
		c-1.2,2.4-2.7,4.3-4.7,5.5c-2,1.2-4.2,1.8-6.6,1.8c-3.3,0-6.1-1.1-8.1-3.2c-2.1-2.1-3.1-4.9-3.1-8.4c0-3.4,0.9-6.5,2.8-9.1
		c2.6-3.6,6.3-5.4,11-5.4c3,0,5.5,0.9,7.3,2.8c1.8,1.9,2.7,4.5,2.7,7.9C349.4,113.2,349.2,114.7,348.9,116z M343.3,111.8
		c0-0.3,0-0.5,0-0.7c0-1.8-0.4-3.2-1.2-4.1c-0.8-0.9-1.9-1.4-3.3-1.4s-2.6,0.5-3.7,1.6c-1.1,1-1.8,2.6-2.2,4.6H343.3z"/>
	<path class="st1" d="M379.6,126.3h-7.1l6-28.6h-10.1l1.1-5.8h27l-1.1,5.8h-9.8L379.6,126.3z"/>
	<path class="st1" d="M417.2,116h-16.8c0,0.3,0,0.5,0,0.6c0,1.7,0.5,3,1.4,4c0.9,1,2.1,1.5,3.5,1.5c2.2,0,4-1.2,5.2-3.5l6,1
		c-1.2,2.4-2.7,4.3-4.7,5.5c-2,1.2-4.2,1.8-6.6,1.8c-3.3,0-6.1-1.1-8.1-3.2c-2.1-2.1-3.1-4.9-3.1-8.4c0-3.4,0.9-6.5,2.8-9.1
		c2.6-3.6,6.3-5.4,11-5.4c3,0,5.5,0.9,7.3,2.8c1.8,1.9,2.7,4.5,2.7,7.9C417.6,113.2,417.5,114.7,417.2,116z M411.5,111.8
		c0-0.3,0-0.5,0-0.7c0-1.8-0.4-3.2-1.2-4.1c-0.8-0.9-1.9-1.4-3.3-1.4s-2.6,0.5-3.7,1.6c-1.1,1-1.8,2.6-2.2,4.6H411.5z"/>
	<path class="st1" d="M437.4,117l6.6,1.1c-1.1,2.9-2.7,5.1-4.8,6.6c-2.1,1.5-4.6,2.3-7.3,2.3c-3.2,0-5.7-0.9-7.5-2.8
		c-1.9-1.9-2.8-4.5-2.8-7.8c0-2.7,0.6-5.3,1.7-7.7c1.1-2.4,2.8-4.3,5.1-5.7c2.3-1.4,4.7-2.1,7.4-2.1c2.9,0,5.3,0.8,7,2.3
		c1.7,1.5,2.7,3.6,3,6.1l-6.3,0.7c-0.2-1.4-0.6-2.5-1.3-3.1c-0.7-0.7-1.6-1-2.7-1c-1.3,0-2.5,0.5-3.7,1.5c-1.1,1-2,2.4-2.6,4.4
		c-0.6,1.9-0.9,3.8-0.9,5.4c0,1.5,0.4,2.6,1.1,3.4c0.7,0.8,1.6,1.2,2.7,1.2c1.1,0,2.1-0.4,3.1-1.2C436,119.8,436.8,118.6,437.4,117z
		"/>
	<path class="st1" d="M454,126.3h-6.7l7.2-34.4h6.7l-2.6,12.2c1.5-1.2,3.3-2.6,4.6-3.1c1.3-0.5,2.5-0.8,4-0.8c2,0,3.7,0.6,4.8,1.8
		c1.2,1.2,1.8,3.3,1.8,5.2c0,1-0.3,2.5-0.7,4.6l-3.1,14.5h-6.7l3.2-14.8c0.4-1.6,0.6-2.6,0.6-3.1c0-0.8-0.3-1.5-0.8-2
		c-0.5-0.5-1.2-0.8-2.2-0.8c-1.1,0-2.3,0.4-3.3,1.2c-1.4,1-2.4,2.3-3.1,3.8c-0.4,0.8-0.9,2.8-1.5,5.8L454,126.3z"/>
	<path class="st1" d="M481.7,101.4h6.4l-0.9,3.6c1.6-1.4,3.7-3.2,5.1-3.8c1.4-0.6,2.6-0.9,4.1-0.9c2.1,0,3.7,0.6,4.9,1.8
		c1.2,1.2,1.8,3.3,1.8,5.3c0,0.9-0.3,2.5-0.8,5l-3,14.1h-6.7l3-14.1c0.4-2.1,0.7-3.4,0.7-3.8c0-0.9-0.3-1.6-0.8-2.1
		c-0.5-0.5-1.2-0.7-2.2-0.7c-1,0-2.1,0.4-3.4,1.2c-1.2,0.8-2.2,1.9-2.9,3.3c-0.5,1-1.1,2.9-1.7,5.9l-2.1,10.2h-6.7L481.7,101.4z"/>
	<path class="st1" d="M506.7,116c0-4.6,1.3-8.3,3.9-11.1c2.6-2.7,6-4.1,10.2-4.1c3.7,0,6.5,1,8.6,3c2.1,2,3.1,4.8,3.1,8.2
		c0,4-1.3,7.5-3.9,10.5c-2.6,2.9-6,4.4-10.3,4.4c-2.3,0-4.4-0.5-6.2-1.4c-1.8-0.9-3.2-2.3-4-4C507.2,119.8,506.7,118,506.7,116z
		 M525.9,111.2c0-1.6-0.5-3.2-1.4-4.1c-0.9-1-2.1-1.4-3.6-1.4c-1.5,0-2.7,0.5-3.9,1.4c-1.1,0.9-2,2.5-2.6,4.2
		c-0.6,1.7-0.9,3.3-0.9,4.7c0,1.8,0.5,3.5,1.5,4.5c1,1.1,2.2,1.6,3.7,1.6c1.8,0,3.4-0.8,4.6-2.4C525,117.4,525.9,114.4,525.9,111.2z
		"/>
	<path class="st1" d="M534.9,126.3l7.2-34.4h6.7l-7.2,34.4H534.9z"/>
	<path class="st1" d="M549.3,116c0-4.6,1.3-8.3,3.9-11.1c2.6-2.7,6-4.1,10.2-4.1c3.7,0,6.5,1,8.6,3c2.1,2,3.1,4.8,3.1,8.2
		c0,4-1.3,7.5-3.9,10.5c-2.6,2.9-6,4.4-10.3,4.4c-2.3,0-4.4-0.5-6.2-1.4c-1.8-0.9-3.2-2.3-4-4C549.7,119.8,549.3,118,549.3,116z
		 M568.4,111.2c0-1.6-0.5-3.2-1.4-4.1c-0.9-1-2.1-1.4-3.6-1.4c-1.5,0-2.7,0.5-3.9,1.4c-1.1,0.9-2,2.5-2.6,4.2
		c-0.6,1.7-0.9,3.3-0.9,4.7c0,1.8,0.5,3.5,1.5,4.5c1,1.1,2.2,1.6,3.7,1.6c1.8,0,3.4-0.8,4.6-2.4
		C567.5,117.4,568.4,114.4,568.4,111.2z"/>
	<path class="st1" d="M576.3,127.7l7.1,1c0,0.7,0.1,1.3,0.3,1.6c0.2,0.4,0.6,0.7,1.1,0.9c0.5,0.3,1.8,0.4,2.7,0.4
		c1.5,0,3-0.3,3.9-0.8c0.7-0.4,1.2-1.1,1.7-2.1c0.3-0.6,0.6-1.9,1-4l0.2-1.2c-2.4,2-5,2.9-7.6,2.9c-2.4,0-4.4-0.9-6-2.6
		c-1.6-1.7-2.3-4.2-2.3-7.6c0-2.9,0.5-5.6,1.6-8.1c1.1-2.4,2.6-4.3,4.5-5.5c1.9-1.3,3.9-1.9,5.9-1.9c1.6,0,3.2,0.4,4.5,1.3
		c1.4,0.9,2.4,2.1,3.2,3.7l0.9-4.4h6.3l-4,20.8c-0.7,3.3-1.3,5.7-1.8,7.1c-0.5,1.4-1.1,2.6-1.7,3.4c-0.6,0.8-1.4,1.6-2.4,2.1
		c-1,0.6-2.1,1-3.4,1.2s-3,0.4-4.6,0.4c-3.5,0-6.7-0.6-8.5-1.8c-1.8-1.2-2.7-3.2-2.7-6C576.3,128.3,576.3,128,576.3,127.7z
		 M585.1,115.6c0,1.9,0.4,3.3,1.3,4.3c0.9,1,1.9,1.5,3.2,1.5c1.2,0,2.3-0.4,3.5-1.3c1.1-0.9,2-2.2,2.6-3.8c0.6-1.6,0.9-3.2,0.9-4.8
		c0-1.8-0.5-3.2-1.5-4.3c-1-1.1-2.1-1.6-3.4-1.6c-1.2,0-2.3,0.5-3.3,1.4c-1,1-1.8,2.4-2.5,4.4C585.4,113,585.1,114.4,585.1,115.6z"
		/>
	<path class="st1" d="M609,101.4h6.7l1.7,12.4c0.4,3.2,0.6,5.4,0.7,6.7c0.9-2.5,2.1-5.2,3.6-8l6-11.1h7.1l-15.3,27.4
		c-1.3,2.3-2.3,3.9-3,4.8c-0.7,0.9-1.6,1.6-2.6,2.1c-1,0.5-2.3,0.8-3.7,0.8c-1.4,0-3-0.3-4.8-0.8l0.6-5c0.8,0.2,1.6,0.4,2.4,0.4
		c2.1,0,3.7-1.6,5.1-4.7L609,101.4z"/>
</g>
<g>
	<path class="st1" d="M156.6,158.5h1.4v-12.9h-1.4v-0.9h4.3v0.9h-1.4v12.9h1.4v0.9h-4.3V158.5z"/>
	<path class="st1" d="M169,144.7h2.6l5.1,13.1h0.4v-13.1h1.4v14.6h-2.6l-5.1-13.1h-0.4v13.1H169V144.7z"/>
	<path class="st1" d="M189.6,146h-4.4v-1.3h10.2v1.3H191v13.3h-1.4V146z"/>
	<path class="st1" d="M202.6,144.7h8.6v1.3H204v5h6.2v1.3H204v5.7h7.4v1.3h-8.8V144.7z"/>
	<path class="st1" d="M219.7,144.7h1.4V158h7.1v1.3h-8.5V144.7z"/>
	<path class="st1" d="M235.4,144.7h1.4V158h7.1v1.3h-8.5V144.7z"/>
	<path class="st1" d="M250.1,158.5h1.4v-12.9h-1.4v-0.9h4.3v0.9H253v12.9h1.4v0.9h-4.3V158.5z"/>
	<path class="st1" d="M270.3,157.5h-0.2c-0.8,1.5-1.9,2.2-3.5,2.2c-3.3,0-5-2.6-5-7.7c0-5.1,1.7-7.7,4.9-7.7c2.2,0,3.7,1.3,4.1,3.7
		l-1.2,0.5c-0.4-2-1.3-2.9-2.9-2.9c-2.4,0-3.5,2.1-3.5,6.4c0,4.4,1.1,6.4,3.7,6.4c2,0,3.1-1.5,3.2-4.6h-3.6v-1.3h4.7v7.2h-0.5
		L270.3,157.5z"/>
	<path class="st1" d="M280.2,144.7h8.6v1.3h-7.2v5h6.2v1.3h-6.2v5.7h7.4v1.3h-8.8V144.7z"/>
	<path class="st1" d="M297.1,144.7h2.6l5.1,13.1h0.4v-13.1h1.4v14.6H304l-5.1-13.1h-0.4v13.1h-1.4V144.7z"/>
	<path class="st1" d="M319.6,159.7c-3.1,0-4.9-2.6-4.9-7.7c0-5.1,1.8-7.7,4.8-7.7c2.3,0,4,1.5,4.2,4l-1.2,0.6
		c-0.3-2.3-1.2-3.3-2.9-3.3c-2.3,0-3.5,2.1-3.5,6.4c0,4.3,1.2,6.4,3.4,6.4c1.8,0,3-1.3,3.2-3.5l1.2,0.4
		C323.8,158,322,159.7,319.6,159.7z"/>
	<path class="st1" d="M332.1,144.7h8.6v1.3h-7.2v5h6.2v1.3h-6.2v5.7h7.4v1.3h-8.8V144.7z"/>
	<path class="st1" d="M357.4,158.5h1.4v-12.9h-1.4v-0.9h4.3v0.9h-1.4v12.9h1.4v0.9h-4.3V158.5z"/>
	<path class="st1" d="M369.8,144.7h2.6l5.1,13.1h0.4v-13.1h1.4v14.6h-2.6l-5.1-13.1h-0.4v13.1h-1.4V144.7z"/>
	<path class="st1" d="M395.9,144.7h1.5l4.2,12.8h0.2l4.2-12.8h1.5l-5,14.6h-1.6L395.9,144.7z"/>
	<path class="st1" d="M417.3,144.7h1.6l5.5,14.6H423l-1.3-3.5h-7.1l-1.3,3.5h-1.5L417.3,144.7z M421.2,154.5l-2.9-7.9H418l-2.9,7.9
		H421.2z"/>
	<path class="st1" d="M431.5,144.7h1.4V158h7.1v1.3h-8.5V144.7z"/>
	<path class="st1" d="M446.2,158.5h1.4v-12.9h-1.4v-0.9h4.3v0.9h-1.4v12.9h1.4v0.9h-4.3V158.5z"/>
	<path class="st1" d="M457.9,144.7h3.5c3.9,0,6,2.5,6,7.3c0,4.8-2.1,7.3-6,7.3h-3.5V144.7z M461.3,158c3.2,0,4.7-1.9,4.7-6
		c0-4.1-1.4-6-4.7-6h-2v12H461.3z"/>
	<path class="st1" d="M478.8,144.7h1.6l5.5,14.6h-1.4l-1.3-3.5h-7.1l-1.3,3.5h-1.5L478.8,144.7z M482.7,154.5l-2.9-7.9h-0.3
		l-2.9,7.9H482.7z"/>
	<path class="st1" d="M493.4,146H489v-1.3h10.2v1.3h-4.4v13.3h-1.4V146z"/>
	<path class="st1" d="M505.2,158.5h1.4v-12.9h-1.4v-0.9h4.3v0.9H508v12.9h1.4v0.9h-4.3V158.5z"/>
	<path class="st1" d="M520.8,144.3c3,0,4.8,2.7,4.8,7.7c0,5.1-1.8,7.7-4.8,7.7c-3.1,0-4.8-2.7-4.8-7.9
		C516.1,146.9,517.9,144.3,520.8,144.3z M520.8,158.4c2.2,0,3.4-2.1,3.4-6.4c0-4.3-1.1-6.4-3.4-6.4s-3.3,2.2-3.3,6.4
		C517.5,156.3,518.6,158.4,520.8,158.4z"/>
	<path class="st1" d="M533.7,144.7h2.6l5.1,13.1h0.4v-13.1h1.4v14.6h-2.6l-5.1-13.1h-0.4v13.1h-1.4V144.7z"/>
</g>
<path class="st2" d="M25.1,109.3L56,49.8c0,0,9.1,7.5,20.9,13.5C64.1,88,45.8,122.7,45.8,122.7S32.7,115.6,25.1,109.3z"/>
<path class="st2" d="M58.2,45.9l12.4-23.6c0,0,8,6.4,20.6,13.5c-6.7,12.1-12.3,23.5-12.3,23.5S69.6,55.2,58.2,45.9z"/>
<g>
	<path class="st0" d="M82.4,108.4c-5.4,0-9.7,4.4-9.7,9.7c0,5.4,4.4,9.7,9.7,9.7s9.7-4.4,9.7-9.7C92.2,112.7,87.8,108.4,82.4,108.4z
		 M82.4,126.5c-4.5,0-8.4-3.8-8.4-8.4c0-4.6,3.8-8.4,8.4-8.4c4.6,0,8.4,3.8,8.4,8.4C90.8,122.7,87.1,126.5,82.4,126.5z"/>
	<g>
		<path class="st1" d="M83.5,112.1c0.4,0,0.8,0.1,1.1,0.3c0.3,0.2,0.6,0.4,0.9,0.7c0.2,0.3,0.4,0.6,0.5,1c0.1,0.4,0.2,0.8,0.2,1.3
			c0,0.7-0.1,1.3-0.3,1.8c-0.2,0.5-0.6,0.9-1.1,1.2v0c0.2,0.1,0.5,0.2,0.6,0.4c0.2,0.2,0.3,0.4,0.4,0.6c0.1,0.2,0.2,0.5,0.2,0.8
			c0,0.3,0.1,0.6,0.1,0.9c0,0.2,0,0.4,0,0.7c0,0.3,0,0.5,0,0.8c0,0.3,0.1,0.5,0.1,0.7c0,0.2,0.1,0.4,0.2,0.6h-2
			c-0.1-0.4-0.2-0.8-0.2-1.3c0-0.5-0.1-1-0.1-1.5c-0.1-0.6-0.2-1.1-0.4-1.4c-0.2-0.3-0.6-0.4-1.1-0.4h-2v4.6h-2v-11.8H83.5z
			 M82.8,117.5c0.5,0,0.8-0.1,1-0.4c0.2-0.3,0.3-0.7,0.3-1.3c0-0.6-0.1-1-0.3-1.3c-0.2-0.3-0.6-0.4-1-0.4h-2.2v3.3H82.8z"/>
	</g>
</g>
</svg>
