<?xml version="1.0" encoding="utf-8"?>
<!-- Generator: Adobe Illustrator 19.1.1, SVG Export Plug-In . SVG Version: 6.00 Build 0)  -->
<svg version="1.1" id="Layer_1" xmlns="http://www.w3.org/2000/svg" xmlns:xlink="http://www.w3.org/1999/xlink" x="0px" y="0px"
	 viewBox="-129 482.8 379.7 172.2" style="enable-background:new -129 482.8 379.7 172.2;" xml:space="preserve">
<style type="text/css">
	.st0{enable-background:new    ;}
	.st1{fill:#CF1E26;}
	.st2{fill:none;stroke:#CF1E26;stroke-width:3;stroke-miterlimit:10;}
	.st3{opacity:0.4;enable-background:new    ;}
	.st4{fill:#FFFFFF;}
	.st5{stroke:#FFFFFF;stroke-width:3;stroke-miterlimit:10;}
	.st6{fill:#ED342E;}
</style>
<g class="st0">
	<path class="st1" d="M24.9,624.3c0.3,0,0.5,0.1,0.7,0.3l1.8,2c-1.4,1.6-3.1,2.9-5.1,3.8c-2,0.9-4.4,1.4-7.2,1.4
		c-2.4,0-4.6-0.4-6.6-1.3c-2-0.8-3.7-2-5.1-3.6c-1.4-1.5-2.5-3.4-3.3-5.5s-1.2-4.5-1.2-7s0.4-4.9,1.2-7c0.8-2.1,1.9-4,3.4-5.5
		s3.2-2.7,5.2-3.6c2-0.8,4.3-1.3,6.8-1.3c2.4,0,4.6,0.4,6.4,1.2c1.8,0.8,3.5,1.8,4.9,3.2l-1.4,2c-0.1,0.2-0.2,0.3-0.4,0.4
		c-0.2,0.1-0.4,0.2-0.6,0.2c-0.3,0-0.6-0.2-1-0.5s-0.9-0.7-1.6-1s-1.5-0.7-2.5-1s-2.2-0.5-3.7-0.5c-1.8,0-3.4,0.3-4.8,0.9
		c-1.5,0.6-2.7,1.5-3.8,2.6s-1.9,2.6-2.5,4.2c-0.6,1.7-0.9,3.5-0.9,5.6s0.3,4,0.9,5.7s1.4,3.1,2.5,4.2c1.1,1.1,2.3,2,3.7,2.6
		s3,0.9,4.6,0.9c1,0,1.9-0.1,2.7-0.2c0.8-0.1,1.6-0.3,2.3-0.6s1.3-0.6,1.9-1s1.2-0.8,1.8-1.4C24.4,624.4,24.7,624.3,24.9,624.3z"/>
	<path class="st1" d="M65.5,614.3c0,2.5-0.4,4.9-1.2,7c-0.8,2.1-1.9,4-3.4,5.5s-3.2,2.7-5.3,3.6c-2.1,0.8-4.3,1.3-6.8,1.3
		s-4.8-0.4-6.8-1.3c-2.1-0.8-3.8-2-5.3-3.6c-1.5-1.5-2.6-3.4-3.4-5.5s-1.2-4.5-1.2-7s0.4-4.9,1.2-7s1.9-4,3.4-5.5s3.2-2.7,5.3-3.6
		c2.1-0.9,4.3-1.3,6.8-1.3s4.8,0.4,6.8,1.3c2.1,0.9,3.8,2.1,5.3,3.6s2.6,3.4,3.4,5.5S65.5,611.8,65.5,614.3z M60.7,614.3
		c0-2.1-0.3-4-0.9-5.6c-0.6-1.7-1.4-3.1-2.4-4.2s-2.3-2-3.8-2.6s-3.1-0.9-5-0.9c-1.8,0-3.5,0.3-5,0.9c-1.5,0.6-2.8,1.5-3.8,2.6
		c-1.1,1.1-1.9,2.5-2.4,4.2c-0.6,1.7-0.9,3.5-0.9,5.6s0.3,4,0.9,5.6s1.4,3,2.4,4.2c1.1,1.1,2.3,2,3.8,2.6s3.1,0.9,5,0.9
		c1.8,0,3.5-0.3,5-0.9c1.5-0.6,2.7-1.5,3.8-2.6s1.8-2.5,2.4-4.2S60.7,616.4,60.7,614.3z"/>
	<path class="st1" d="M93.3,627.4v3.9H74v-34h4.6v30.1H93.3z"/>
	<path class="st1" d="M119.6,627.4v3.9h-19.2v-34h4.6v30.1H119.6z"/>
	<path class="st1" d="M147.6,627.6v3.7h-20.9v-34h20.9v3.7h-16.3v11.4h13.2v3.6h-13.2v11.6L147.6,627.6L147.6,627.6z"/>
	<path class="st1" d="M179.2,624.3c0.3,0,0.5,0.1,0.7,0.3l1.8,2c-1.4,1.6-3.1,2.9-5.1,3.8c-2,0.9-4.4,1.4-7.2,1.4
		c-2.4,0-4.6-0.4-6.6-1.3c-2-0.8-3.7-2-5.1-3.6c-1.4-1.5-2.5-3.4-3.3-5.5s-1.2-4.5-1.2-7s0.4-4.9,1.2-7s1.9-4,3.4-5.5
		s3.2-2.7,5.3-3.6c2-0.8,4.3-1.3,6.8-1.3c2.4,0,4.5,0.4,6.4,1.2c1.8,0.8,3.5,1.8,4.9,3.2l-1.5,2.1c-0.1,0.2-0.2,0.3-0.4,0.4
		c-0.2,0.1-0.4,0.2-0.6,0.2c-0.3,0-0.6-0.2-1-0.5s-0.9-0.7-1.6-1c-0.7-0.4-1.5-0.7-2.5-1s-2.2-0.5-3.7-0.5c-1.8,0-3.4,0.3-4.8,0.9
		c-1.5,0.6-2.7,1.5-3.8,2.6s-1.9,2.6-2.5,4.2c-0.6,1.7-0.9,3.5-0.9,5.6s0.3,4,0.9,5.7c0.6,1.7,1.4,3.1,2.5,4.2
		c1.1,1.1,2.3,2,3.7,2.6s3,0.9,4.6,0.9c1,0,1.9-0.1,2.7-0.2c0.8-0.1,1.6-0.3,2.3-0.6s1.3-0.6,1.9-1c0.6-0.4,1.2-0.8,1.8-1.4
		C178.6,624.4,178.9,624.3,179.2,624.3z"/>
	<path class="st1" d="M211.9,601.2h-11v30.1h-4.6v-30.1h-11v-3.9h26.6V601.2z"/>
</g>
<g class="st0">
	<path class="st2" d="M24.9,624.3c0.3,0,0.5,0.1,0.7,0.3l1.8,2c-1.4,1.6-3.1,2.9-5.1,3.8c-2,0.9-4.4,1.4-7.2,1.4
		c-2.4,0-4.6-0.4-6.6-1.3c-2-0.8-3.7-2-5.1-3.6c-1.4-1.5-2.5-3.4-3.3-5.5s-1.2-4.5-1.2-7s0.4-4.9,1.2-7c0.8-2.1,1.9-4,3.4-5.5
		s3.2-2.7,5.2-3.6c2-0.8,4.3-1.3,6.8-1.3c2.4,0,4.6,0.4,6.4,1.2c1.8,0.8,3.5,1.8,4.9,3.2l-1.4,2c-0.1,0.2-0.2,0.3-0.4,0.4
		c-0.2,0.1-0.4,0.2-0.6,0.2c-0.3,0-0.6-0.2-1-0.5s-0.9-0.7-1.6-1s-1.5-0.7-2.5-1s-2.2-0.5-3.7-0.5c-1.8,0-3.4,0.3-4.8,0.9
		c-1.5,0.6-2.7,1.5-3.8,2.6s-1.9,2.6-2.5,4.2c-0.6,1.7-0.9,3.5-0.9,5.6s0.3,4,0.9,5.7s1.4,3.1,2.5,4.2c1.1,1.1,2.3,2,3.7,2.6
		s3,0.9,4.6,0.9c1,0,1.9-0.1,2.7-0.2c0.8-0.1,1.6-0.3,2.3-0.6s1.3-0.6,1.9-1s1.2-0.8,1.8-1.4C24.4,624.4,24.7,624.3,24.9,624.3z"/>
	<path class="st2" d="M65.5,614.3c0,2.5-0.4,4.9-1.2,7c-0.8,2.1-1.9,4-3.4,5.5s-3.2,2.7-5.3,3.6c-2.1,0.8-4.3,1.3-6.8,1.3
		s-4.8-0.4-6.8-1.3c-2.1-0.8-3.8-2-5.3-3.6c-1.5-1.5-2.6-3.4-3.4-5.5s-1.2-4.5-1.2-7s0.4-4.9,1.2-7s1.9-4,3.4-5.5s3.2-2.7,5.3-3.6
		c2.1-0.9,4.3-1.3,6.8-1.3s4.8,0.4,6.8,1.3c2.1,0.9,3.8,2.1,5.3,3.6s2.6,3.4,3.4,5.5S65.5,611.8,65.5,614.3z M60.7,614.3
		c0-2.1-0.3-4-0.9-5.6c-0.6-1.7-1.4-3.1-2.4-4.2s-2.3-2-3.8-2.6s-3.1-0.9-5-0.9c-1.8,0-3.5,0.3-5,0.9c-1.5,0.6-2.8,1.5-3.8,2.6
		c-1.1,1.1-1.9,2.5-2.4,4.2c-0.6,1.7-0.9,3.5-0.9,5.6s0.3,4,0.9,5.6s1.4,3,2.4,4.2c1.1,1.1,2.3,2,3.8,2.6s3.1,0.9,5,0.9
		c1.8,0,3.5-0.3,5-0.9c1.5-0.6,2.7-1.5,3.8-2.6s1.8-2.5,2.4-4.2S60.7,616.4,60.7,614.3z"/>
	<path class="st2" d="M93.3,627.4v3.9H74v-34h4.6v30.1H93.3z"/>
	<path class="st2" d="M119.6,627.4v3.9h-19.2v-34h4.6v30.1H119.6z"/>
	<path class="st2" d="M147.6,627.6v3.7h-20.9v-34h20.9v3.7h-16.3v11.4h13.2v3.6h-13.2v11.6L147.6,627.6L147.6,627.6z"/>
	<path class="st2" d="M179.2,624.3c0.3,0,0.5,0.1,0.7,0.3l1.8,2c-1.4,1.6-3.1,2.9-5.1,3.8c-2,0.9-4.4,1.4-7.2,1.4
		c-2.4,0-4.6-0.4-6.6-1.3c-2-0.8-3.7-2-5.1-3.6c-1.4-1.5-2.5-3.4-3.3-5.5s-1.2-4.5-1.2-7s0.4-4.9,1.2-7s1.9-4,3.4-5.5
		s3.2-2.7,5.3-3.6c2-0.8,4.3-1.3,6.8-1.3c2.4,0,4.5,0.4,6.4,1.2c1.8,0.8,3.5,1.8,4.9,3.2l-1.5,2.1c-0.1,0.2-0.2,0.3-0.4,0.4
		c-0.2,0.1-0.4,0.2-0.6,0.2c-0.3,0-0.6-0.2-1-0.5s-0.9-0.7-1.6-1c-0.7-0.4-1.5-0.7-2.5-1s-2.2-0.5-3.7-0.5c-1.8,0-3.4,0.3-4.8,0.9
		c-1.5,0.6-2.7,1.5-3.8,2.6s-1.9,2.6-2.5,4.2c-0.6,1.7-0.9,3.5-0.9,5.6s0.3,4,0.9,5.7c0.6,1.7,1.4,3.1,2.5,4.2
		c1.1,1.1,2.3,2,3.7,2.6s3,0.9,4.6,0.9c1,0,1.9-0.1,2.7-0.2c0.8-0.1,1.6-0.3,2.3-0.6s1.3-0.6,1.9-1c0.6-0.4,1.2-0.8,1.8-1.4
		C178.6,624.4,178.9,624.3,179.2,624.3z"/>
	<path class="st2" d="M211.9,601.2h-11v30.1h-4.6v-30.1h-11v-3.9h26.6V601.2z"/>
</g>
<g class="st0">
	<path class="st1" d="M58.9,581.1l-0.3,2.6H48l2.4-19.7h3.1l-2.1,17.1L58.9,581.1L58.9,581.1z"/>
	<path class="st1" d="M69.2,583.7h-3.1l2.4-19.7h3.1L69.2,583.7z"/>
	<path class="st1" d="M96.3,564l-9.7,19.7h-2.8l-5-19.7h2.5c0.3,0,0.5,0.1,0.6,0.2c0.2,0.1,0.3,0.3,0.3,0.5l3,13.1
		c0.1,0.3,0.2,0.7,0.2,1.1c0.1,0.4,0.1,0.8,0.2,1.3c0.1-0.4,0.3-0.9,0.5-1.3c0.2-0.4,0.3-0.8,0.5-1.1l6.1-13.1
		c0.1-0.2,0.2-0.3,0.4-0.5s0.4-0.2,0.7-0.2H96.3z"/>
	<path class="st1" d="M106.3,566.5l-0.7,6.1h6.6l-0.3,2.4h-6.6l-0.8,6.2h8.3l-0.3,2.5h-11.4l2.4-19.7h11.3l-0.3,2.5H106.3z"/>
</g>
<path class="st3" d="M-45.3,503.8c0,0,10.1,13.1,32.8,27.8c22.9,14.6,43.7,20.6,43.7,20.6l-17.3,33.4c0,0-13.1-4.4-22.7-9.8
	c-16.8,31.8-34.3,65.9-34.3,65.9s-22.8-11.8-35.7-22.3c22.3-42.9,31.5-64,31.5-64s-11.5-8.3-18.2-16.9
	C-58.5,525.4-45.3,503.8-45.3,503.8z"/>
<g class="st0">
	<path class="st4" d="M57.9,574.1l-0.3,2.6H47l2.4-19.7h3.1l-2.1,17.1L57.9,574.1L57.9,574.1z"/>
	<path class="st4" d="M68.2,576.7h-3.1l2.4-19.7h3.1L68.2,576.7z"/>
	<path class="st4" d="M95.3,557l-9.7,19.7h-2.8l-5-19.7h2.5c0.3,0,0.5,0.1,0.6,0.2c0.2,0.1,0.3,0.3,0.3,0.5l3,13.1
		c0.1,0.3,0.2,0.7,0.2,1.1c0.1,0.4,0.1,0.8,0.2,1.3c0.1-0.4,0.3-0.9,0.5-1.3c0.2-0.4,0.3-0.8,0.5-1.1l6.1-13.1
		c0.1-0.2,0.2-0.3,0.4-0.5s0.4-0.2,0.7-0.2H95.3z"/>
	<path class="st4" d="M105.3,559.5l-0.7,6.1h6.6l-0.3,2.4h-6.6l-0.8,6.2h8.3l-0.3,2.5h-11.4l2.4-19.7h11.3l-0.3,2.5H105.3z"/>
</g>
<g class="st0">
	<path class="st4" d="M23.9,620.3c0.3,0,0.5,0.1,0.7,0.3l1.8,2c-1.4,1.6-3.1,2.9-5.1,3.8c-2,0.9-4.4,1.4-7.2,1.4
		c-2.4,0-4.6-0.4-6.6-1.3c-2-0.8-3.7-2-5.1-3.6c-1.4-1.5-2.5-3.4-3.3-5.5s-1.2-4.5-1.2-7s0.4-4.9,1.2-7c0.8-2.1,1.9-4,3.4-5.5
		s3.2-2.7,5.2-3.6c2-0.8,4.3-1.3,6.8-1.3c2.4,0,4.6,0.4,6.4,1.2c1.8,0.8,3.5,1.8,4.9,3.2l-1.5,2.1c-0.1,0.2-0.2,0.3-0.4,0.4
		c-0.2,0.1-0.4,0.2-0.6,0.2c-0.3,0-0.6-0.2-1-0.5s-0.9-0.7-1.6-1c-0.7-0.3-1.5-0.7-2.5-1s-2.2-0.5-3.7-0.5c-1.8,0-3.4,0.3-4.8,0.9
		c-1.5,0.6-2.7,1.5-3.8,2.6s-1.9,2.6-2.5,4.2c-0.6,1.7-0.9,3.5-0.9,5.6s0.3,4,0.9,5.7s1.4,3.1,2.5,4.2c1.1,1.1,2.3,2,3.7,2.6
		s3,0.9,4.6,0.9c1,0,1.9-0.1,2.7-0.2c0.8-0.1,1.6-0.3,2.3-0.6s1.3-0.6,1.9-1s1.2-0.8,1.8-1.4C23.4,620.4,23.7,620.3,23.9,620.3z"/>
	<path class="st4" d="M64.5,610.3c0,2.5-0.4,4.9-1.2,7c-0.8,2.1-1.9,4-3.4,5.5s-3.2,2.7-5.3,3.6c-2.1,0.8-4.3,1.3-6.8,1.3
		s-4.8-0.4-6.8-1.3c-2.1-0.8-3.8-2-5.3-3.6c-1.5-1.5-2.6-3.4-3.4-5.5c-0.8-2.1-1.2-4.5-1.2-7s0.4-4.9,1.2-7s1.9-4,3.4-5.5
		s3.2-2.7,5.3-3.6c2.1-0.9,4.3-1.3,6.8-1.3s4.8,0.4,6.8,1.3c2.1,0.9,3.8,2.1,5.3,3.6s2.6,3.4,3.4,5.5S64.5,607.8,64.5,610.3z
		 M59.7,610.3c0-2.1-0.3-4-0.9-5.6c-0.6-1.7-1.4-3.1-2.4-4.2c-1-1.1-2.3-2-3.8-2.6s-3.1-0.9-5-0.9c-1.8,0-3.5,0.3-5,0.9
		c-1.5,0.6-2.8,1.5-3.8,2.6c-1.1,1.1-1.9,2.5-2.4,4.2c-0.6,1.7-0.9,3.5-0.9,5.6s0.3,4,0.9,5.6c0.6,1.6,1.4,3,2.4,4.2
		c1.1,1.1,2.3,2,3.8,2.6s3.1,0.9,5,0.9c1.8,0,3.5-0.3,5-0.9c1.5-0.6,2.7-1.5,3.8-2.6s1.8-2.5,2.4-4.2S59.7,612.4,59.7,610.3z"/>
	<path class="st4" d="M92.3,623.4v3.9H73v-34h4.6v30.1H92.3z"/>
	<path class="st4" d="M118.6,623.4v3.9H99.4v-34h4.6v30.1H118.6z"/>
	<path class="st4" d="M146.6,623.6v3.7h-20.9v-34h20.9v3.7h-16.3v11.4h13.2v3.6h-13.2v11.6L146.6,623.6L146.6,623.6z"/>
	<path class="st4" d="M178.2,620.3c0.3,0,0.5,0.1,0.7,0.3l1.8,2c-1.4,1.6-3.1,2.9-5.1,3.8c-2,0.9-4.4,1.4-7.2,1.4
		c-2.4,0-4.6-0.4-6.6-1.3c-2-0.8-3.7-2-5.1-3.6c-1.4-1.5-2.5-3.4-3.3-5.5s-1.2-4.5-1.2-7s0.4-4.9,1.2-7s1.9-4,3.4-5.5
		s3.2-2.7,5.3-3.6c2-0.8,4.3-1.3,6.8-1.3c2.4,0,4.5,0.4,6.4,1.2c1.8,0.8,3.5,1.8,4.9,3.2l-1.5,2.1c-0.1,0.2-0.2,0.3-0.4,0.4
		c-0.2,0.1-0.4,0.2-0.6,0.2c-0.3,0-0.6-0.2-1-0.5s-0.9-0.7-1.6-1c-0.7-0.4-1.5-0.7-2.5-1s-2.2-0.5-3.7-0.5c-1.8,0-3.4,0.3-4.8,0.9
		c-1.5,0.6-2.7,1.5-3.8,2.6s-1.9,2.6-2.5,4.2c-0.6,1.7-0.9,3.5-0.9,5.6s0.3,4,0.9,5.7c0.6,1.7,1.4,3.1,2.5,4.2
		c1.1,1.1,2.3,2,3.7,2.6s3,0.9,4.6,0.9c1,0,1.9-0.1,2.7-0.2c0.8-0.1,1.6-0.3,2.3-0.6s1.3-0.6,1.9-1c0.6-0.4,1.2-0.8,1.8-1.4
		C177.6,620.4,177.9,620.3,178.2,620.3z"/>
	<path class="st4" d="M210.9,597.2h-11v30.1h-4.6v-30.1h-11v-3.9h26.6V597.2z"/>
</g>
<path class="st5" d="M-47.6,494c0,0,9.7,12.6,31.5,26.7c22,14.1,43.6,19.7,43.6,19.7l-16.1,31.2c0,0-14.2-4-23.4-9.3
	c-16.2,30.6-33.5,64.3-33.5,64.3s-21.8-11.4-34.3-21.5c21.4-41.2,33.3-63.7,33.3-63.7s-11-8-17.5-16.3
	C-57.3,512.6-47.6,494-47.6,494z"/>
<path class="st6" d="M-74.1,603.3l30.9-59.5c0,0,9.1,7.5,20.9,13.5c-12.9,24.6-31.2,59.3-31.2,59.3S-66.6,609.6-74.1,603.3z"/>
<path class="st6" d="M-41.1,539.8l12.4-23.6c0,0,8,6.4,20.6,13.5c-6.6,12.1-12.2,23.5-12.2,23.5S-29.6,549.1-41.1,539.8z"/>
</svg>
