<?xml version="1.0" encoding="utf-8"?>
<!-- Generator: Adobe Illustrator 19.1.1, SVG Export Plug-In . SVG Version: 6.00 Build 0)  -->
<svg version="1.1" id="Layer_1" xmlns="http://www.w3.org/2000/svg" xmlns:xlink="http://www.w3.org/1999/xlink" x="0px" y="0px"
	 viewBox="-129 482.8 379.7 172.2" style="enable-background:new -129 482.8 379.7 172.2;" xml:space="preserve">
<style type="text/css">
	.st0{opacity:0.2;enable-background:new    ;}
	.st1{enable-background:new    ;}
	.st2{fill:#898989;}
	.st3{stroke:#FFFFFF;stroke-width:3;stroke-miterlimit:10;}
	.st4{fill:#ED342E;}
</style>
<g>
	<path class="st0" d="M-58.3,501.8c0,0,10.1,13.1,32.8,27.8c22.9,14.7,43.7,20.7,43.7,20.7L0.9,583.7c0,0-13.1-4.4-22.7-9.8
		c-16.9,31.7-34.3,65.9-34.3,65.9s-22.8-11.8-35.7-22.3c22.3-42.9,31.5-64,31.5-64s-11.5-8.3-18.2-16.9
		C-71.5,523.4-58.3,501.8-58.3,501.8z"/>
	<g class="st1">
		<path class="st2" d="M44.8,572.1l-0.3,2.6H34l2.4-19.7h3.1l-2.1,17.1H44.8z"/>
		<path class="st2" d="M55.2,574.7h-3.1l2.4-19.7h3.1L55.2,574.7z"/>
		<path class="st2" d="M82.2,555l-9.7,19.7h-2.8L64.8,555h2.5c0.3,0,0.5,0.1,0.6,0.2s0.3,0.3,0.3,0.5l3,13.1
			c0.1,0.3,0.2,0.7,0.2,1.1c0.1,0.4,0.1,0.8,0.2,1.3c0.1-0.4,0.3-0.9,0.5-1.3c0.2-0.4,0.3-0.8,0.5-1.1l6.1-13.1
			c0.1-0.2,0.2-0.3,0.4-0.5s0.4-0.2,0.7-0.2H82.2z"/>
		<path class="st2" d="M92.3,557.5l-0.7,6.1h6.6l-0.3,2.4h-6.6l-0.8,6.2h8.3l-0.3,2.5H87l2.4-19.7h11.3l-0.3,2.5H92.3z"/>
	</g>
	<g class="st1">
		<path class="st2" d="M10.9,618.3c0.3,0,0.5,0.1,0.7,0.3l1.8,2c-1.4,1.6-3.1,2.9-5.1,3.8c-2,0.9-4.4,1.4-7.2,1.4
			c-2.4,0-4.6-0.4-6.6-1.3c-2-0.8-3.7-2-5.1-3.6c-1.4-1.5-2.5-3.4-3.3-5.5c-0.8-2.1-1.2-4.5-1.2-7s0.4-4.9,1.2-7
			c0.8-2.1,1.9-4,3.4-5.5c1.5-1.5,3.2-2.7,5.2-3.6c2-0.8,4.3-1.3,6.8-1.3c2.4,0,4.6,0.4,6.4,1.2c1.8,0.8,3.5,1.8,4.9,3.2l-1.5,2.1
			c-0.1,0.2-0.2,0.3-0.4,0.4c-0.2,0.1-0.4,0.2-0.6,0.2c-0.3,0-0.6-0.2-1-0.5c-0.4-0.3-0.9-0.7-1.6-1s-1.5-0.7-2.5-1
			c-1-0.3-2.2-0.5-3.7-0.5c-1.8,0-3.4,0.3-4.8,0.9c-1.5,0.6-2.7,1.5-3.8,2.6s-1.9,2.6-2.5,4.2c-0.6,1.7-0.9,3.5-0.9,5.6
			c0,2.1,0.3,4,0.9,5.7c0.6,1.7,1.4,3.1,2.5,4.2c1.1,1.1,2.3,2,3.7,2.6c1.4,0.6,3,0.9,4.6,0.9c1,0,1.9-0.1,2.7-0.2
			c0.8-0.1,1.6-0.3,2.3-0.6c0.7-0.3,1.3-0.6,1.9-1c0.6-0.4,1.2-0.8,1.8-1.4C10.3,618.4,10.6,618.3,10.9,618.3z"/>
		<path class="st2" d="M51.4,608.4c0,2.5-0.4,4.9-1.2,7s-1.9,4-3.4,5.5c-1.5,1.5-3.2,2.7-5.3,3.6c-2.1,0.8-4.3,1.3-6.8,1.3
			c-2.5,0-4.8-0.4-6.8-1.3c-2.1-0.8-3.8-2-5.3-3.6c-1.5-1.5-2.6-3.4-3.4-5.5s-1.2-4.5-1.2-7s0.4-4.9,1.2-7s1.9-4,3.4-5.5
			c1.5-1.5,3.2-2.7,5.3-3.6c2.1-0.9,4.3-1.3,6.8-1.3c2.5,0,4.8,0.4,6.8,1.3c2.1,0.9,3.8,2.1,5.3,3.6c1.5,1.5,2.6,3.4,3.4,5.5
			S51.4,605.8,51.4,608.4z M46.7,608.4c0-2.1-0.3-4-0.9-5.6c-0.6-1.7-1.4-3.1-2.4-4.2s-2.3-2-3.8-2.6c-1.5-0.6-3.1-0.9-5-0.9
			c-1.8,0-3.5,0.3-5,0.9c-1.5,0.6-2.8,1.5-3.8,2.6c-1.1,1.1-1.9,2.5-2.4,4.2c-0.6,1.7-0.9,3.5-0.9,5.6c0,2.1,0.3,4,0.9,5.6
			s1.4,3,2.4,4.2c1.1,1.1,2.3,2,3.8,2.6c1.5,0.6,3.1,0.9,5,0.9c1.8,0,3.5-0.3,5-0.9c1.5-0.6,2.7-1.5,3.8-2.6s1.8-2.5,2.4-4.2
			S46.7,610.5,46.7,608.4z"/>
		<path class="st2" d="M79.2,621.5v3.9H60v-34h4.6v30.1H79.2z"/>
		<path class="st2" d="M105.6,621.5v3.9H86.3v-34h4.6v30.1H105.6z"/>
		<path class="st2" d="M133.6,621.6l0,3.7h-20.9v-34h20.9v3.7h-16.3v11.3h13.2v3.6h-13.2v11.6H133.6z"/>
		<path class="st2" d="M165.1,618.3c0.3,0,0.5,0.1,0.7,0.3l1.8,2c-1.4,1.6-3.1,2.9-5.1,3.8c-2,0.9-4.4,1.4-7.2,1.4
			c-2.4,0-4.6-0.4-6.6-1.3c-2-0.8-3.7-2-5.1-3.6c-1.4-1.5-2.5-3.4-3.3-5.5c-0.8-2.1-1.2-4.5-1.2-7s0.4-4.9,1.2-7
			c0.8-2.1,1.9-4,3.4-5.5c1.5-1.5,3.2-2.7,5.2-3.6c2-0.8,4.3-1.3,6.8-1.3c2.4,0,4.6,0.4,6.4,1.2c1.8,0.8,3.5,1.8,4.9,3.2l-1.5,2.1
			c-0.1,0.2-0.2,0.3-0.4,0.4c-0.2,0.1-0.4,0.2-0.6,0.2c-0.3,0-0.6-0.2-1-0.5c-0.4-0.3-0.9-0.7-1.6-1c-0.7-0.4-1.5-0.7-2.5-1
			c-1-0.3-2.2-0.5-3.7-0.5c-1.8,0-3.4,0.3-4.8,0.9s-2.7,1.5-3.8,2.6s-1.9,2.6-2.5,4.2c-0.6,1.7-0.9,3.5-0.9,5.6c0,2.1,0.3,4,0.9,5.7
			c0.6,1.7,1.4,3.1,2.5,4.2c1.1,1.1,2.3,2,3.7,2.6c1.4,0.6,3,0.9,4.6,0.9c1,0,1.9-0.1,2.7-0.2c0.8-0.1,1.6-0.3,2.3-0.6
			s1.3-0.6,1.9-1c0.6-0.4,1.2-0.8,1.8-1.4C164.6,618.4,164.8,618.3,165.1,618.3z"/>
		<path class="st2" d="M197.9,595.2h-11v30.1h-4.6v-30.1h-11v-3.9h26.6V595.2z"/>
	</g>
	<path class="st3" d="M-60.6,492c0,0,9.7,12.6,31.5,26.7c22,14.1,43.6,19.7,43.6,19.7l-16.1,31.2c0,0-14.2-4-23.4-9.3
		c-16.2,30.6-33.5,64.3-33.5,64.3s-21.9-11.4-34.3-21.5c21.4-41.2,33.3-63.7,33.3-63.7s-11-8-17.5-16.3
		C-70.3,510.6-60.6,492-60.6,492z"/>
	<path class="st4" d="M-87.2,601.3l30.9-59.5c0,0,9.1,7.5,20.9,13.5c-12.8,24.6-31.1,59.4-31.1,59.4S-79.6,607.6-87.2,601.3z"/>
	<path class="st4" d="M-54.1,537.9l12.4-23.6c0,0,8,6.4,20.6,13.5c-6.7,12-12.3,23.4-12.3,23.4S-42.7,547.2-54.1,537.9z"/>
</g>
</svg>
