<?xml version="1.0" encoding="utf-8"?>
<!-- Generator: Adobe Illustrator 19.1.1, SVG Export Plug-In . SVG Version: 6.00 Build 0)  -->
<svg version="1.1" id="Layer_1" xmlns="http://www.w3.org/2000/svg" xmlns:xlink="http://www.w3.org/1999/xlink" x="0px" y="0px"
	 viewBox="-193 443 252 252" style="enable-background:new -193 443 252 252;" xml:space="preserve">
<style type="text/css">
	.st0{fill:#303D74;}
	.st1{fill:#D9D9D9;}
	.st2{fill:none;stroke:#CFCFCF;stroke-miterlimit:10;}
	.st3{enable-background:new    ;}
	.st4{fill:#FFFFFF;}
</style>
<g>
	<g>
		<path class="st0" d="M-67,462c18.6,0,36.2,4.8,51.4,13.2l9.5-16.4C-24.1,448.7-44.9,443-67,443s-42.8,5.7-60.8,15.6l9.4,16.5
			C-103.2,466.7-85.7,462-67,462z"/>
	</g>
	<g>
		<path class="st1" d="M-2,461.1l-9.5,16.4C19.4,496.2,40,530.2,40,569c0,59.1-47.9,107-107,107s-107-47.9-107-107
			c0-38.8,20.6-72.7,51.5-91.5l-9.4-16.5c-36.6,22-61.1,62.1-61.1,108c0,69.6,56.4,126,126,126S59,638.6,59,569
			C59,523.2,34.5,483.1-2,461.1z"/>
	</g>
</g>
<line class="st2" x1="-153.2" y1="597.7" x2="19.5" y2="597.7"/>
<g class="st3">
	<path d="M-82.5,644.6L-82.5,644.6c0,1-0.3,1.9-1,2.6c-0.7,0.7-1.7,1-2.9,1c-1.2,0-2.2-0.4-2.9-1.3s-1.1-1.9-1.1-3.3v-1.9
		c0-1.3,0.4-2.4,1.1-3.3c0.8-0.9,1.7-1.3,2.9-1.3s2.2,0.3,2.9,1c0.7,0.6,1.1,1.5,1,2.6l0,0h-1.4c0-0.7-0.2-1.3-0.7-1.8
		c-0.4-0.4-1.1-0.7-1.9-0.7c-0.8,0-1.4,0.3-1.9,1c-0.5,0.6-0.7,1.5-0.7,2.4v1.9c0,1,0.2,1.8,0.7,2.4c0.5,0.6,1.1,1,1.9,1
		c0.8,0,1.4-0.2,1.9-0.6c0.4-0.4,0.7-1,0.7-1.8H-82.5z"/>
	<path d="M-72.8,645.3h-4.5l-1,2.7h-1.5l4.1-10.7h1.2l4.1,10.7h-1.5L-72.8,645.3z M-76.8,644h3.6l-1.8-4.9h0L-76.8,644z"/>
	<path d="M-61,645.3c0-0.5-0.2-0.9-0.5-1.2c-0.4-0.3-1-0.6-1.9-0.8c-1.1-0.3-2-0.7-2.6-1.2c-0.6-0.5-0.9-1.2-0.9-2
		c0-0.8,0.3-1.5,1-2.1c0.7-0.6,1.6-0.8,2.6-0.8c1.2,0,2.1,0.3,2.8,1c0.7,0.6,1,1.4,1,2.2l0,0h-1.4c0-0.6-0.2-1.1-0.6-1.5
		c-0.4-0.4-1-0.6-1.8-0.6c-0.7,0-1.3,0.2-1.7,0.5c-0.4,0.3-0.6,0.7-0.6,1.3c0,0.5,0.2,0.9,0.6,1.2c0.4,0.3,1.1,0.6,2,0.8
		c1.1,0.3,2,0.7,2.6,1.2s0.9,1.2,0.9,2c0,0.9-0.4,1.6-1.1,2.1s-1.6,0.8-2.8,0.8c-1.1,0-2-0.3-2.8-0.9c-0.8-0.6-1.2-1.4-1.2-2.3l0,0
		h1.4c0,0.7,0.3,1.2,0.8,1.6s1.1,0.5,1.9,0.5c0.7,0,1.3-0.2,1.7-0.5S-61,645.8-61,645.3z"/>
	<path d="M-47.4,648h-1.4v-4.7H-54v4.7h-1.4v-10.7h1.4v4.8h5.2v-4.8h1.4V648z"/>
</g>
<g>
	<g>
		<path class="st4" d="M-116.6,464.9c0.6,1.3,0.9,2,1.5,3.3c-0.8,0.3-1.1,0.5-1.9,0.9c-1.7-3.6-2.5-5.4-4.2-9
			c1.6-0.8,2.5-1.1,4.1-1.8c1.2-0.5,2.3-0.6,3.2-0.4c0.9,0.3,1.5,0.9,1.9,1.7c0.4,0.8,0.3,1.7-0.2,2.5c-0.4,0.8-1.2,1.4-2.4,1.9
			C-115.4,464.4-115.8,464.6-116.6,464.9z M-117.2,463.5c0.8-0.4,1.2-0.5,2-0.9c0.6-0.2,0.9-0.6,1.1-1s0.2-0.8,0-1.3
			c-0.2-0.4-0.5-0.7-0.9-0.9c-0.4-0.2-0.9-0.1-1.5,0.1c-0.8,0.3-1.2,0.5-2,0.9C-118,461.7-117.7,462.3-117.2,463.5z"/>
		<path class="st4" d="M-110.1,462.1c-0.4-1-0.4-2,0-2.9c0.4-0.9,1.2-1.6,2.3-1.9c1.1-0.4,2.2-0.4,3,0.1c0.9,0.5,1.4,1.2,1.8,2.3
			c0,0.1,0,0.1,0,0.1c0.3,1.1,0.3,2-0.1,2.9c-0.4,0.9-1.1,1.5-2.2,1.8c-1.1,0.4-2,0.3-2.9-0.1c-0.8-0.4-1.4-1.2-1.8-2.2
			C-110.1,462.1-110.1,462.1-110.1,462.1z M-108,461.5c0.2,0.6,0.5,1.1,0.9,1.4c0.4,0.3,0.8,0.4,1.3,0.2c0.5-0.2,0.8-0.5,0.9-1
			s0.1-1-0.1-1.7c0-0.1,0-0.1,0-0.1c-0.2-0.6-0.5-1.1-0.9-1.4c-0.4-0.3-0.8-0.4-1.4-0.2c-0.5,0.2-0.9,0.5-1,1s0,1,0.2,1.6
			C-108.1,461.4-108.1,461.4-108,461.5z"/>
		<path class="st4" d="M-94.9,458.5C-94.8,458.5-94.8,458.5-94.9,458.5c0-2,0-2.9,0-4.9c0.8-0.2,1.2-0.3,2-0.4
			c-0.2,3.1-0.3,4.6-0.4,7.7c-0.7,0.2-1,0.2-1.7,0.4c-1-1.6-1.5-2.4-2.5-3.9l0,0c-0.1,1.9-0.2,2.8-0.3,4.6c-0.7,0.2-1,0.3-1.7,0.5
			c-1.6-2.6-2.4-3.9-4-6.5c0.8-0.2,1.2-0.4,2-0.6c0.9,1.7,1.4,2.6,2.3,4.3l0,0c0.1-2,0.1-3,0.2-5c0.6-0.2,0.9-0.2,1.4-0.4
			C-96.4,456-95.9,456.8-94.9,458.5z"/>
		<path class="st4" d="M-87,459.8c-1.1,0.2-2,0-2.8-0.5s-1.3-1.3-1.5-2.4c0-0.1,0-0.2-0.1-0.3c-0.2-1.1-0.1-2,0.4-2.9
			c0.5-0.8,1.3-1.3,2.4-1.5c1.1-0.2,2,0,2.6,0.5c0.7,0.5,1.1,1.3,1.2,2.3c0.1,0.4,0.1,0.6,0.2,1.1c-1.8,0.3-2.8,0.4-4.6,0.8l0,0
			c0.1,0.5,0.4,0.8,0.7,1.1c0.4,0.3,0.8,0.3,1.3,0.2c0.5-0.1,0.8-0.2,1.1-0.3c0.3-0.1,0.6-0.3,0.9-0.6c0.3,0.5,0.4,0.7,0.7,1.1
			c-0.3,0.3-0.6,0.6-1.1,0.8C-85.9,459.5-86.4,459.7-87,459.8z M-88.3,453.7c-0.4,0.1-0.7,0.3-0.9,0.6c-0.2,0.3-0.2,0.7-0.2,1.2l0,0
			c1-0.2,1.5-0.3,2.6-0.5c0-0.1,0-0.1,0-0.2c-0.1-0.4-0.2-0.7-0.5-0.9C-87.5,453.7-87.8,453.7-88.3,453.7z"/>
		<path class="st4" d="M-79.4,452.8c-0.3,0-0.5,0-0.8,0.1c-0.3,0-0.6,0.1-0.8,0.3c-0.2,0.1-0.3,0.3-0.4,0.6c0.2,2,0.4,3,0.6,5
			c-0.8,0.1-1.2,0.1-2,0.3c-0.4-2.9-0.6-4.4-1-7.3c0.8-0.1,1.2-0.2,2-0.3c0.1,0.4,0.1,0.6,0.2,1.1c0.1-0.4,0.3-0.7,0.6-1
			c0.3-0.2,0.6-0.4,1-0.4c0.1,0,0.2,0,0.3,0c0.1,0,0.2,0,0.3,0C-79.4,451.8-79.4,452.1-79.4,452.8z"/>
		<path class="st4" d="M-72.2,454c0.1,1.6,0.1,2.4,0.2,4c-0.8,0-1.2,0.1-2,0.1c-0.2-4-0.4-6-0.6-9.9c1.7-0.1,2.5-0.1,4.2-0.2
			c1.3,0,2.3,0.2,3,0.7s1.1,1.2,1.1,2.2c0,0.5-0.1,1-0.4,1.3c-0.3,0.4-0.7,0.7-1.3,0.9c0.6,0.2,1.1,0.5,1.4,0.9s0.4,0.9,0.4,1.5
			c0,0.3,0,0.4,0,0.7c0,0.3,0,0.6,0.1,0.9c0.1,0.3,0.2,0.5,0.4,0.7c0,0.1,0,0.1,0,0.1c-0.8,0-1.3,0-2.1,0c-0.2-0.1-0.3-0.4-0.4-0.7
			c-0.1-0.3-0.1-0.7-0.1-1c0-0.3,0-0.4,0-0.7c0-0.5-0.2-0.9-0.4-1.2c-0.3-0.3-0.7-0.4-1.2-0.4C-71,454-71.4,454-72.2,454z
			 M-72.3,452.5c0.7,0,1.1,0,1.8-0.1c0.6,0,1-0.1,1.3-0.4c0.3-0.2,0.4-0.6,0.4-1.1s-0.2-0.8-0.5-1.1c-0.3-0.3-0.8-0.4-1.3-0.4
			c-0.8,0-1.2,0-1.9,0.1C-72.4,450.7-72.3,451.3-72.3,452.5z"/>
		<path class="st4" d="M-61.4,458.1c-1.1-0.1-2-0.4-2.6-1.1s-1-1.6-0.9-2.6c0-0.1,0-0.2,0-0.3c0-1.1,0.4-2,1-2.7
			c0.7-0.7,1.6-1,2.7-1c1.1,0.1,1.9,0.4,2.5,1s0.8,1.5,0.7,2.5c0,0.4,0,0.7-0.1,1.1c-1.9-0.1-2.8-0.2-4.6-0.2l0,0
			c0,0.5,0.2,0.9,0.5,1.2s0.7,0.5,1.2,0.5s0.8,0,1.1-0.1s0.6-0.2,1-0.4c0.2,0.5,0.3,0.8,0.5,1.3c-0.3,0.2-0.7,0.4-1.3,0.5
			C-60.2,458.1-60.8,458.2-61.4,458.1z M-61.3,452c-0.4,0-0.7,0.1-1,0.4c-0.2,0.3-0.4,0.6-0.5,1.1l0,0c1,0,1.6,0.1,2.6,0.1
			c0-0.1,0-0.1,0-0.2c0-0.4-0.1-0.8-0.3-1C-60.6,452.2-60.9,452-61.3,452z"/>
		<path class="st4" d="M-54.5,451.1c0,0.4,0,0.6,0,1c0.3-0.3,0.6-0.6,1-0.7c0.4-0.2,0.9-0.2,1.4-0.1c0.5,0.1,0.9,0.2,1.3,0.5
			c0.4,0.3,0.6,0.6,0.7,1.1c0.3-0.4,0.7-0.6,1.1-0.8c0.4-0.2,0.9-0.2,1.4-0.1c0.8,0.1,1.4,0.5,1.7,1c0.4,0.6,0.5,1.4,0.3,2.4
			c-0.3,1.8-0.5,2.6-0.8,4.4c-0.8-0.1-1.2-0.2-2-0.3c0.3-1.8,0.4-2.7,0.7-4.4c0.1-0.6,0.1-1-0.1-1.2c-0.2-0.2-0.4-0.4-0.8-0.5
			c-0.3,0-0.6,0-0.8,0.1s-0.4,0.2-0.6,0.4c0,0.1,0,0.2,0,0.2c0,0.1,0,0.1,0,0.2c-0.3,1.9-0.4,2.9-0.7,4.8c-0.8-0.1-1.2-0.2-2-0.3
			c0.2-1.8,0.3-2.7,0.5-4.5c0.1-0.5,0-0.9-0.2-1.2c-0.2-0.2-0.4-0.4-0.8-0.4c-0.3,0-0.5,0-0.8,0.1c-0.2,0.1-0.4,0.2-0.6,0.4
			c-0.2,2.2-0.3,3.2-0.5,5.4c-0.8-0.1-1.2-0.1-2-0.2c0.2-2.9,0.4-4.4,0.6-7.4C-55.8,451-55.3,451-54.5,451.1z"/>
		<path class="st4" d="M-44.4,456.2c0.2-1.1,0.7-1.9,1.5-2.5c0.8-0.6,1.8-0.7,2.9-0.5c1.2,0.3,2,0.8,2.5,1.7s0.6,1.8,0.3,2.9
			c0,0.1,0,0.1,0,0.1c-0.3,1.1-0.8,1.9-1.6,2.4s-1.7,0.7-2.8,0.4c-1.1-0.2-1.9-0.8-2.4-1.6C-44.5,458.3-44.6,457.3-44.4,456.2
			C-44.5,456.3-44.5,456.2-44.4,456.2z M-42.4,456.7c-0.1,0.7-0.1,1.2,0,1.7s0.5,0.7,1,0.8c0.5,0.1,1,0,1.3-0.3
			c0.3-0.3,0.6-0.8,0.7-1.5c0-0.1,0-0.1,0-0.1c0.1-0.6,0.1-1.2,0-1.7c-0.2-0.5-0.5-0.8-1.1-0.9c-0.5-0.1-1,0-1.3,0.4
			s-0.6,0.9-0.7,1.5C-42.4,456.6-42.4,456.7-42.4,456.7z"/>
		<path class="st4" d="M-33.6,459.8c0,0.3,0,0.4-0.1,0.7l0,0c0.1-0.2,0.2-0.4,0.3-0.6c1-1.6,1.5-2.5,2.6-4.1
			c0.9,0.3,1.3,0.4,2.2,0.7c-2,2.5-2.9,3.7-4.8,6.3c-0.8-0.2-1.1-0.3-1.9-0.5c-0.2-3.1-0.3-4.7-0.7-7.8c0.9,0.2,1.3,0.3,2.2,0.6
			C-33.6,456.9-33.6,457.9-33.6,459.8z"/>
		<path class="st4" d="M-26.8,465c-1-0.4-1.8-1-2.2-1.8c-0.4-0.9-0.5-1.8-0.1-2.8c0-0.1,0.1-0.2,0.1-0.3c0.3-1,0.9-1.8,1.8-2.3
			c0.9-0.5,1.8-0.5,2.9-0.1c1,0.4,1.7,1,2.1,1.7c0.4,0.7,0.3,1.6,0,2.6c-0.2,0.4-0.2,0.6-0.4,1c-1.8-0.7-2.6-1-4.4-1.6l0,0
			c-0.1,0.5-0.1,0.9,0.1,1.3c0.2,0.4,0.5,0.7,1,0.9c0.4,0.2,0.8,0.3,1.1,0.3s0.7,0,1.1,0c0,0.5,0.1,0.8,0.1,1.4
			c-0.4,0.1-0.8,0.2-1.4,0.1C-25.7,465.3-26.2,465.2-26.8,465z M-24.9,459.2c-0.4-0.1-0.7-0.1-1,0.1c-0.3,0.2-0.6,0.5-0.8,0.9l0,0
			c1,0.3,1.5,0.5,2.5,0.9c0-0.1,0-0.1,0.1-0.2c0.1-0.4,0.2-0.8,0-1.1C-24.2,459.6-24.5,459.3-24.9,459.2z"/>
		<path class="st4" d="M-21.7,462.9c0.4-1.1,1-1.9,1.8-2.3c0.8-0.5,1.7-0.5,2.6-0.1c0.4,0.2,0.7,0.4,0.9,0.7c0.2,0.3,0.4,0.6,0.5,1
			c0.7-1.5,1-2.2,1.7-3.7c0.8,0.4,1.3,0.6,2.1,1c-1.8,3.9-2.7,5.8-4.5,9.6c-0.7-0.3-1-0.5-1.6-0.8c0.1-0.4,0.1-0.5,0.2-0.9
			c-0.4,0.2-0.7,0.3-1.1,0.4c-0.4,0-0.8,0-1.2-0.2c-0.9-0.4-1.4-1-1.7-1.8c-0.2-0.8-0.2-1.7,0.2-2.7C-21.7,463-21.7,463-21.7,462.9z
			 M-19.7,463.9c-0.3,0.6-0.3,1.1-0.3,1.6c0.1,0.4,0.3,0.8,0.8,1c0.3,0.1,0.5,0.2,0.8,0.2s0.5-0.1,0.7-0.2c0.5-1.2,0.8-1.7,1.3-2.9
			c0-0.3-0.1-0.5-0.3-0.7c-0.2-0.2-0.4-0.4-0.7-0.5c-0.5-0.2-0.9-0.2-1.3,0.1C-19.1,462.8-19.4,463.3-19.7,463.9
			C-19.7,463.8-19.7,463.8-19.7,463.9z"/>
	</g>
</g>
<g class="st3">
	<path d="M-120.9,623.6L-120.9,623.6c0,1-0.3,1.9-1,2.6c-0.7,0.7-1.7,1-2.9,1c-1.2,0-2.2-0.4-2.9-1.3s-1.1-1.9-1.1-3.3v-1.9
		c0-1.3,0.4-2.4,1.1-3.3c0.8-0.9,1.7-1.3,2.9-1.3s2.2,0.3,2.9,1c0.7,0.6,1.1,1.5,1,2.6l0,0h-1.4c0-0.7-0.2-1.3-0.7-1.8
		c-0.4-0.4-1.1-0.7-1.9-0.7c-0.8,0-1.4,0.3-1.9,1c-0.5,0.6-0.7,1.5-0.7,2.4v1.9c0,1,0.2,1.8,0.7,2.4c0.5,0.6,1.1,1,1.9,1
		c0.8,0,1.4-0.2,1.9-0.6c0.4-0.4,0.7-1,0.7-1.8H-120.9z"/>
	<path d="M-108.9,622.6c0,1.3-0.4,2.4-1.2,3.2c-0.8,0.9-1.9,1.3-3.1,1.3c-1.2,0-2.3-0.4-3-1.3c-0.8-0.9-1.2-1.9-1.2-3.2v-1.9
		c0-1.3,0.4-2.4,1.2-3.2c0.8-0.9,1.8-1.3,3-1.3c1.3,0,2.3,0.4,3.1,1.3c0.8,0.9,1.2,1.9,1.2,3.2V622.6z M-110.3,620.7
		c0-1-0.3-1.8-0.8-2.4s-1.2-0.9-2.1-0.9c-0.8,0-1.5,0.3-2,0.9c-0.5,0.6-0.8,1.4-0.8,2.4v1.9c0,1,0.3,1.8,0.8,2.4
		c0.5,0.6,1.2,0.9,2,0.9c0.9,0,1.6-0.3,2.1-0.9c0.5-0.6,0.8-1.4,0.8-2.4V620.7z"/>
	<path d="M-103.3,625.9h5v1.1h-6.5v-10.7h1.4V625.9z"/>
	<path d="M-93.2,625.9h5v1.1h-6.5v-10.7h1.4V625.9z"/>
	<path d="M-78.2,622.1h-4.9v3.8h5.6v1.1h-7.1v-10.7h7v1.1h-5.6v3.5h4.9V622.1z"/>
	<path d="M-66.2,623.6L-66.2,623.6c0,1-0.3,1.9-1,2.6c-0.7,0.7-1.7,1-2.9,1c-1.2,0-2.2-0.4-2.9-1.3s-1.1-1.9-1.1-3.3v-1.9
		c0-1.3,0.4-2.4,1.1-3.3c0.8-0.9,1.7-1.3,2.9-1.3s2.2,0.3,2.9,1c0.7,0.6,1.1,1.5,1,2.6l0,0h-1.4c0-0.7-0.2-1.3-0.7-1.8
		c-0.4-0.4-1.1-0.7-1.9-0.7c-0.8,0-1.4,0.3-1.9,1c-0.5,0.6-0.7,1.5-0.7,2.4v1.9c0,1,0.2,1.8,0.7,2.4c0.5,0.6,1.1,1,1.9,1
		c0.8,0,1.4-0.2,1.9-0.6c0.4-0.4,0.7-1,0.7-1.8H-66.2z"/>
	<path d="M-55.3,617.5h-3.4v9.5h-1.4v-9.5h-3.4v-1.1h8.3V617.5z"/>
	<path d="M-46.7,624.3h-4.5l-1,2.7h-1.5l4.1-10.7h1.2l4.1,10.7h-1.5L-46.7,624.3z M-50.7,623h3.6l-1.8-4.9h0L-50.7,623z"/>
	<path d="M-40.8,627v-10.7h3.5c1.1,0,2,0.2,2.6,0.7c0.6,0.5,0.9,1.2,0.9,2.2c0,0.5-0.2,0.9-0.5,1.3c-0.3,0.4-0.7,0.7-1.2,0.8
		c0.6,0.1,1.2,0.5,1.5,0.9c0.4,0.5,0.6,1.1,0.6,1.7c0,1-0.3,1.7-0.9,2.2c-0.6,0.5-1.5,0.8-2.6,0.8H-40.8z M-39.3,620.9h2.3
		c0.5,0,1-0.1,1.3-0.4c0.3-0.3,0.5-0.7,0.5-1.2c0-0.6-0.2-1-0.5-1.3c-0.4-0.3-0.9-0.4-1.6-0.4h-2V620.9z M-39.3,622v3.9h2.5
		c0.7,0,1.2-0.2,1.5-0.5c0.4-0.3,0.5-0.8,0.5-1.4c0-0.6-0.2-1.1-0.5-1.5c-0.3-0.4-0.8-0.5-1.4-0.5H-39.3z"/>
	<path d="M-27.7,625.9h5v1.1h-6.5v-10.7h1.4V625.9z"/>
	<path d="M-12.8,622.1h-4.9v3.8h5.6v1.1h-7.1v-10.7h7v1.1h-5.6v3.5h4.9V622.1z"/>
</g>
</svg>
