<?xml version="1.0" encoding="utf-8"?>
<!-- Generator: Adobe Illustrator 19.1.1, SVG Export Plug-In . SVG Version: 6.00 Build 0)  -->
<svg version="1.1" id="Layer_1" xmlns="http://www.w3.org/2000/svg" xmlns:xlink="http://www.w3.org/1999/xlink" x="0px" y="0px"
	 viewBox="-193 442 252 253" style="enable-background:new -193 442 252 253;" xml:space="preserve">
<style type="text/css">
	.st0{fill:#DF4148;}
	.st1{fill:#D9D9D9;}
	.st2{fill:none;stroke:#CFCFCF;stroke-miterlimit:10;}
	.st3{enable-background:new    ;}
	.st4{fill:#FFFFFF;}
</style>
<g>
	<g>
		<path class="st0" d="M-67,461c18.6,0,36.2,4.8,51.4,13.2l9.5-16.4C-24.1,447.7-44.9,442-67,442s-42.8,5.7-60.8,15.6l9.4,16.5
			C-103.2,465.7-85.7,461-67,461z"/>
	</g>
	<g>
		<path class="st1" d="M-2,460.1l-9.5,16.4C19.4,495.2,40,529.2,40,568c0,59.1-47.9,107-107,107s-107-47.9-107-107
			c0-38.8,20.6-72.7,51.5-91.5l-9.4-16.5c-36.6,22-61.1,62.1-61.1,108c0,69.6,56.4,126,126,126S59,637.6,59,568
			C59,522.2,34.5,482.1-2,460.1z"/>
	</g>
</g>
<line class="st2" x1="-153.2" y1="596.7" x2="19.5" y2="596.7"/>
<g class="st3">
	<path d="M-82.5,643.6L-82.5,643.6c0,1-0.3,1.9-1,2.6c-0.7,0.7-1.7,1-2.9,1c-1.2,0-2.2-0.4-2.9-1.3s-1.1-1.9-1.1-3.3v-1.9
		c0-1.3,0.4-2.4,1.1-3.3c0.8-0.9,1.7-1.3,2.9-1.3s2.2,0.3,2.9,1c0.7,0.6,1.1,1.5,1,2.6l0,0h-1.4c0-0.7-0.2-1.3-0.7-1.8
		c-0.4-0.4-1.1-0.7-1.9-0.7c-0.8,0-1.4,0.3-1.9,1c-0.5,0.6-0.7,1.5-0.7,2.4v1.9c0,1,0.2,1.8,0.7,2.4c0.5,0.6,1.1,1,1.9,1
		c0.8,0,1.4-0.2,1.9-0.6c0.4-0.4,0.7-1,0.7-1.8H-82.5z"/>
	<path d="M-72.8,644.3h-4.5l-1,2.7h-1.5l4.1-10.7h1.2l4.1,10.7h-1.5L-72.8,644.3z M-76.8,643h3.6l-1.8-4.9h0L-76.8,643z"/>
	<path d="M-61,644.3c0-0.5-0.2-0.9-0.5-1.2c-0.4-0.3-1-0.6-1.9-0.8c-1.1-0.3-2-0.7-2.6-1.2s-0.9-1.2-0.9-2c0-0.8,0.3-1.5,1-2.1
		c0.7-0.6,1.6-0.8,2.6-0.8c1.2,0,2.1,0.3,2.8,1c0.7,0.6,1,1.4,1,2.2l0,0h-1.4c0-0.6-0.2-1.1-0.6-1.5c-0.4-0.4-1-0.6-1.8-0.6
		c-0.7,0-1.3,0.2-1.7,0.5c-0.4,0.3-0.6,0.7-0.6,1.3c0,0.5,0.2,0.9,0.6,1.2c0.4,0.3,1.1,0.6,2,0.8c1.1,0.3,2,0.7,2.6,1.2
		s0.9,1.2,0.9,2c0,0.9-0.4,1.6-1.1,2.1s-1.6,0.8-2.8,0.8c-1.1,0-2-0.3-2.8-0.9c-0.8-0.6-1.2-1.4-1.2-2.3l0,0h1.4
		c0,0.7,0.3,1.2,0.8,1.6s1.1,0.5,1.9,0.5c0.7,0,1.3-0.2,1.7-0.5S-61,644.8-61,644.3z"/>
	<path d="M-47.4,647h-1.4v-4.7H-54v4.7h-1.4v-10.7h1.4v4.8h5.2v-4.8h1.4V647z"/>
</g>
<g>
	<g>
		<path class="st4" d="M-94.1,459.1c-0.9-3.6-1.3-5.4-2.2-9c1.3-0.3,2-0.5,3.3-0.8c1.2-0.2,2.1-0.2,2.8,0.1c0.7,0.3,1.2,0.9,1.3,1.7
			c0.1,0.4,0,0.8-0.1,1.2c-0.2,0.4-0.5,0.7-0.9,0.9c0.6,0,1.1,0.2,1.4,0.5c0.4,0.3,0.6,0.7,0.7,1.3c0.2,0.9,0,1.6-0.5,2.1
			c-0.5,0.6-1.3,0.9-2.3,1.2C-91.9,458.6-92.7,458.7-94.1,459.1z M-93.4,453.4c0.6-0.1,0.8-0.2,1.4-0.3c0.5-0.1,0.9-0.3,1.1-0.5
			c0.2-0.3,0.3-0.6,0.2-1c-0.1-0.4-0.3-0.7-0.6-0.8c-0.3-0.1-0.8-0.2-1.3,0c-0.5,0.1-0.8,0.2-1.3,0.3
			C-93.7,452-93.6,452.5-93.4,453.4z M-93.1,454.7c0.2,1,0.3,1.6,0.6,2.6c0.7-0.2,1-0.2,1.7-0.4c0.5-0.1,0.8-0.3,1.1-0.5
			c0.2-0.3,0.3-0.6,0.2-1c-0.1-0.4-0.3-0.8-0.5-0.9c-0.3-0.2-0.7-0.2-1.1-0.1C-92,454.4-92.4,454.5-93.1,454.7z"/>
		<path class="st4" d="M-83.8,448.5c-0.8,0.1-1.2,0.2-2,0.3c-0.1-0.6-0.2-0.8-0.2-1.4c0.8-0.1,1.2-0.2,2-0.3
			C-84,447.7-83.9,447.9-83.8,448.5z M-82.7,456.9c-0.7,0.1-1.1,0.2-1.9,0.3c-0.4-2.7-0.6-4.1-1.1-6.8c0.8-0.1,1.2-0.2,2-0.3
			C-83.2,452.8-83.1,454.2-82.7,456.9z"/>
		<path class="st4" d="M-77.9,456.4c-0.7,0.1-1.1,0.1-1.9,0.2c-0.4-3.9-0.7-5.9-1.1-9.8c0.8-0.1,1.2-0.1,2-0.2
			C-78.5,450.4-78.3,452.4-77.9,456.4z"/>
		<path class="st4" d="M-73.1,456c-0.7,0-1.1,0.1-1.9,0.1c-0.3-4-0.4-5.9-0.7-9.9c0.8-0.1,1.2-0.1,2-0.1
			C-73.4,450.1-73.3,452-73.1,456z"/>
		<path class="st4" d="M-61.2,446.7c0.8,0,1.2,0.1,2,0.1c-0.1,2.6-0.2,3.9-0.4,6.5c-0.1,0.9-0.4,1.6-1,2.1s-1.4,0.7-2.3,0.7
			c-1,0-1.7-0.3-2.3-0.8c-0.6-0.5-0.8-1.2-0.8-2.1l0,0c0.7,0,1.1,0,1.9,0c0,0.5,0.1,0.8,0.3,1.1c0.2,0.2,0.5,0.3,0.9,0.4
			c0.3,0,0.6-0.1,0.9-0.4c0.3-0.3,0.4-0.6,0.4-1.1C-61.4,450.5-61.4,449.3-61.2,446.7z"/>
		<path class="st4" d="M-52.8,456.6c-0.1-0.2-0.1-0.3-0.1-0.5c0-0.2,0-0.4,0-0.5c-0.2,0.3-0.5,0.6-0.9,0.7c-0.3,0.2-0.7,0.3-1.2,0.2
			c-0.7-0.1-1.3-0.3-1.6-0.7c-0.4-0.4-0.5-0.9-0.5-1.6c0.1-0.7,0.4-1.2,0.9-1.5c0.6-0.3,1.4-0.4,2.4-0.3c0.4,0,0.6,0.1,1.1,0.1
			c0-0.2,0-0.3,0.1-0.5c0-0.3,0-0.6-0.2-0.8c-0.2-0.2-0.4-0.3-0.8-0.4c-0.3,0-0.6,0-0.8,0.1s-0.3,0.3-0.3,0.6
			c-0.7-0.1-1.1-0.1-1.9-0.2l0,0c0-0.6,0.3-1.1,0.9-1.4c0.6-0.4,1.4-0.5,2.3-0.4c0.9,0.1,1.6,0.4,2,0.9c0.5,0.5,0.7,1.1,0.6,1.9
			c-0.1,1.1-0.2,1.7-0.4,2.8c0,0.3-0.1,0.6,0,0.9c0,0.3,0.1,0.6,0.1,0.9C-51.7,456.7-52.1,456.7-52.8,456.6z M-54.4,455.2
			c0.3,0,0.6,0,0.9-0.1c0.3-0.1,0.5-0.3,0.6-0.5c0-0.4,0.1-0.6,0.1-1c-0.4,0-0.6-0.1-1.1-0.1c-0.4,0-0.7,0-1,0.2
			c-0.2,0.2-0.4,0.4-0.4,0.7c0,0.2,0,0.4,0.2,0.6S-54.7,455.1-54.4,455.2z"/>
		<path class="st4" d="M-45.7,450.7c0,0.4,0,0.5-0.1,0.9c0.3-0.3,0.6-0.5,1-0.6s0.8-0.1,1.3,0s0.8,0.3,1.1,0.5
			c0.3,0.3,0.5,0.6,0.6,1c0.3-0.3,0.6-0.5,1-0.7c0.4-0.1,0.8-0.1,1.3,0c0.7,0.2,1.2,0.5,1.5,1.1s0.3,1.3,0.1,2.2
			c-0.4,1.6-0.6,2.4-1,4c-0.7-0.2-1.1-0.3-1.8-0.4c0.4-1.6,0.5-2.4,0.9-4.1c0.1-0.5,0.1-0.9,0-1.1s-0.4-0.4-0.7-0.5s-0.5-0.1-0.7,0
			s-0.4,0.2-0.6,0.4c0,0.1,0,0.1,0,0.2s0,0.1,0,0.2c-0.4,1.8-0.5,2.7-0.9,4.4c-0.7-0.1-1.1-0.2-1.8-0.4c0.3-1.6,0.5-2.5,0.8-4.1
			c0.1-0.5,0.1-0.9-0.1-1.1c-0.1-0.2-0.4-0.4-0.7-0.5c-0.3,0-0.5,0-0.7,0c-0.2,0.1-0.4,0.2-0.6,0.3c-0.3,2-0.5,3-0.8,4.9
			c-0.7-0.1-1.1-0.2-1.8-0.3c0.4-2.7,0.6-4.1,1-6.8C-46.8,450.5-46.5,450.5-45.7,450.7z"/>
	</g>
</g>
<g class="st3">
	<path d="M-120.9,622.6L-120.9,622.6c0,1-0.3,1.9-1,2.6c-0.7,0.7-1.7,1-2.9,1c-1.2,0-2.2-0.4-2.9-1.3s-1.1-1.9-1.1-3.3v-1.9
		c0-1.3,0.4-2.4,1.1-3.3c0.8-0.9,1.7-1.3,2.9-1.3s2.2,0.3,2.9,1c0.7,0.6,1.1,1.5,1,2.6l0,0h-1.4c0-0.7-0.2-1.3-0.7-1.8
		c-0.4-0.4-1.1-0.7-1.9-0.7c-0.8,0-1.4,0.3-1.9,1c-0.5,0.6-0.7,1.5-0.7,2.4v1.9c0,1,0.2,1.8,0.7,2.4c0.5,0.6,1.1,1,1.9,1
		c0.8,0,1.4-0.2,1.9-0.6c0.4-0.4,0.7-1,0.7-1.8H-120.9z"/>
	<path d="M-108.9,621.6c0,1.3-0.4,2.4-1.2,3.2c-0.8,0.9-1.9,1.3-3.1,1.3c-1.2,0-2.3-0.4-3-1.3c-0.8-0.9-1.2-1.9-1.2-3.2v-1.9
		c0-1.3,0.4-2.4,1.2-3.2c0.8-0.9,1.8-1.3,3-1.3c1.3,0,2.3,0.4,3.1,1.3c0.8,0.9,1.2,1.9,1.2,3.2V621.6z M-110.3,619.7
		c0-1-0.3-1.8-0.8-2.4s-1.2-0.9-2.1-0.9c-0.8,0-1.5,0.3-2,0.9c-0.5,0.6-0.8,1.4-0.8,2.4v1.9c0,1,0.3,1.8,0.8,2.4
		c0.5,0.6,1.2,0.9,2,0.9c0.9,0,1.6-0.3,2.1-0.9c0.5-0.6,0.8-1.4,0.8-2.4V619.7z"/>
	<path d="M-103.3,624.9h5v1.1h-6.5v-10.7h1.4V624.9z"/>
	<path d="M-93.2,624.9h5v1.1h-6.5v-10.7h1.4V624.9z"/>
	<path d="M-78.2,621.1h-4.9v3.8h5.6v1.1h-7.1v-10.7h7v1.1h-5.6v3.5h4.9V621.1z"/>
	<path d="M-66.2,622.6L-66.2,622.6c0,1-0.3,1.9-1,2.6c-0.7,0.7-1.7,1-2.9,1c-1.2,0-2.2-0.4-2.9-1.3s-1.1-1.9-1.1-3.3v-1.9
		c0-1.3,0.4-2.4,1.1-3.3c0.8-0.9,1.7-1.3,2.9-1.3s2.2,0.3,2.9,1c0.7,0.6,1.1,1.5,1,2.6l0,0h-1.4c0-0.7-0.2-1.3-0.7-1.8
		c-0.4-0.4-1.1-0.7-1.9-0.7c-0.8,0-1.4,0.3-1.9,1c-0.5,0.6-0.7,1.5-0.7,2.4v1.9c0,1,0.2,1.8,0.7,2.4c0.5,0.6,1.1,1,1.9,1
		c0.8,0,1.4-0.2,1.9-0.6c0.4-0.4,0.7-1,0.7-1.8H-66.2z"/>
	<path d="M-55.3,616.5h-3.4v9.5h-1.4v-9.5h-3.4v-1.1h8.3V616.5z"/>
	<path d="M-46.7,623.3h-4.5l-1,2.7h-1.5l4.1-10.7h1.2l4.1,10.7h-1.5L-46.7,623.3z M-50.7,622h3.6l-1.8-4.9h0L-50.7,622z"/>
	<path d="M-40.8,626v-10.7h3.5c1.1,0,2,0.2,2.6,0.7c0.6,0.5,0.9,1.2,0.9,2.2c0,0.5-0.2,0.9-0.5,1.3c-0.3,0.4-0.7,0.7-1.2,0.8
		c0.6,0.1,1.2,0.5,1.5,0.9c0.4,0.5,0.6,1.1,0.6,1.7c0,1-0.3,1.7-0.9,2.2c-0.6,0.5-1.5,0.8-2.6,0.8H-40.8z M-39.3,619.9h2.3
		c0.5,0,1-0.1,1.3-0.4c0.3-0.3,0.5-0.7,0.5-1.2c0-0.6-0.2-1-0.5-1.3c-0.4-0.3-0.9-0.4-1.6-0.4h-2V619.9z M-39.3,621v3.9h2.5
		c0.7,0,1.2-0.2,1.5-0.5c0.4-0.3,0.5-0.8,0.5-1.4c0-0.6-0.2-1.1-0.5-1.5c-0.3-0.4-0.8-0.5-1.4-0.5H-39.3z"/>
	<path d="M-27.7,624.9h5v1.1h-6.5v-10.7h1.4V624.9z"/>
	<path d="M-12.8,621.1h-4.9v3.8h5.6v1.1h-7.1v-10.7h7v1.1h-5.6v3.5h4.9V621.1z"/>
</g>
</svg>
