<?xml version="1.0" encoding="utf-8"?>
<!-- Generator: Adobe Illustrator 19.1.1, SVG Export Plug-In . SVG Version: 6.00 Build 0)  -->
<svg version="1.1" id="Layer_1" xmlns="http://www.w3.org/2000/svg" xmlns:xlink="http://www.w3.org/1999/xlink" x="0px" y="0px"
	 viewBox="-193 442 252 253" style="enable-background:new -193 442 252 253;" xml:space="preserve">
<style type="text/css">
	.st0{fill:#D47023;}
	.st1{fill:#E38842;}
	.st2{enable-background:new    ;}
	.st3{fill:#FFFFFF;}
	.st4{fill:none;stroke:#CFCFCF;stroke-miterlimit:10;}
</style>
<g>
	<g>
		<path class="st0" d="M-67,461.5c18.6,0,36.2,4.8,51.4,13.2l9.5-16.4c-18-10.1-38.8-15.8-60.9-15.8s-42.8,5.7-60.8,15.6l9.4,16.5
			C-103.2,466.2-85.7,461.5-67,461.5z"/>
	</g>
	<g>
		<path class="st1" d="M-2,460.6l-9.5,16.4C19.4,495.7,40,529.7,40,568.5c0,59.1-47.9,107-107,107s-107-47.9-107-107
			c0-38.8,20.6-72.7,51.5-91.5l-9.4-16.5c-36.6,22-61.1,62.1-61.1,108c0,69.6,56.4,126,126,126s126-56.4,126-126
			C59,522.7,34.5,482.6-2,460.6z"/>
	</g>
</g>
<g class="st2">
	<path class="st3" d="M-71.8,452.8h-3.9v3.8h-1.9v-9.2h6.4v1.4h-4.5v2.5h3.9V452.8z"/>
	<path class="st3" d="M-66.1,455.6c-0.2,0.4-0.5,0.6-0.8,0.8c-0.3,0.2-0.7,0.3-1.1,0.3c-0.7,0-1.3-0.2-1.7-0.7
		c-0.4-0.5-0.6-1.2-0.6-2.2v-4.1h1.8v4.2c0,0.5,0.1,0.9,0.3,1.1c0.2,0.2,0.4,0.3,0.7,0.3c0.3,0,0.6,0,0.8-0.1
		c0.2-0.1,0.4-0.2,0.5-0.4v-5h1.9v6.9h-1.6L-66.1,455.6z"/>
	<path class="st3" d="M-61,456.6h-1.9v-9.9h1.9V456.6z"/>
	<path class="st3" d="M-57.5,456.6h-1.9v-9.9h1.9V456.6z"/>
</g>
<line class="st4" x1="-153.2" y1="597.2" x2="19.5" y2="597.2"/>
<g class="st2">
	<path d="M-82.5,644.1L-82.5,644.1c0,1-0.3,1.9-1,2.6c-0.7,0.7-1.7,1-2.9,1c-1.2,0-2.2-0.4-2.9-1.3s-1.1-1.9-1.1-3.3v-1.9
		c0-1.3,0.4-2.4,1.1-3.3c0.8-0.9,1.7-1.3,2.9-1.3s2.2,0.3,2.9,1c0.7,0.6,1.1,1.5,1,2.6l0,0h-1.4c0-0.7-0.2-1.3-0.7-1.8
		c-0.4-0.4-1.1-0.7-1.9-0.7s-1.4,0.3-1.9,1c-0.5,0.6-0.7,1.5-0.7,2.4v1.9c0,1,0.2,1.8,0.7,2.4c0.5,0.6,1.1,1,1.9,1s1.4-0.2,1.9-0.6
		c0.4-0.4,0.7-1,0.7-1.8L-82.5,644.1L-82.5,644.1z"/>
	<path d="M-72.8,644.8h-4.5l-1,2.7h-1.5l4.1-10.7h1.2l4.1,10.7h-1.5L-72.8,644.8z M-76.8,643.5h3.6l-1.8-4.9l0,0L-76.8,643.5z"/>
	<path d="M-61,644.8c0-0.5-0.2-0.9-0.5-1.2c-0.4-0.3-1-0.6-1.9-0.8c-1.1-0.3-2-0.7-2.6-1.2s-0.9-1.2-0.9-2s0.3-1.5,1-2.1
		s1.6-0.8,2.6-0.8c1.2,0,2.1,0.3,2.8,1c0.7,0.6,1,1.4,1,2.2l0,0h-1.4c0-0.6-0.2-1.1-0.6-1.5c-0.4-0.4-1-0.6-1.8-0.6
		c-0.7,0-1.3,0.2-1.7,0.5c-0.4,0.3-0.6,0.7-0.6,1.3c0,0.5,0.2,0.9,0.6,1.2s1.1,0.6,2,0.8c1.1,0.3,2,0.7,2.6,1.2s0.9,1.2,0.9,2
		c0,0.9-0.4,1.6-1.1,2.1s-1.6,0.8-2.8,0.8c-1.1,0-2-0.3-2.8-0.9c-0.8-0.6-1.2-1.4-1.2-2.3l0,0h1.4c0,0.7,0.3,1.2,0.8,1.6
		s1.1,0.5,1.9,0.5c0.7,0,1.3-0.2,1.7-0.5S-61,645.3-61,644.8z"/>
	<path d="M-47.4,647.5h-1.4v-4.7H-54v4.7h-1.4v-10.7h1.4v4.8h5.2v-4.8h1.4C-47.4,636.8-47.4,647.5-47.4,647.5z"/>
</g>
<g class="st2">
	<path d="M-119.9,623.1L-119.9,623.1c0,1-0.3,1.9-1,2.6c-0.7,0.7-1.7,1-2.9,1c-1.2,0-2.2-0.4-2.9-1.3s-1.1-1.9-1.1-3.3v-1.9
		c0-1.3,0.4-2.4,1.1-3.3c0.8-0.9,1.7-1.3,2.9-1.3s2.2,0.3,2.9,1c0.7,0.6,1.1,1.5,1,2.6l0,0h-1.4c0-0.7-0.2-1.3-0.7-1.8
		c-0.4-0.4-1.1-0.7-1.9-0.7s-1.4,0.3-1.9,1c-0.5,0.6-0.7,1.5-0.7,2.4v1.9c0,1,0.2,1.8,0.7,2.4c0.5,0.6,1.1,1,1.9,1s1.4-0.2,1.9-0.6
		c0.4-0.4,0.7-1,0.7-1.8L-119.9,623.1L-119.9,623.1z"/>
	<path d="M-107.9,622.1c0,1.3-0.4,2.4-1.2,3.2c-0.8,0.9-1.9,1.3-3.1,1.3s-2.3-0.4-3-1.3c-0.8-0.9-1.2-1.9-1.2-3.2v-1.9
		c0-1.3,0.4-2.4,1.2-3.2c0.8-0.9,1.8-1.3,3-1.3c1.3,0,2.3,0.4,3.1,1.3c0.8,0.9,1.2,1.9,1.2,3.2V622.1z M-109.3,620.2
		c0-1-0.3-1.8-0.8-2.4s-1.2-0.9-2.1-0.9c-0.8,0-1.5,0.3-2,0.9c-0.5,0.6-0.8,1.4-0.8,2.4v1.9c0,1,0.3,1.8,0.8,2.4
		c0.5,0.6,1.2,0.9,2,0.9c0.9,0,1.6-0.3,2.1-0.9c0.5-0.6,0.8-1.4,0.8-2.4V620.2z"/>
	<path d="M-102.3,625.4h5v1.1h-6.5v-10.7h1.4L-102.3,625.4L-102.3,625.4z"/>
	<path d="M-92.2,625.4h5v1.1h-6.5v-10.7h1.4L-92.2,625.4L-92.2,625.4z"/>
	<path d="M-77.2,621.6h-4.9v3.8h5.6v1.1h-7.1v-10.7h7v1.1h-5.6v3.5h4.9L-77.2,621.6L-77.2,621.6z"/>
	<path d="M-65.2,623.1L-65.2,623.1c0,1-0.3,1.9-1,2.6c-0.7,0.7-1.7,1-2.9,1c-1.2,0-2.2-0.4-2.9-1.3s-1.1-1.9-1.1-3.3v-1.9
		c0-1.3,0.4-2.4,1.1-3.3c0.8-0.9,1.7-1.3,2.9-1.3s2.2,0.3,2.9,1c0.7,0.6,1.1,1.5,1,2.6l0,0h-1.4c0-0.7-0.2-1.3-0.7-1.8
		c-0.4-0.4-1.1-0.7-1.9-0.7s-1.4,0.3-1.9,1c-0.5,0.6-0.7,1.5-0.7,2.4v1.9c0,1,0.2,1.8,0.7,2.4c0.5,0.6,1.1,1,1.9,1s1.4-0.2,1.9-0.6
		c0.4-0.4,0.7-1,0.7-1.8L-65.2,623.1L-65.2,623.1z"/>
	<path d="M-54.3,617h-3.4v9.5h-1.4V617h-3.4v-1.1h8.3L-54.3,617L-54.3,617z"/>
	<path d="M-45.7,623.8h-4.5l-1,2.7h-1.5l4.1-10.7h1.2l4.1,10.7h-1.5L-45.7,623.8z M-49.7,622.5h3.6l-1.8-4.9l0,0L-49.7,622.5z"/>
	<path d="M-39.8,626.5v-10.7h3.5c1.1,0,2,0.2,2.6,0.7s0.9,1.2,0.9,2.2c0,0.5-0.2,0.9-0.5,1.3c-0.3,0.4-0.7,0.7-1.2,0.8
		c0.6,0.1,1.2,0.5,1.5,0.9c0.4,0.5,0.6,1.1,0.6,1.7c0,1-0.3,1.7-0.9,2.2c-0.6,0.5-1.5,0.8-2.6,0.8L-39.8,626.5L-39.8,626.5z
		 M-38.3,620.4h2.3c0.5,0,1-0.1,1.3-0.4c0.3-0.3,0.5-0.7,0.5-1.2c0-0.6-0.2-1-0.5-1.3c-0.4-0.3-0.9-0.4-1.6-0.4h-2V620.4z
		 M-38.3,621.5v3.9h2.5c0.7,0,1.2-0.2,1.5-0.5c0.4-0.3,0.5-0.8,0.5-1.4c0-0.6-0.2-1.1-0.5-1.5s-0.8-0.5-1.4-0.5H-38.3z"/>
	<path d="M-26.7,625.4h5v1.1h-6.5v-10.7h1.4v9.6H-26.7z"/>
	<path d="M-11.8,621.6h-4.9v3.8h5.6v1.1h-7.1v-10.7h7v1.1h-5.6v3.5h4.9v1.2H-11.8z"/>
</g>
</svg>
