<?xml version="1.0" encoding="utf-8"?>
<!-- Generator: Adobe Illustrator 19.1.1, SVG Export Plug-In . SVG Version: 6.00 Build 0)  -->
<svg version="1.1" id="Layer_1" xmlns="http://www.w3.org/2000/svg" xmlns:xlink="http://www.w3.org/1999/xlink" x="0px" y="0px"
	 viewBox="-193 442 252 253" style="enable-background:new -193 442 252 253;" xml:space="preserve">
<style type="text/css">
	.st0{fill:#A6D53E;}
	.st1{fill:#D9D9D9;}
	.st2{fill:#526A1E;}
	.st3{fill:none;stroke:#CFCFCF;stroke-miterlimit:10;}
	.st4{enable-background:new    ;}
</style>
<g>
	<g>
		<path class="st0" d="M-67,461c18.6,0,36.2,4.8,51.4,13.2l9.5-16.4C-24.1,447.7-44.9,442-67,442s-42.8,5.7-60.8,15.6l9.4,16.5
			C-103.2,465.7-85.7,461-67,461z"/>
	</g>
	<g>
		<path class="st1" d="M-2,460.1l-9.5,16.4C19.4,495.2,40,529.2,40,568c0,59.1-47.9,107-107,107s-107-47.9-107-107
			c0-38.8,20.6-72.7,51.5-91.5l-9.4-16.5c-36.6,22-61.1,62.1-61.1,108c0,69.6,56.4,126,126,126S59,637.6,59,568
			C59,522.2,34.5,482.1-2,460.1z"/>
	</g>
</g>
<g>
	<g>
		<path class="st2" d="M-86.6,454c0.3,1.5,0.4,2.2,0.7,3.6c-0.8,0.1-1.1,0.2-1.9,0.4c-0.7-3.6-1.1-5.4-1.9-9.1
			c1.5-0.3,2.3-0.5,3.9-0.7c1.2-0.2,2.1-0.1,2.9,0.3c0.7,0.4,1.1,1,1.3,1.9c0.1,0.5,0,0.9-0.2,1.3c-0.2,0.4-0.6,0.7-1.1,1
			c0.6,0.1,1.1,0.3,1.4,0.6s0.5,0.8,0.6,1.3c0,0.3,0.1,0.4,0.1,0.7s0.1,0.5,0.2,0.8s0.3,0.5,0.5,0.6c0,0.1,0,0.1,0,0.1
			c-0.8,0.1-1.2,0.2-2,0.3c-0.2-0.1-0.3-0.3-0.4-0.6s-0.2-0.6-0.2-0.9c0-0.3-0.1-0.4-0.1-0.6c-0.1-0.5-0.3-0.8-0.6-1
			c-0.3-0.2-0.7-0.3-1.2-0.2C-85.5,453.8-85.9,453.8-86.6,454z M-86.9,452.6c0.7-0.1,1-0.2,1.7-0.3c0.6-0.1,1-0.3,1.2-0.5
			c0.2-0.3,0.3-0.6,0.3-1c-0.1-0.4-0.3-0.7-0.6-0.9c-0.3-0.2-0.8-0.3-1.3-0.2c-0.7,0.1-1.1,0.2-1.8,0.3
			C-87.2,451-87.1,451.5-86.9,452.6z"/>
		<path class="st2" d="M-74.7,456.3c-1,0.1-1.9-0.2-2.5-0.7c-0.7-0.6-1.1-1.3-1.2-2.3c0-0.1,0-0.2,0-0.3c-0.1-1,0.1-1.9,0.6-2.6
			c0.5-0.7,1.3-1.1,2.4-1.2c1-0.1,1.8,0.2,2.4,0.7s0.9,1.3,0.9,2.2c0,0.4,0,0.6,0,1c-1.7,0.1-2.6,0.1-4.3,0.3l0,0
			c0.1,0.4,0.3,0.8,0.6,1.1c0.3,0.3,0.7,0.4,1.2,0.3c0.4,0,0.8-0.1,1.1-0.2s0.6-0.2,0.9-0.4c0.2,0.4,0.4,0.7,0.6,1.1
			c-0.3,0.2-0.6,0.5-1.1,0.6C-73.6,456.1-74.1,456.2-74.7,456.3z M-75.3,450.6c-0.4,0-0.7,0.2-0.8,0.5c-0.2,0.3-0.3,0.6-0.3,1.1l0,0
			c1-0.1,1.5-0.1,2.4-0.2c0-0.1,0-0.1,0-0.2c0-0.4-0.1-0.7-0.4-0.9C-74.6,450.7-74.9,450.6-75.3,450.6z"/>
		<path class="st2" d="M-65.2,455.9c-0.1-0.2-0.1-0.3-0.2-0.5c0-0.2-0.1-0.4-0.1-0.5c-0.2,0.3-0.5,0.6-0.8,0.8s-0.7,0.3-1.2,0.3
			c-0.7,0-1.3-0.2-1.7-0.5c-0.4-0.4-0.6-0.9-0.6-1.5c0-0.7,0.2-1.2,0.8-1.6c0.5-0.4,1.4-0.6,2.4-0.6c0.4,0,0.7,0,1.1,0
			c0-0.2,0-0.3,0-0.5c0-0.3-0.1-0.6-0.3-0.8c-0.2-0.2-0.5-0.3-0.8-0.3s-0.6,0.1-0.8,0.2c-0.2,0.1-0.3,0.3-0.3,0.6
			c-0.8,0-1.2,0-1.9,0l0,0c0-0.6,0.2-1.1,0.8-1.5c0.6-0.4,1.3-0.7,2.3-0.6c0.9,0,1.6,0.2,2.2,0.7c0.6,0.4,0.8,1,0.8,1.8
			c0,1.1-0.1,1.7-0.1,2.8c0,0.3,0,0.6,0,0.9s0.1,0.6,0.2,0.9C-64.1,455.9-64.5,455.9-65.2,455.9z M-67,454.6c0.3,0,0.6-0.1,0.9-0.2
			c0.3-0.2,0.5-0.3,0.5-0.6c0-0.4,0-0.6,0-1c-0.4,0-0.7,0-1.1,0s-0.7,0.1-1,0.3c-0.2,0.2-0.3,0.4-0.3,0.7c0,0.2,0.1,0.4,0.2,0.6
			C-67.5,454.5-67.3,454.6-67,454.6z"/>
		<path class="st2" d="M-61,452.6c0.1-1.1,0.4-1.9,0.9-2.6c0.6-0.6,1.3-0.9,2.2-0.8c0.4,0,0.7,0.1,1,0.3s0.5,0.4,0.7,0.7
			c0.1-1.5,0.2-2.2,0.4-3.7c0.8,0.1,1.3,0.1,2.1,0.2c-0.5,3.9-0.7,5.9-1.2,9.8c-0.7-0.1-1-0.1-1.6-0.2c0-0.3,0-0.5-0.1-0.8
			c-0.3,0.3-0.5,0.5-0.9,0.6s-0.7,0.2-1.1,0.2c-0.9-0.1-1.5-0.4-2-1.1c-0.4-0.6-0.6-1.5-0.6-2.5C-61,452.7-61,452.7-61,452.6z
			 M-59,452.9c0,0.6,0,1.1,0.2,1.4c0.2,0.4,0.5,0.6,1,0.6c0.3,0,0.5,0,0.7-0.1s0.4-0.2,0.6-0.4c0.1-1.2,0.2-1.8,0.3-2.9
			c-0.1-0.2-0.3-0.4-0.5-0.6c-0.2-0.1-0.4-0.2-0.7-0.2c-0.5,0-0.9,0.1-1.1,0.5c-0.3,0.4-0.4,0.9-0.5,1.6
			C-59,452.8-59,452.8-59,452.9z"/>
		<path class="st2" d="M-48.9,454.5c0,0.2,0,0.2,0,0.4l0,0c0.8-1.6,1.3-2.4,2.2-4c0.9,0.2,1.3,0.2,2.2,0.4c-1.8,2.8-2.7,4.3-4.4,7.2
			c-0.3,0.4-0.6,0.8-1,1.1s-0.9,0.4-1.6,0.3c-0.2,0-0.3-0.1-0.4-0.1c-0.1,0-0.3-0.1-0.5-0.2c0.2-0.5,0.2-0.8,0.4-1.3
			c0.1,0,0.1,0,0.2,0.1c0.1,0,0.1,0,0.2,0c0.3,0,0.6,0,0.7-0.1c0.2-0.1,0.3-0.3,0.5-0.5c0.1-0.2,0.2-0.3,0.3-0.5
			c-0.6-2.9-0.9-4.3-1.6-7.2c0.9,0.1,1.3,0.2,2.2,0.3C-49.3,452-49.2,452.8-48.9,454.5z"/>
	</g>
</g>
<line class="st3" x1="-153.2" y1="597.7" x2="19.5" y2="597.7"/>
<g class="st4">
	<path d="M-115.9,623.6L-115.9,623.6c0,1-0.3,1.9-1,2.6s-1.7,1-2.9,1c-1.2,0-2.2-0.4-2.9-1.3c-0.7-0.9-1.1-1.9-1.1-3.3v-1.9
		c0-1.3,0.4-2.4,1.1-3.3c0.8-0.9,1.7-1.3,2.9-1.3c1.2,0,2.2,0.3,2.9,1c0.7,0.6,1.1,1.5,1,2.6l0,0h-1.4c0-0.7-0.2-1.3-0.7-1.8
		c-0.4-0.4-1.1-0.7-1.9-0.7s-1.4,0.3-1.9,1c-0.5,0.6-0.7,1.5-0.7,2.4v1.9c0,1,0.2,1.8,0.7,2.4s1.1,1,1.9,1s1.4-0.2,1.9-0.6
		c0.4-0.4,0.7-1,0.7-1.8L-115.9,623.6L-115.9,623.6z"/>
	<path d="M-103.9,622.6c0,1.3-0.4,2.4-1.2,3.2c-0.8,0.9-1.9,1.3-3.1,1.3s-2.3-0.4-3-1.3c-0.8-0.9-1.2-1.9-1.2-3.2v-1.9
		c0-1.3,0.4-2.4,1.2-3.2c0.8-0.9,1.8-1.3,3-1.3c1.3,0,2.3,0.4,3.1,1.3c0.8,0.9,1.2,1.9,1.2,3.2V622.6z M-105.3,620.7
		c0-1-0.3-1.8-0.8-2.4s-1.2-0.9-2.1-0.9c-0.8,0-1.5,0.3-2,0.9s-0.8,1.4-0.8,2.4v1.9c0,1,0.3,1.8,0.8,2.4s1.2,0.9,2,0.9
		c0.9,0,1.6-0.3,2.1-0.9s0.8-1.4,0.8-2.4V620.7z"/>
	<path d="M-98.3,625.9h5v1.1h-6.5v-10.7h1.4v9.6H-98.3z"/>
	<path d="M-88.2,625.9h5v1.1h-6.5v-10.7h1.4L-88.2,625.9L-88.2,625.9z"/>
	<path d="M-73.2,622.1h-4.9v3.8h5.6v1.1h-7.1v-10.7h7v1.1h-5.6v3.5h4.9L-73.2,622.1L-73.2,622.1z"/>
	<path d="M-61.2,623.6L-61.2,623.6c0,1-0.3,1.9-1,2.6s-1.7,1-2.9,1s-2.2-0.4-2.9-1.3c-0.7-0.9-1.1-1.9-1.1-3.3v-1.9
		c0-1.3,0.4-2.4,1.1-3.3c0.8-0.9,1.7-1.3,2.9-1.3c1.2,0,2.2,0.3,2.9,1c0.7,0.6,1.1,1.5,1,2.6l0,0h-1.4c0-0.7-0.2-1.3-0.7-1.8
		c-0.4-0.4-1.1-0.7-1.9-0.7s-1.4,0.3-1.9,1c-0.5,0.6-0.7,1.5-0.7,2.4v1.9c0,1,0.2,1.8,0.7,2.4s1.1,1,1.9,1s1.4-0.2,1.9-0.6
		c0.4-0.4,0.7-1,0.7-1.8L-61.2,623.6L-61.2,623.6z"/>
	<path d="M-50.3,617.5h-3.4v9.5h-1.4v-9.5h-3.4v-1.1h8.3L-50.3,617.5L-50.3,617.5z"/>
	<path d="M-41.7,624.3h-4.5l-1,2.7h-1.5l4.1-10.7h1.2l4.1,10.7h-1.5L-41.7,624.3z M-45.7,623h3.6l-1.8-4.9l0,0L-45.7,623z"/>
	<path d="M-35.8,627v-10.7h3.5c1.1,0,2,0.2,2.6,0.7s0.9,1.2,0.9,2.2c0,0.5-0.2,0.9-0.5,1.3s-0.7,0.7-1.2,0.8
		c0.6,0.1,1.2,0.5,1.5,0.9c0.4,0.5,0.6,1.1,0.6,1.7c0,1-0.3,1.7-0.9,2.2c-0.6,0.5-1.5,0.8-2.6,0.8L-35.8,627L-35.8,627z
		 M-34.3,620.9h2.3c0.5,0,1-0.1,1.3-0.4s0.5-0.7,0.5-1.2c0-0.6-0.2-1-0.5-1.3c-0.4-0.3-0.9-0.4-1.6-0.4h-2V620.9z M-34.3,622v3.9
		h2.5c0.7,0,1.2-0.2,1.5-0.5c0.4-0.3,0.5-0.8,0.5-1.4s-0.2-1.1-0.5-1.5s-0.8-0.5-1.4-0.5H-34.3z"/>
	<path d="M-22.7,625.9h5v1.1h-6.5v-10.7h1.4v9.6H-22.7z"/>
	<path d="M-7.8,622.1h-4.9v3.8h5.6v1.1h-7.1v-10.7h7v1.1h-5.6v3.5h4.9L-7.8,622.1L-7.8,622.1z"/>
</g>
<g class="st4">
	<path d="M-77.5,644.6L-77.5,644.6c0,1-0.3,1.9-1,2.6s-1.7,1-2.9,1c-1.2,0-2.2-0.4-2.9-1.3c-0.7-0.9-1.1-1.9-1.1-3.3v-1.9
		c0-1.3,0.4-2.4,1.1-3.3c0.8-0.9,1.7-1.3,2.9-1.3c1.2,0,2.2,0.3,2.9,1c0.7,0.6,1.1,1.5,1,2.6l0,0h-1.4c0-0.7-0.2-1.3-0.7-1.8
		c-0.4-0.4-1.1-0.7-1.9-0.7s-1.4,0.3-1.9,1c-0.5,0.6-0.7,1.5-0.7,2.4v1.9c0,1,0.2,1.8,0.7,2.4s1.1,1,1.9,1s1.4-0.2,1.9-0.6
		c0.4-0.4,0.7-1,0.7-1.8L-77.5,644.6L-77.5,644.6z"/>
	<path d="M-67.8,645.3h-4.5l-1,2.7h-1.5l4.1-10.7h1.2l4.1,10.7h-1.5L-67.8,645.3z M-71.8,644h3.6l-1.8-4.9l0,0L-71.8,644z"/>
	<path d="M-56,645.3c0-0.5-0.2-0.9-0.5-1.2c-0.4-0.3-1-0.6-1.9-0.8c-1.1-0.3-2-0.7-2.6-1.2s-0.9-1.2-0.9-2s0.3-1.5,1-2.1
		s1.6-0.8,2.6-0.8c1.2,0,2.1,0.3,2.8,1c0.7,0.6,1,1.4,1,2.2l0,0h-1.4c0-0.6-0.2-1.1-0.6-1.5c-0.4-0.4-1-0.6-1.8-0.6
		c-0.7,0-1.3,0.2-1.7,0.5s-0.6,0.7-0.6,1.3c0,0.5,0.2,0.9,0.6,1.2s1.1,0.6,2,0.8c1.1,0.3,2,0.7,2.6,1.2s0.9,1.2,0.9,2
		c0,0.9-0.4,1.6-1.1,2.1c-0.7,0.5-1.6,0.8-2.8,0.8c-1.1,0-2-0.3-2.8-0.9s-1.2-1.4-1.2-2.3l0,0h1.4c0,0.7,0.3,1.2,0.8,1.6
		s1.1,0.5,1.9,0.5c0.7,0,1.3-0.2,1.7-0.5C-56.2,646.3-56,645.8-56,645.3z"/>
	<path d="M-42.4,648h-1.4v-4.7H-49v4.7h-1.4v-10.7h1.4v4.8h5.2v-4.8h1.4V648z"/>
</g>
</svg>
