<?xml version="1.0" encoding="utf-8"?>
<!-- Generator: Adobe Illustrator 19.1.1, SVG Export Plug-In . SVG Version: 6.00 Build 0)  -->
<svg version="1.1" id="Layer_1" xmlns="http://www.w3.org/2000/svg" xmlns:xlink="http://www.w3.org/1999/xlink" x="0px" y="0px"
	 viewBox="-193 442 252 253" style="enable-background:new -193 442 252 253;" xml:space="preserve">
<style type="text/css">
	.st0{fill:#DF4148;}
	.st1{fill:#D9D9D9;}
	.st2{fill:none;stroke:#CFCFCF;stroke-miterlimit:10;}
	.st3{enable-background:new    ;}
	.st4{fill:#FFFFFF;}
</style>
<g>
	<g>
		<path class="st0" d="M-67,461c18.6,0,36.2,4.8,51.4,13.2l9.5-16.4C-24.1,447.7-44.9,442-67,442s-42.8,5.7-60.8,15.6l9.4,16.5
			C-103.2,465.7-85.7,461-67,461z"/>
	</g>
	<g>
		<path class="st1" d="M-2,460.1l-9.5,16.4C19.4,495.2,40,529.2,40,568c0,59.1-47.9,107-107,107s-107-47.9-107-107
			c0-38.8,20.6-72.7,51.5-91.5l-9.4-16.5c-36.6,22-61.1,62.1-61.1,108c0,69.6,56.4,126,126,126S59,637.6,59,568
			C59,522.2,34.5,482.1-2,460.1z"/>
	</g>
</g>
<line class="st2" x1="-153.2" y1="596.7" x2="19.5" y2="596.7"/>
<g class="st3">
	<path d="M-82.5,643.6L-82.5,643.6c0,1-0.3,1.9-1,2.6c-0.7,0.7-1.7,1-2.9,1c-1.2,0-2.2-0.4-2.9-1.3s-1.1-1.9-1.1-3.3v-1.9
		c0-1.3,0.4-2.4,1.1-3.3c0.8-0.9,1.7-1.3,2.9-1.3s2.2,0.3,2.9,1c0.7,0.6,1.1,1.5,1,2.6l0,0h-1.4c0-0.7-0.2-1.3-0.7-1.8
		c-0.4-0.4-1.1-0.7-1.9-0.7c-0.8,0-1.4,0.3-1.9,1c-0.5,0.6-0.7,1.5-0.7,2.4v1.9c0,1,0.2,1.8,0.7,2.4c0.5,0.6,1.1,1,1.9,1
		c0.8,0,1.4-0.2,1.9-0.6c0.4-0.4,0.7-1,0.7-1.8H-82.5z"/>
	<path d="M-72.8,644.3h-4.5l-1,2.7h-1.5l4.1-10.7h1.2l4.1,10.7h-1.5L-72.8,644.3z M-76.8,643h3.6l-1.8-4.9h0L-76.8,643z"/>
	<path d="M-61,644.3c0-0.5-0.2-0.9-0.5-1.2c-0.4-0.3-1-0.6-1.9-0.8c-1.1-0.3-2-0.7-2.6-1.2c-0.6-0.5-0.9-1.2-0.9-2
		c0-0.8,0.3-1.5,1-2.1c0.7-0.6,1.6-0.8,2.6-0.8c1.2,0,2.1,0.3,2.8,1c0.7,0.6,1,1.4,1,2.2l0,0h-1.4c0-0.6-0.2-1.1-0.6-1.5
		c-0.4-0.4-1-0.6-1.8-0.6c-0.7,0-1.3,0.2-1.7,0.5c-0.4,0.3-0.6,0.7-0.6,1.3c0,0.5,0.2,0.9,0.6,1.2c0.4,0.3,1.1,0.6,2,0.8
		c1.1,0.3,2,0.7,2.6,1.2s0.9,1.2,0.9,2c0,0.9-0.4,1.6-1.1,2.1s-1.6,0.8-2.8,0.8c-1.1,0-2-0.3-2.8-0.9c-0.8-0.6-1.2-1.4-1.2-2.3l0,0
		h1.4c0,0.7,0.3,1.2,0.8,1.6s1.1,0.5,1.9,0.5c0.7,0,1.3-0.2,1.7-0.5S-61,644.8-61,644.3z"/>
	<path d="M-47.4,647h-1.4v-4.7H-54v4.7h-1.4v-10.7h1.4v4.8h5.2v-4.8h1.4V647z"/>
</g>
<g>
	<g>
		<path class="st4" d="M-92.7,456L-92.7,456c0.2,1.1,0.1,2-0.5,2.7c-0.5,0.8-1.4,1.3-2.6,1.5c-1.2,0.3-2.2,0.1-3.2-0.4
			c-0.9-0.6-1.6-1.4-1.9-2.6c-0.2-0.8-0.3-1.1-0.5-1.9c-0.3-1.2-0.2-2.2,0.4-3.2s1.5-1.6,2.7-1.8c1.3-0.3,2.4-0.2,3.3,0.3
			s1.4,1.2,1.6,2.3l0,0c-0.8,0.2-1.2,0.2-2,0.4c-0.1-0.6-0.4-1.1-0.8-1.4c-0.4-0.3-1-0.3-1.7-0.2c-0.6,0.1-1.1,0.5-1.3,1.1
			c-0.3,0.6-0.3,1.2-0.1,1.9c0.2,0.8,0.3,1.2,0.5,1.9c0.2,0.7,0.5,1.3,1,1.7c0.5,0.4,1,0.5,1.7,0.4c0.6-0.1,1.1-0.4,1.3-0.8
			c0.2-0.4,0.3-0.9,0.1-1.6C-93.9,456.2-93.5,456.2-92.7,456z"/>
		<path class="st4" d="M-90.3,455.2c-0.2-1.1,0-2,0.5-2.8c0.5-0.8,1.4-1.3,2.5-1.5c1.2-0.2,2.1,0,2.9,0.7c0.7,0.6,1.2,1.5,1.3,2.6
			c0,0.1,0,0.1,0,0.1c0.1,1.1-0.1,2-0.6,2.8c-0.5,0.8-1.3,1.2-2.4,1.4s-2,0-2.7-0.6s-1.2-1.4-1.4-2.5
			C-90.3,455.3-90.3,455.2-90.3,455.2z M-88.3,455c0.1,0.7,0.3,1.2,0.6,1.5s0.7,0.5,1.3,0.4c0.5-0.1,0.9-0.3,1.1-0.8
			c0.2-0.4,0.2-1,0.1-1.7c0-0.1,0-0.1,0-0.1c-0.1-0.6-0.3-1.2-0.6-1.5c-0.3-0.4-0.7-0.5-1.3-0.4c-0.5,0.1-0.9,0.4-1.1,0.8
			c-0.2,0.5-0.2,1-0.1,1.6C-88.3,454.9-88.3,454.9-88.3,455z"/>
		<path class="st4" d="M-78.8,448.2c-0.9,0.1-1.3,0.1-2.1,0.2c-0.1-0.6-0.1-0.9-0.2-1.5c0.9-0.1,1.3-0.1,2.2-0.2
			C-78.8,447.3-78.8,447.6-78.8,448.2z M-77.9,457.3c-0.8,0.1-1.2,0.1-2,0.2c-0.3-2.9-0.5-4.4-0.8-7.4c0.8-0.1,1.3-0.1,2.1-0.2
			C-78.3,452.9-78.2,454.4-77.9,457.3z"/>
		<path class="st4" d="M-73.4,449.6c0.1,0.4,0.1,0.6,0.2,1.1c0.2-0.4,0.5-0.7,0.9-0.9c0.4-0.2,0.8-0.4,1.3-0.4
			c0.8,0,1.4,0.2,1.9,0.6c0.5,0.5,0.7,1.2,0.7,2.2c0,1.8,0.1,2.8,0.1,4.6c-0.8,0-1.2,0-2,0.1c-0.1-1.8-0.1-2.8-0.2-4.6
			c0-0.5-0.1-0.8-0.4-1c-0.2-0.2-0.5-0.3-1-0.3c-0.3,0-0.5,0.1-0.7,0.2c-0.2,0.1-0.4,0.3-0.5,0.5c0.1,2.1,0.2,3.2,0.3,5.4
			c-0.8,0-1.2,0.1-2,0.1c-0.2-3-0.3-4.4-0.5-7.4C-74.6,449.7-74.2,449.6-73.4,449.6z"/>
		<path class="st4" d="M-55.5,447.2c0.9,0.1,1.3,0.1,2.1,0.2c-0.2,2.8-0.4,4.2-0.6,6.9c-0.1,1-0.5,1.7-1.1,2.2
			c-0.7,0.5-1.5,0.7-2.5,0.7c-1-0.1-1.9-0.4-2.5-0.9s-0.9-1.3-0.8-2.3l0,0c0.8,0,1.2,0,2,0.1c0,0.5,0.1,0.9,0.3,1.2
			c0.2,0.3,0.6,0.4,1,0.4s0.7-0.1,1-0.4c0.3-0.3,0.4-0.6,0.5-1.1C-55.8,451.3-55.7,450-55.5,447.2z"/>
		<path class="st4" d="M-46.8,458.1c-0.1-0.2-0.1-0.4-0.1-0.6s0-0.4,0-0.6c-0.3,0.3-0.6,0.6-0.9,0.8c-0.4,0.2-0.8,0.3-1.2,0.2
			c-0.8-0.1-1.4-0.4-1.7-0.8s-0.5-1-0.5-1.7c0.1-0.7,0.4-1.3,1-1.6c0.6-0.3,1.5-0.4,2.6-0.3c0.5,0.1,0.7,0.1,1.2,0.2
			c0-0.2,0-0.3,0.1-0.6c0-0.4,0-0.6-0.2-0.9c-0.2-0.2-0.4-0.4-0.8-0.4c-0.3,0-0.6,0-0.8,0.1s-0.3,0.3-0.4,0.6
			c-0.8-0.1-1.2-0.1-2-0.2l0,0c0-0.6,0.4-1.1,1-1.5c0.6-0.4,1.5-0.5,2.5-0.4c0.9,0.1,1.7,0.5,2.2,1s0.7,1.2,0.6,2
			c-0.2,1.2-0.3,1.8-0.5,3c-0.1,0.3-0.1,0.7-0.1,1c0,0.3,0,0.6,0.1,0.9C-45.6,458.3-46,458.2-46.8,458.1z M-48.4,456.5
			c0.4,0,0.7,0,1-0.1s0.5-0.3,0.6-0.5c0.1-0.4,0.1-0.6,0.1-1c-0.5-0.1-0.7-0.1-1.1-0.2c-0.4-0.1-0.8,0-1,0.2
			c-0.2,0.2-0.4,0.4-0.4,0.7c0,0.2,0,0.5,0.2,0.6C-48.9,456.4-48.7,456.5-48.4,456.5z"/>
		<path class="st4" d="M-39,451.9c0,0.4-0.1,0.6-0.1,1c0.3-0.3,0.7-0.5,1.1-0.6c0.4-0.1,0.9-0.1,1.4,0c0.5,0.1,0.9,0.3,1.2,0.6
			c0.3,0.3,0.5,0.6,0.6,1.1c0.3-0.3,0.7-0.6,1.1-0.7c0.4-0.1,0.9-0.1,1.4,0c0.8,0.2,1.3,0.6,1.6,1.2s0.3,1.4,0.1,2.4
			c-0.4,1.7-0.7,2.6-1.1,4.3c-0.8-0.2-1.2-0.3-2-0.5c0.4-1.7,0.6-2.6,1.1-4.4c0.1-0.5,0.1-0.9,0-1.2c-0.1-0.3-0.4-0.4-0.8-0.5
			c-0.3-0.1-0.6-0.1-0.8,0s-0.4,0.2-0.6,0.4c0,0.1,0,0.2,0,0.2c0,0.1,0,0.1,0,0.2c-0.4,1.9-0.6,2.9-1.1,4.8c-0.8-0.2-1.2-0.3-2-0.4
			c0.4-1.8,0.5-2.6,0.9-4.4c0.1-0.5,0.1-0.9,0-1.2c-0.1-0.3-0.4-0.4-0.8-0.5c-0.3-0.1-0.5-0.1-0.8,0c-0.2,0.1-0.4,0.2-0.6,0.3
			c-0.4,2.1-0.6,3.2-1,5.3c-0.8-0.2-1.2-0.2-2-0.4c0.5-2.9,0.8-4.4,1.3-7.3C-40.1,451.7-39.7,451.7-39,451.9z"/>
	</g>
</g>
<g class="st3">
	<path d="M-120.9,622.6L-120.9,622.6c0,1-0.3,1.9-1,2.6c-0.7,0.7-1.7,1-2.9,1c-1.2,0-2.2-0.4-2.9-1.3s-1.1-1.9-1.1-3.3v-1.9
		c0-1.3,0.4-2.4,1.1-3.3c0.8-0.9,1.7-1.3,2.9-1.3s2.2,0.3,2.9,1c0.7,0.6,1.1,1.5,1,2.6l0,0h-1.4c0-0.7-0.2-1.3-0.7-1.8
		c-0.4-0.4-1.1-0.7-1.9-0.7c-0.8,0-1.4,0.3-1.9,1c-0.5,0.6-0.7,1.5-0.7,2.4v1.9c0,1,0.2,1.8,0.7,2.4c0.5,0.6,1.1,1,1.9,1
		c0.8,0,1.4-0.2,1.9-0.6c0.4-0.4,0.7-1,0.7-1.8H-120.9z"/>
	<path d="M-108.9,621.6c0,1.3-0.4,2.4-1.2,3.2c-0.8,0.9-1.9,1.3-3.1,1.3c-1.2,0-2.3-0.4-3-1.3c-0.8-0.9-1.2-1.9-1.2-3.2v-1.9
		c0-1.3,0.4-2.4,1.2-3.2c0.8-0.9,1.8-1.3,3-1.3c1.3,0,2.3,0.4,3.1,1.3c0.8,0.9,1.2,1.9,1.2,3.2V621.6z M-110.3,619.7
		c0-1-0.3-1.8-0.8-2.4s-1.2-0.9-2.1-0.9c-0.8,0-1.5,0.3-2,0.9c-0.5,0.6-0.8,1.4-0.8,2.4v1.9c0,1,0.3,1.8,0.8,2.4
		c0.5,0.6,1.2,0.9,2,0.9c0.9,0,1.6-0.3,2.1-0.9c0.5-0.6,0.8-1.4,0.8-2.4V619.7z"/>
	<path d="M-103.3,624.9h5v1.1h-6.5v-10.7h1.4V624.9z"/>
	<path d="M-93.2,624.9h5v1.1h-6.5v-10.7h1.4V624.9z"/>
	<path d="M-78.2,621.1h-4.9v3.8h5.6v1.1h-7.1v-10.7h7v1.1h-5.6v3.5h4.9V621.1z"/>
	<path d="M-66.2,622.6L-66.2,622.6c0,1-0.3,1.9-1,2.6c-0.7,0.7-1.7,1-2.9,1c-1.2,0-2.2-0.4-2.9-1.3s-1.1-1.9-1.1-3.3v-1.9
		c0-1.3,0.4-2.4,1.1-3.3c0.8-0.9,1.7-1.3,2.9-1.3s2.2,0.3,2.9,1c0.7,0.6,1.1,1.5,1,2.6l0,0h-1.4c0-0.7-0.2-1.3-0.7-1.8
		c-0.4-0.4-1.1-0.7-1.9-0.7c-0.8,0-1.4,0.3-1.9,1c-0.5,0.6-0.7,1.5-0.7,2.4v1.9c0,1,0.2,1.8,0.7,2.4c0.5,0.6,1.1,1,1.9,1
		c0.8,0,1.4-0.2,1.9-0.6c0.4-0.4,0.7-1,0.7-1.8H-66.2z"/>
	<path d="M-55.3,616.5h-3.4v9.5h-1.4v-9.5h-3.4v-1.1h8.3V616.5z"/>
	<path d="M-46.7,623.3h-4.5l-1,2.7h-1.5l4.1-10.7h1.2l4.1,10.7h-1.5L-46.7,623.3z M-50.7,622h3.6l-1.8-4.9h0L-50.7,622z"/>
	<path d="M-40.8,626v-10.7h3.5c1.1,0,2,0.2,2.6,0.7c0.6,0.5,0.9,1.2,0.9,2.2c0,0.5-0.2,0.9-0.5,1.3c-0.3,0.4-0.7,0.7-1.2,0.8
		c0.6,0.1,1.2,0.5,1.5,0.9c0.4,0.5,0.6,1.1,0.6,1.7c0,1-0.3,1.7-0.9,2.2c-0.6,0.5-1.5,0.8-2.6,0.8H-40.8z M-39.3,619.9h2.3
		c0.5,0,1-0.1,1.3-0.4c0.3-0.3,0.5-0.7,0.5-1.2c0-0.6-0.2-1-0.5-1.3c-0.4-0.3-0.9-0.4-1.6-0.4h-2V619.9z M-39.3,621v3.9h2.5
		c0.7,0,1.2-0.2,1.5-0.5c0.4-0.3,0.5-0.8,0.5-1.4c0-0.6-0.2-1.1-0.5-1.5c-0.3-0.4-0.8-0.5-1.4-0.5H-39.3z"/>
	<path d="M-27.7,624.9h5v1.1h-6.5v-10.7h1.4V624.9z"/>
	<path d="M-12.8,621.1h-4.9v3.8h5.6v1.1h-7.1v-10.7h7v1.1h-5.6v3.5h4.9V621.1z"/>
</g>
</svg>
