<?xml version="1.0" encoding="utf-8"?>
<!-- Generator: Adobe Illustrator 19.1.1, SVG Export Plug-In . SVG Version: 6.00 Build 0)  -->
<svg version="1.1" id="Layer_1" xmlns="http://www.w3.org/2000/svg" xmlns:xlink="http://www.w3.org/1999/xlink" x="0px" y="0px"
	 viewBox="-193 442 252 253" style="enable-background:new -193 442 252 253;" xml:space="preserve">
<style type="text/css">
	.st0{fill:#B2B2B2;}
	.st1{fill:#D9D9D9;}
	.st2{fill:none;stroke:#CFCFCF;stroke-miterlimit:10;}
	.st3{enable-background:new    ;}
</style>
<g>
	<g>
		<path class="st0" d="M-67,461c18.6,0,36.2,4.8,51.4,13.2l9.5-16.4C-24.1,447.7-44.9,442-67,442s-42.8,5.7-60.8,15.6l9.4,16.5
			C-103.2,465.7-85.7,461-67,461z"/>
	</g>
	<g>
		<path class="st1" d="M-2,460.1l-9.5,16.4C19.4,495.2,40,529.2,40,568c0,59.1-47.9,107-107,107s-107-47.9-107-107
			c0-38.8,20.6-72.7,51.5-91.5l-9.4-16.5c-36.6,22-61.1,62.1-61.1,108c0,69.6,56.4,126,126,126S59,637.6,59,568
			C59,522.2,34.5,482.1-2,460.1z"/>
	</g>
</g>
<g>
	<g>
		<path d="M-82.6,453.1c0.2,1.1-0.1,2.1-0.7,2.9s-1.5,1.3-2.6,1.5s-2.1,0-3-0.6s-1.4-1.4-1.6-2.5c-0.1-0.7-0.2-1-0.3-1.6
			c-0.2-1.1,0-2.1,0.6-3c0.6-0.9,1.5-1.4,2.8-1.6c1.2-0.2,2.3,0,3.2,0.6c0.9,0.6,1.4,1.5,1.5,2.6C-82.8,452.1-82.7,452.4-82.6,453.1
			z M-84.8,451.7c-0.1-0.7-0.4-1.3-0.8-1.7c-0.5-0.4-1-0.5-1.7-0.4s-1.2,0.4-1.4,1c-0.3,0.5-0.4,1.1-0.2,1.8c0.1,0.7,0.2,1,0.3,1.6
			c0.1,0.7,0.4,1.3,0.9,1.7c0.4,0.4,1,0.5,1.6,0.4s1.1-0.4,1.4-0.9s0.4-1.1,0.3-1.9C-84.6,452.7-84.7,452.3-84.8,451.7z"/>
		<path d="M-79,456.4c-0.2-2.2-0.4-3.3-0.6-5.5c-0.4,0-0.6,0.1-1.1,0.1c-0.1-0.5-0.1-0.8-0.2-1.3c0.4-0.1,0.7-0.1,1.1-0.1
			c0-0.3,0-0.5-0.1-0.8c-0.1-0.8,0.1-1.4,0.5-1.8c0.4-0.5,1.1-0.7,2-0.8c0.2,0,0.3,0,0.5,0s0.4,0,0.6,0.1c0,0.6,0,0.8-0.1,1.4
			c-0.1,0-0.2,0-0.3,0c-0.1,0-0.2,0-0.4,0c-0.3,0-0.6,0.1-0.7,0.3c-0.2,0.2-0.2,0.4-0.2,0.7c0,0.3,0,0.5,0.1,0.8
			c0.6-0.1,0.9-0.1,1.5-0.1c0,0.5,0.1,0.8,0.1,1.3c-0.6,0-0.9,0.1-1.4,0.1c0.2,2.2,0.3,3.3,0.5,5.5C-77.9,456.3-78.3,456.3-79,456.4
			z"/>
		<path d="M-73.1,455.9c-0.1-2.2-0.2-3.3-0.3-5.6c-0.4,0-0.6,0-1.1,0.1c0-0.5-0.1-0.8-0.1-1.3c0.4,0,0.7,0,1.1-0.1
			c0-0.3,0-0.5,0-0.8c0-0.8,0.2-1.4,0.6-1.8c0.5-0.4,1.1-0.7,2-0.7c0.2,0,0.3,0,0.5,0s0.4,0,0.6,0.1c-0.1,0.6-0.1,0.8-0.1,1.4
			c-0.1,0-0.2,0-0.3,0c-0.1,0-0.2,0-0.4,0c-0.3,0-0.6,0.1-0.7,0.3s-0.2,0.4-0.2,0.7c0,0.3,0,0.5,0,0.8c0.6,0,0.9,0,1.5,0
			c0,0.5,0,0.8,0,1.3c-0.6,0-0.9,0-1.4,0c0.1,2.2,0.1,3.3,0.2,5.6C-71.9,455.9-72.3,455.9-73.1,455.9z"/>
		<path d="M-65.6,455.8c-0.7,0-1.1,0-1.9,0c0-4,0-5.9-0.1-9.9c0.8,0,1.2,0,2,0C-65.6,449.8-65.6,451.8-65.6,455.8z"/>
		<path d="M-60.4,447.4c-0.8,0-1.2-0.1-2-0.1c0-0.6,0-0.8,0-1.4c0.8,0,1.2,0,2,0.1C-60.3,446.6-60.3,446.9-60.4,447.4z M-60.8,455.9
			c-0.7,0-1.1-0.1-1.9-0.1c0.1-2.7,0.1-4.1,0.2-6.9c0.8,0,1.2,0,2,0.1C-60.6,451.8-60.7,453.2-60.8,455.9z"/>
		<path d="M-55.6,449.4c0,0.4,0,0.6,0,1c0.3-0.3,0.6-0.6,1-0.7c0.4-0.2,0.8-0.2,1.2-0.2c0.7,0.1,1.3,0.4,1.6,0.9
			c0.4,0.5,0.5,1.2,0.4,2.1c-0.2,1.7-0.3,2.6-0.6,4.3c-0.7-0.1-1.1-0.1-1.9-0.2c0.2-1.7,0.3-2.6,0.5-4.3c0.1-0.5,0-0.8-0.2-1
			c-0.2-0.2-0.5-0.3-0.9-0.4c-0.3,0-0.5,0-0.7,0.1s-0.4,0.2-0.6,0.4c-0.2,2-0.3,3-0.5,5c-0.7-0.1-1.1-0.1-1.9-0.2
			c0.2-2.7,0.3-4.1,0.5-6.8C-56.7,449.3-56.4,449.3-55.6,449.4z"/>
		<path d="M-46.3,457.7c-1-0.2-1.7-0.6-2.2-1.3c-0.5-0.7-0.7-1.6-0.5-2.5c0-0.1,0-0.2,0-0.3c0.2-1,0.6-1.8,1.3-2.4
			c0.7-0.6,1.5-0.7,2.5-0.6c1,0.2,1.7,0.6,2.1,1.3c0.4,0.7,0.5,1.5,0.3,2.4c-0.1,0.4-0.1,0.6-0.2,1c-1.7-0.3-2.5-0.5-4.2-0.8l0,0
			c0,0.5,0.1,0.8,0.3,1.2c0.2,0.3,0.6,0.5,1,0.6c0.4,0.1,0.8,0.1,1.1,0.1s0.6-0.1,1-0.2c0.1,0.5,0.2,0.7,0.3,1.2
			c-0.3,0.2-0.7,0.3-1.2,0.3C-45.3,457.8-45.8,457.8-46.3,457.7z M-45.5,452.1c-0.4-0.1-0.7,0-0.9,0.2c-0.3,0.2-0.4,0.5-0.6,1l0,0
			c0.9,0.2,1.4,0.2,2.3,0.4c0-0.1,0-0.1,0-0.2c0.1-0.4,0-0.7-0.1-1C-44.8,452.3-45.1,452.2-45.5,452.1z"/>
	</g>
</g>
<line class="st2" x1="-153.2" y1="596.7" x2="19.5" y2="596.7"/>
<g class="st3">
	<path d="M-82.5,643.6L-82.5,643.6c0,1-0.3,1.9-1,2.6c-0.7,0.7-1.7,1-2.9,1c-1.2,0-2.2-0.4-2.9-1.3s-1.1-1.9-1.1-3.3v-1.9
		c0-1.3,0.4-2.4,1.1-3.3c0.8-0.9,1.7-1.3,2.9-1.3s2.2,0.3,2.9,1c0.7,0.6,1.1,1.5,1,2.6l0,0h-1.4c0-0.7-0.2-1.3-0.7-1.8
		c-0.4-0.4-1.1-0.7-1.9-0.7c-0.8,0-1.4,0.3-1.9,1c-0.5,0.6-0.7,1.5-0.7,2.4v1.9c0,1,0.2,1.8,0.7,2.4c0.5,0.6,1.1,1,1.9,1
		c0.8,0,1.4-0.2,1.9-0.6c0.4-0.4,0.7-1,0.7-1.8H-82.5z"/>
	<path d="M-72.8,644.3h-4.5l-1,2.7h-1.5l4.1-10.7h1.2l4.1,10.7h-1.5L-72.8,644.3z M-76.8,643h3.6l-1.8-4.9h0L-76.8,643z"/>
	<path d="M-61,644.3c0-0.5-0.2-0.9-0.5-1.2c-0.4-0.3-1-0.6-1.9-0.8c-1.1-0.3-2-0.7-2.6-1.2s-0.9-1.2-0.9-2c0-0.8,0.3-1.5,1-2.1
		c0.7-0.6,1.6-0.8,2.6-0.8c1.2,0,2.1,0.3,2.8,1c0.7,0.6,1,1.4,1,2.2l0,0h-1.4c0-0.6-0.2-1.1-0.6-1.5c-0.4-0.4-1-0.6-1.8-0.6
		c-0.7,0-1.3,0.2-1.7,0.5c-0.4,0.3-0.6,0.7-0.6,1.3c0,0.5,0.2,0.9,0.6,1.2c0.4,0.3,1.1,0.6,2,0.8c1.1,0.3,2,0.7,2.6,1.2
		s0.9,1.2,0.9,2c0,0.9-0.4,1.6-1.1,2.1s-1.6,0.8-2.8,0.8c-1.1,0-2-0.3-2.8-0.9c-0.8-0.6-1.2-1.4-1.2-2.3l0,0h1.4
		c0,0.7,0.3,1.2,0.8,1.6s1.1,0.5,1.9,0.5c0.7,0,1.3-0.2,1.7-0.5S-61,644.8-61,644.3z"/>
	<path d="M-47.4,647h-1.4v-4.7H-54v4.7h-1.4v-10.7h1.4v4.8h5.2v-4.8h1.4V647z"/>
</g>
<g class="st3">
	<path d="M-121.9,622.6L-121.9,622.6c0,1-0.3,1.9-1,2.6c-0.7,0.7-1.7,1-2.9,1c-1.2,0-2.2-0.4-2.9-1.3s-1.1-1.9-1.1-3.3v-1.9
		c0-1.3,0.4-2.4,1.1-3.3c0.8-0.9,1.7-1.3,2.9-1.3s2.2,0.3,2.9,1c0.7,0.6,1.1,1.5,1,2.6l0,0h-1.4c0-0.7-0.2-1.3-0.7-1.8
		c-0.4-0.4-1.1-0.7-1.9-0.7c-0.8,0-1.4,0.3-1.9,1c-0.5,0.6-0.7,1.5-0.7,2.4v1.9c0,1,0.2,1.8,0.7,2.4c0.5,0.6,1.1,1,1.9,1
		c0.8,0,1.4-0.2,1.9-0.6c0.4-0.4,0.7-1,0.7-1.8H-121.9z"/>
	<path d="M-109.9,621.6c0,1.3-0.4,2.4-1.2,3.2c-0.8,0.9-1.9,1.3-3.1,1.3c-1.2,0-2.3-0.4-3-1.3c-0.8-0.9-1.2-1.9-1.2-3.2v-1.9
		c0-1.3,0.4-2.4,1.2-3.2c0.8-0.9,1.8-1.3,3-1.3c1.3,0,2.3,0.4,3.1,1.3c0.8,0.9,1.2,1.9,1.2,3.2V621.6z M-111.3,619.7
		c0-1-0.3-1.8-0.8-2.4s-1.2-0.9-2.1-0.9c-0.8,0-1.5,0.3-2,0.9c-0.5,0.6-0.8,1.4-0.8,2.4v1.9c0,1,0.3,1.8,0.8,2.4
		c0.5,0.6,1.2,0.9,2,0.9c0.9,0,1.6-0.3,2.1-0.9c0.5-0.6,0.8-1.4,0.8-2.4V619.7z"/>
	<path d="M-104.3,624.9h5v1.1h-6.5v-10.7h1.4V624.9z"/>
	<path d="M-94.2,624.9h5v1.1h-6.5v-10.7h1.4V624.9z"/>
	<path d="M-79.2,621.1h-4.9v3.8h5.6v1.1h-7.1v-10.7h7v1.1h-5.6v3.5h4.9V621.1z"/>
	<path d="M-67.2,622.6L-67.2,622.6c0,1-0.3,1.9-1,2.6c-0.7,0.7-1.7,1-2.9,1c-1.2,0-2.2-0.4-2.9-1.3s-1.1-1.9-1.1-3.3v-1.9
		c0-1.3,0.4-2.4,1.1-3.3c0.8-0.9,1.7-1.3,2.9-1.3s2.2,0.3,2.9,1c0.7,0.6,1.1,1.5,1,2.6l0,0h-1.4c0-0.7-0.2-1.3-0.7-1.8
		c-0.4-0.4-1.1-0.7-1.9-0.7c-0.8,0-1.4,0.3-1.9,1c-0.5,0.6-0.7,1.5-0.7,2.4v1.9c0,1,0.2,1.8,0.7,2.4c0.5,0.6,1.1,1,1.9,1
		c0.8,0,1.4-0.2,1.9-0.6c0.4-0.4,0.7-1,0.7-1.8H-67.2z"/>
	<path d="M-56.3,616.5h-3.4v9.5h-1.4v-9.5h-3.4v-1.1h8.3V616.5z"/>
	<path d="M-47.7,623.3h-4.5l-1,2.7h-1.5l4.1-10.7h1.2l4.1,10.7h-1.5L-47.7,623.3z M-51.7,622h3.6l-1.8-4.9h0L-51.7,622z"/>
	<path d="M-41.8,626v-10.7h3.5c1.1,0,2,0.2,2.6,0.7c0.6,0.5,0.9,1.2,0.9,2.2c0,0.5-0.2,0.9-0.5,1.3c-0.3,0.4-0.7,0.7-1.2,0.8
		c0.6,0.1,1.2,0.5,1.5,0.9c0.4,0.5,0.6,1.1,0.6,1.7c0,1-0.3,1.7-0.9,2.2c-0.6,0.5-1.5,0.8-2.6,0.8H-41.8z M-40.3,619.9h2.3
		c0.5,0,1-0.1,1.3-0.4c0.3-0.3,0.5-0.7,0.5-1.2c0-0.6-0.2-1-0.5-1.3c-0.4-0.3-0.9-0.4-1.6-0.4h-2V619.9z M-40.3,621v3.9h2.5
		c0.7,0,1.2-0.2,1.5-0.5c0.4-0.3,0.5-0.8,0.5-1.4c0-0.6-0.2-1.1-0.5-1.5c-0.3-0.4-0.8-0.5-1.4-0.5H-40.3z"/>
	<path d="M-28.7,624.9h5v1.1h-6.5v-10.7h1.4V624.9z"/>
	<path d="M-13.8,621.1h-4.9v3.8h5.6v1.1h-7.1v-10.7h7v1.1h-5.6v3.5h4.9V621.1z"/>
</g>
</svg>
