<?xml version="1.0" encoding="utf-8"?>
<!-- Generator: Adobe Illustrator 19.1.1, SVG Export Plug-In . SVG Version: 6.00 Build 0)  -->
<svg version="1.1" id="Layer_1" xmlns="http://www.w3.org/2000/svg" xmlns:xlink="http://www.w3.org/1999/xlink" x="0px" y="0px"
	 viewBox="-193 443 252 252" style="enable-background:new -193 443 252 252;" xml:space="preserve">
<style type="text/css">
	.st0{fill:#E38842;}
	.st1{fill:#D9D9D9;}
	.st2{fill:none;stroke:#CFCFCF;stroke-miterlimit:10;}
	.st3{enable-background:new    ;}
	.st4{fill:#FFFFFF;}
</style>
<g>
	<g>
		<path class="st0" d="M-67,462c18.6,0,36.2,4.8,51.4,13.2l9.5-16.4C-24.1,448.7-44.9,443-67,443s-42.8,5.7-60.8,15.6l9.4,16.5
			C-103.2,466.7-85.7,462-67,462z"/>
	</g>
	<g>
		<path class="st1" d="M-2,461.1l-9.5,16.4C19.4,496.2,40,530.2,40,569c0,59.1-47.9,107-107,107s-107-47.9-107-107
			c0-38.8,20.6-72.7,51.5-91.5l-9.4-16.5c-36.6,22-61.1,62.1-61.1,108c0,69.6,56.4,126,126,126S59,638.6,59,569
			C59,523.2,34.5,483.1-2,461.1z"/>
	</g>
</g>
<line class="st2" x1="-153.2" y1="597.7" x2="19.5" y2="597.7"/>
<g class="st3">
	<path d="M-82.5,644.6L-82.5,644.6c0,1-0.3,1.9-1,2.6c-0.7,0.7-1.7,1-2.9,1c-1.2,0-2.2-0.4-2.9-1.3s-1.1-1.9-1.1-3.3v-1.9
		c0-1.3,0.4-2.4,1.1-3.3c0.8-0.9,1.7-1.3,2.9-1.3s2.2,0.3,2.9,1c0.7,0.6,1.1,1.5,1,2.6l0,0h-1.4c0-0.7-0.2-1.3-0.7-1.8
		c-0.4-0.4-1.1-0.7-1.9-0.7c-0.8,0-1.4,0.3-1.9,1c-0.5,0.6-0.7,1.5-0.7,2.4v1.9c0,1,0.2,1.8,0.7,2.4c0.5,0.6,1.1,1,1.9,1
		c0.8,0,1.4-0.2,1.9-0.6c0.4-0.4,0.7-1,0.7-1.8H-82.5z"/>
	<path d="M-72.8,645.3h-4.5l-1,2.7h-1.5l4.1-10.7h1.2l4.1,10.7h-1.5L-72.8,645.3z M-76.8,644h3.6l-1.8-4.9h0L-76.8,644z"/>
	<path d="M-61,645.3c0-0.5-0.2-0.9-0.5-1.2c-0.4-0.3-1-0.6-1.9-0.8c-1.1-0.3-2-0.7-2.6-1.2c-0.6-0.5-0.9-1.2-0.9-2
		c0-0.8,0.3-1.5,1-2.1c0.7-0.6,1.6-0.8,2.6-0.8c1.2,0,2.1,0.3,2.8,1c0.7,0.6,1,1.4,1,2.2l0,0h-1.4c0-0.6-0.2-1.1-0.6-1.5
		c-0.4-0.4-1-0.6-1.8-0.6c-0.7,0-1.3,0.2-1.7,0.5c-0.4,0.3-0.6,0.7-0.6,1.3c0,0.5,0.2,0.9,0.6,1.2c0.4,0.3,1.1,0.6,2,0.8
		c1.1,0.3,2,0.7,2.6,1.2s0.9,1.2,0.9,2c0,0.9-0.4,1.6-1.1,2.1s-1.6,0.8-2.8,0.8c-1.1,0-2-0.3-2.8-0.9c-0.8-0.6-1.2-1.4-1.2-2.3l0,0
		h1.4c0,0.7,0.3,1.2,0.8,1.6s1.1,0.5,1.9,0.5c0.7,0,1.3-0.2,1.7-0.5S-61,645.8-61,645.3z"/>
	<path d="M-47.4,648h-1.4v-4.7H-54v4.7h-1.4v-10.7h1.4v4.8h5.2v-4.8h1.4V648z"/>
</g>
<g class="st3">
	<path d="M-120.9,623.6L-120.9,623.6c0,1-0.3,1.9-1,2.6c-0.7,0.7-1.7,1-2.9,1c-1.2,0-2.2-0.4-2.9-1.3s-1.1-1.9-1.1-3.3v-1.9
		c0-1.3,0.4-2.4,1.1-3.3c0.8-0.9,1.7-1.3,2.9-1.3s2.2,0.3,2.9,1c0.7,0.6,1.1,1.5,1,2.6l0,0h-1.4c0-0.7-0.2-1.3-0.7-1.8
		c-0.4-0.4-1.1-0.7-1.9-0.7c-0.8,0-1.4,0.3-1.9,1c-0.5,0.6-0.7,1.5-0.7,2.4v1.9c0,1,0.2,1.8,0.7,2.4c0.5,0.6,1.1,1,1.9,1
		c0.8,0,1.4-0.2,1.9-0.6c0.4-0.4,0.7-1,0.7-1.8H-120.9z"/>
	<path d="M-108.9,622.6c0,1.3-0.4,2.4-1.2,3.2c-0.8,0.9-1.9,1.3-3.1,1.3c-1.2,0-2.3-0.4-3-1.3c-0.8-0.9-1.2-1.9-1.2-3.2v-1.9
		c0-1.3,0.4-2.4,1.2-3.2c0.8-0.9,1.8-1.3,3-1.3c1.3,0,2.3,0.4,3.1,1.3c0.8,0.9,1.2,1.9,1.2,3.2V622.6z M-110.3,620.7
		c0-1-0.3-1.8-0.8-2.4s-1.2-0.9-2.1-0.9c-0.8,0-1.5,0.3-2,0.9c-0.5,0.6-0.8,1.4-0.8,2.4v1.9c0,1,0.3,1.8,0.8,2.4
		c0.5,0.6,1.2,0.9,2,0.9c0.9,0,1.6-0.3,2.1-0.9c0.5-0.6,0.8-1.4,0.8-2.4V620.7z"/>
	<path d="M-103.3,625.9h5v1.1h-6.5v-10.7h1.4V625.9z"/>
	<path d="M-93.2,625.9h5v1.1h-6.5v-10.7h1.4V625.9z"/>
	<path d="M-78.2,622.1h-4.9v3.8h5.6v1.1h-7.1v-10.7h7v1.1h-5.6v3.5h4.9V622.1z"/>
	<path d="M-66.2,623.6L-66.2,623.6c0,1-0.3,1.9-1,2.6c-0.7,0.7-1.7,1-2.9,1c-1.2,0-2.2-0.4-2.9-1.3s-1.1-1.9-1.1-3.3v-1.9
		c0-1.3,0.4-2.4,1.1-3.3c0.8-0.9,1.7-1.3,2.9-1.3s2.2,0.3,2.9,1c0.7,0.6,1.1,1.5,1,2.6l0,0h-1.4c0-0.7-0.2-1.3-0.7-1.8
		c-0.4-0.4-1.1-0.7-1.9-0.7c-0.8,0-1.4,0.3-1.9,1c-0.5,0.6-0.7,1.5-0.7,2.4v1.9c0,1,0.2,1.8,0.7,2.4c0.5,0.6,1.1,1,1.9,1
		c0.8,0,1.4-0.2,1.9-0.6c0.4-0.4,0.7-1,0.7-1.8H-66.2z"/>
	<path d="M-55.3,617.5h-3.4v9.5h-1.4v-9.5h-3.4v-1.1h8.3V617.5z"/>
	<path d="M-46.7,624.3h-4.5l-1,2.7h-1.5l4.1-10.7h1.2l4.1,10.7h-1.5L-46.7,624.3z M-50.7,623h3.6l-1.8-4.9h0L-50.7,623z"/>
	<path d="M-40.8,627v-10.7h3.5c1.1,0,2,0.2,2.6,0.7c0.6,0.5,0.9,1.2,0.9,2.2c0,0.5-0.2,0.9-0.5,1.3c-0.3,0.4-0.7,0.7-1.2,0.8
		c0.6,0.1,1.2,0.5,1.5,0.9c0.4,0.5,0.6,1.1,0.6,1.7c0,1-0.3,1.7-0.9,2.2c-0.6,0.5-1.5,0.8-2.6,0.8H-40.8z M-39.3,620.9h2.3
		c0.5,0,1-0.1,1.3-0.4c0.3-0.3,0.5-0.7,0.5-1.2c0-0.6-0.2-1-0.5-1.3c-0.4-0.3-0.9-0.4-1.6-0.4h-2V620.9z M-39.3,622v3.9h2.5
		c0.7,0,1.2-0.2,1.5-0.5c0.4-0.3,0.5-0.8,0.5-1.4c0-0.6-0.2-1.1-0.5-1.5c-0.3-0.4-0.8-0.5-1.4-0.5H-39.3z"/>
	<path d="M-27.7,625.9h5v1.1h-6.5v-10.7h1.4V625.9z"/>
	<path d="M-12.8,622.1h-4.9v3.8h5.6v1.1h-7.1v-10.7h7v1.1h-5.6v3.5h4.9V622.1z"/>
</g>
<g>
	<g>
		<path class="st4" d="M-106.1,459.7C-106,459.7-106,459.7-106.1,459.7c0.4,1,0.4,2-0.1,2.8s-1.3,1.5-2.5,2s-2.3,0.5-3.3,0.2
			c-1-0.4-1.8-1.1-2.3-2.2c-0.3-0.7-0.5-1.1-0.8-1.8c-0.5-1.1-0.5-2.2-0.1-3.2c0.5-1,1.3-1.8,2.6-2.4c1.3-0.5,2.5-0.6,3.5-0.3
			c1,0.3,1.6,1,2,2l0,0c-0.8,0.3-1.2,0.5-2.1,0.8c-0.2-0.6-0.6-1-1-1.2c-0.4-0.2-1.1-0.1-1.8,0.1c-0.6,0.3-1,0.7-1.2,1.3
			c-0.2,0.6-0.1,1.2,0.2,1.9c0.3,0.7,0.5,1.1,0.8,1.8s0.7,1.2,1.3,1.5c0.6,0.3,1.2,0.3,1.8,0c0.6-0.3,1-0.6,1.2-1s0.2-1-0.1-1.6
			C-107.3,460.1-106.9,460-106.1,459.7z"/>
		<path class="st4" d="M-99.2,461c-0.1-0.1-0.2-0.3-0.3-0.5c-0.1-0.2-0.2-0.3-0.3-0.5c-0.1,0.4-0.3,0.8-0.6,1.1
			c-0.3,0.3-0.6,0.6-1.1,0.7c-0.8,0.3-1.4,0.3-2,0c-0.6-0.3-0.9-0.7-1.2-1.3c-0.2-0.7-0.1-1.3,0.3-1.9c0.5-0.6,1.2-1.1,2.4-1.4
			c0.5-0.1,0.7-0.2,1.2-0.4c-0.1-0.2-0.1-0.3-0.2-0.6c-0.1-0.3-0.3-0.6-0.5-0.7c-0.3-0.1-0.6-0.1-1,0c-0.3,0.1-0.6,0.3-0.7,0.5
			s-0.2,0.4-0.1,0.7c-0.8,0.3-1.2,0.4-2,0.7l0,0c-0.2-0.6-0.1-1.2,0.3-1.8c0.5-0.6,1.2-1.1,2.2-1.4c1-0.3,1.8-0.3,2.5-0.1
			c0.7,0.3,1.2,0.8,1.4,1.6c0.3,1.2,0.5,1.8,0.8,2.9c0.1,0.3,0.2,0.6,0.4,0.9c0.1,0.3,0.3,0.5,0.5,0.8
			C-98,460.6-98.4,460.7-99.2,461z M-101.5,460.3c0.4-0.1,0.7-0.3,0.9-0.6c0.2-0.3,0.4-0.5,0.4-0.8c-0.1-0.4-0.2-0.6-0.3-1
			c-0.5,0.1-0.7,0.2-1.2,0.4c-0.4,0.1-0.7,0.4-0.9,0.6c-0.2,0.3-0.2,0.6-0.1,0.8c0.1,0.2,0.2,0.4,0.4,0.5
			C-102,460.4-101.8,460.4-101.5,460.3z"/>
		<path class="st4" d="M-92.4,457c0-0.2-0.2-0.4-0.5-0.5s-0.7-0.1-1.3-0.1c-1,0-1.7,0-2.3-0.2c-0.5-0.2-0.9-0.6-1-1.2
			c-0.2-0.6,0-1.2,0.4-1.8c0.5-0.6,1.2-1,2.2-1.2c1-0.3,1.9-0.2,2.6,0.1c0.7,0.3,1.1,0.8,1.2,1.4l0,0c-0.8,0.2-1.2,0.3-2.1,0.5
			c-0.1-0.3-0.2-0.5-0.5-0.6c-0.2-0.1-0.6-0.2-1-0.1c-0.4,0.1-0.6,0.2-0.8,0.4c-0.2,0.2-0.2,0.4-0.2,0.6c0.1,0.2,0.2,0.4,0.4,0.5
			c0.2,0.1,0.7,0.1,1.4,0.1c1-0.1,1.8,0,2.3,0.3c0.5,0.2,0.9,0.7,1,1.3c0.1,0.7,0,1.2-0.5,1.8c-0.5,0.6-1.2,0.9-2.2,1.2
			c-1,0.2-1.9,0.2-2.6-0.1c-0.7-0.3-1.2-0.8-1.3-1.4l0,0c0.8-0.2,1.1-0.3,1.9-0.5c0.1,0.4,0.3,0.6,0.6,0.7c0.3,0.1,0.7,0.1,1.1,0
			c0.4-0.1,0.7-0.2,0.8-0.4C-92.4,457.5-92.3,457.3-92.4,457z"/>
		<path class="st4" d="M-87.7,451.6c0.2-0.4,0.5-0.7,0.8-0.9c0.3-0.3,0.7-0.4,1.2-0.5c0.9-0.1,1.6,0,2.1,0.5
			c0.6,0.4,0.9,1.2,1.1,2.3c0.2,1.7,0.4,2.6,0.6,4.3c-0.8,0.1-1.2,0.2-2.1,0.3c-0.3-1.7-0.4-2.6-0.7-4.4c-0.1-0.6-0.3-1-0.5-1.2
			c-0.3-0.2-0.6-0.3-1-0.2c-0.3,0.1-0.6,0.1-0.8,0.3c-0.2,0.1-0.4,0.3-0.5,0.5c0.4,2.1,0.6,3.2,1,5.3c-0.8,0.1-1.2,0.2-2.1,0.4
			c-0.8-4.2-1.3-6.3-2.1-10.5c0.9-0.2,1.4-0.3,2.3-0.4C-88.1,449.1-88,449.9-87.7,451.6z"/>
		<path class="st4" d="M-73.6,452.9c0.1,1.1-0.1,2-0.6,2.7c-0.5,0.7-1.2,1.1-2.2,1.2c-0.4,0-0.8,0-1.2-0.2c-0.4-0.1-0.7-0.4-0.9-0.7
			c0,0.4,0,0.6-0.1,0.9c-0.7,0.1-1.1,0.1-1.8,0.2c-0.5-4.2-0.8-6.4-1.3-10.6c0.9-0.1,1.4-0.2,2.3-0.3c0.2,1.6,0.3,2.4,0.4,4
			c0.2-0.3,0.5-0.6,0.8-0.8c0.3-0.2,0.7-0.3,1.1-0.3c1-0.1,1.9,0.2,2.5,0.9c0.6,0.7,0.9,1.6,1,2.8
			C-73.6,452.8-73.6,452.8-73.6,452.9z M-75.7,452.9c-0.1-0.7-0.2-1.3-0.5-1.7c-0.3-0.4-0.7-0.6-1.2-0.5c-0.3,0-0.6,0.1-0.8,0.3
			c-0.2,0.2-0.4,0.4-0.5,0.6c0.1,1.3,0.2,1.9,0.3,3.1c0.2,0.2,0.4,0.4,0.6,0.5c0.2,0.1,0.5,0.1,0.9,0.1c0.5,0,0.9-0.3,1.1-0.6
			c0.2-0.4,0.3-0.9,0.2-1.6C-75.7,453-75.7,452.9-75.7,452.9z"/>
		<path class="st4" d="M-72.6,452.5c-0.1-1.1,0.2-2,0.9-2.8c0.7-0.7,1.6-1.1,2.8-1.1c1.2,0,2.2,0.3,2.9,1c0.7,0.7,1,1.6,1,2.7
			c0,0.1,0,0.1,0,0.1c0,1.1-0.4,2-1,2.7c-0.7,0.7-1.6,1-2.7,1.1c-1.1,0-2.1-0.3-2.7-1c-0.7-0.7-1.1-1.6-1.1-2.7
			C-72.6,452.6-72.6,452.6-72.6,452.5z M-70.4,452.6c0,0.7,0.2,1.2,0.4,1.6c0.3,0.4,0.7,0.6,1.2,0.6s0.9-0.2,1.2-0.6
			c0.3-0.4,0.4-1,0.4-1.6c0-0.1,0-0.1,0-0.1c0-0.7-0.1-1.2-0.4-1.6s-0.7-0.6-1.3-0.6c-0.6,0-1,0.2-1.2,0.7
			C-70.4,451.4-70.5,452-70.4,452.6C-70.4,452.5-70.4,452.5-70.4,452.6z"/>
		<path class="st4" d="M-60.8,451.3L-60.8,451.3c0.6-0.9,0.9-1.4,1.4-2.3c1,0.1,1.5,0.1,2.5,0.2c-1.1,1.4-1.7,2.1-2.7,3.5
			c0.9,1.6,1.3,2.3,2.2,3.9c-0.9-0.1-1.4-0.1-2.4-0.2c-0.4-1-0.7-1.5-1.1-2.5c-0.6,1-0.8,1.4-1.4,2.4c-0.9,0-1.4-0.1-2.4-0.1
			c1-1.5,1.5-2.2,2.6-3.7c-0.9-1.5-1.4-2.2-2.4-3.7c1,0,1.5,0,2.5,0.1C-61.5,449.8-61.3,450.3-60.8,451.3z"/>
		<path class="st4" d="M-43.6,454.5c-0.2,1.2-0.9,2.1-1.8,2.7c-1,0.6-2.1,0.8-3.3,0.6c-1.3-0.2-2.2-0.8-2.9-1.7s-1-2-0.8-3.2
			c0.1-0.7,0.1-1.1,0.2-1.8c0.2-1.2,0.7-2.2,1.7-2.8c1-0.7,2.2-0.9,3.6-0.7c1.4,0.2,2.5,0.8,3.2,1.8s0.9,2,0.7,3.2
			C-43.4,453.4-43.4,453.8-43.6,454.5z M-45.4,452.3c0.1-0.8,0-1.4-0.3-2c-0.3-0.6-0.9-0.9-1.7-1c-0.8-0.1-1.4,0-1.9,0.5
			c-0.5,0.4-0.8,1-0.9,1.8c-0.1,0.7-0.2,1.1-0.3,1.8c-0.1,0.8,0,1.4,0.3,2s0.8,0.9,1.6,1c0.7,0.1,1.3,0,1.8-0.4s0.8-1,1-1.8
			C-45.6,453.3-45.5,453-45.4,452.3z"/>
		<path class="st4" d="M-35.1,457.1c-0.3,1.1-0.8,1.8-1.5,2.3s-1.5,0.6-2.4,0.4c-0.4-0.1-0.7-0.3-1-0.5c-0.3-0.2-0.5-0.5-0.6-0.8
			c-0.3,1.4-0.5,2.1-0.8,3.5c-0.8-0.2-1.2-0.3-2-0.5c0.9-4,1.3-6,2.2-10c0.8,0.2,1.2,0.3,2,0.5c0,0.4,0,0.5-0.1,0.9
			c0.3-0.3,0.7-0.4,1-0.5c0.4-0.1,0.8-0.1,1.2,0c1,0.3,1.7,0.8,2,1.7s0.4,1.8,0,2.9C-35.1,457.1-35.1,457.1-35.1,457.1z
			 M-37.2,456.4c0.2-0.7,0.2-1.3,0.1-1.7c-0.1-0.5-0.5-0.8-1-0.9c-0.3-0.1-0.6-0.1-0.9,0c-0.3,0.1-0.5,0.2-0.7,0.4
			c-0.3,1.3-0.5,1.9-0.8,3.2c0.1,0.2,0.2,0.4,0.4,0.6s0.5,0.3,0.8,0.4c0.5,0.1,0.9,0,1.2-0.3c0.3-0.3,0.6-0.8,0.7-1.4
			C-37.2,456.5-37.2,456.5-37.2,456.4z"/>
		<path class="st4" d="M-31.6,462c-1.1-0.4-1.8-1-2.3-1.8c-0.5-0.9-0.5-1.8-0.2-2.8c0-0.1,0-0.2,0.1-0.3c0.3-1.1,0.9-1.8,1.7-2.3
			c0.9-0.5,1.8-0.5,2.9-0.2c1.1,0.4,1.8,0.9,2.2,1.7c0.4,0.8,0.4,1.6,0,2.6c-0.1,0.4-0.2,0.6-0.4,1c-1.8-0.7-2.7-1-4.6-1.6l0,0
			c-0.1,0.5-0.1,0.9,0.1,1.3c0.2,0.4,0.6,0.7,1.1,0.8c0.5,0.2,0.8,0.2,1.2,0.3c0.3,0,0.7,0,1.1-0.1c0.1,0.5,0.1,0.8,0.1,1.4
			c-0.4,0.1-0.9,0.2-1.4,0.2C-30.4,462.4-31,462.2-31.6,462z M-29.8,456.2c-0.4-0.1-0.7-0.1-1.1,0.1c-0.3,0.2-0.6,0.5-0.8,0.9l0,0
			c1,0.3,1.5,0.5,2.6,0.9c0-0.1,0-0.1,0.1-0.2c0.1-0.4,0.1-0.8,0-1.1C-29.1,456.5-29.4,456.3-29.8,456.2z"/>
		<path class="st4" d="M-22.8,457.2c-0.1,0.4-0.2,0.6-0.3,1c0.4-0.2,0.8-0.4,1.3-0.4s0.9,0,1.4,0.2c0.8,0.3,1.3,0.8,1.6,1.4
			c0.2,0.6,0.2,1.4-0.3,2.3c-0.8,1.7-1.1,2.5-1.9,4.2c-0.8-0.4-1.2-0.5-2-0.9c0.7-1.7,1.1-2.6,1.8-4.3c0.2-0.5,0.2-0.8,0.1-1.1
			c-0.1-0.3-0.4-0.5-0.8-0.7c-0.3-0.1-0.5-0.2-0.8-0.2s-0.5,0.1-0.7,0.2c-0.8,2-1.2,3-2,5c-0.8-0.3-1.2-0.5-2-0.8
			c1-2.8,1.6-4.2,2.6-6.9C-24,456.8-23.6,456.9-22.8,457.2z"/>
	</g>
</g>
</svg>
