<?xml version="1.0" encoding="utf-8"?>
<!-- Generator: Adobe Illustrator 19.1.1, SVG Export Plug-In . SVG Version: 6.00 Build 0)  -->
<svg version="1.1" id="Layer_1" xmlns="http://www.w3.org/2000/svg" xmlns:xlink="http://www.w3.org/1999/xlink" x="0px" y="0px"
	 viewBox="-193 443 252 252" style="enable-background:new -193 443 252 252;" xml:space="preserve">
<style type="text/css">
	.st0{fill:#6CA198;}
	.st1{fill:#D9D9D9;}
	.st2{fill:none;stroke:#CFCFCF;stroke-miterlimit:10;}
	.st3{enable-background:new    ;}
	.st4{fill:#FFFFFF;}
</style>
<g>
	<g>
		<path class="st0" d="M-67,462c18.6,0,36.2,4.8,51.4,13.2l9.5-16.4C-24.1,448.7-44.9,443-67,443s-42.8,5.7-60.8,15.6l9.4,16.5
			C-103.2,466.7-85.7,462-67,462z"/>
	</g>
	<g>
		<path class="st1" d="M-2,461.1l-9.5,16.4C19.4,496.2,40,530.2,40,569c0,59.1-47.9,107-107,107s-107-47.9-107-107
			c0-38.8,20.6-72.7,51.5-91.5l-9.4-16.5c-36.6,22-61.1,62.1-61.1,108c0,69.6,56.4,126,126,126S59,638.6,59,569
			C59,523.2,34.5,483.1-2,461.1z"/>
	</g>
</g>
<line class="st2" x1="-153.2" y1="597.7" x2="19.5" y2="597.7"/>
<g class="st3">
	<path d="M-82.5,644.6L-82.5,644.6c0,1-0.3,1.9-1,2.6c-0.7,0.7-1.7,1-2.9,1c-1.2,0-2.2-0.4-2.9-1.3s-1.1-1.9-1.1-3.3v-1.9
		c0-1.3,0.4-2.4,1.1-3.3c0.8-0.9,1.7-1.3,2.9-1.3s2.2,0.3,2.9,1c0.7,0.6,1.1,1.5,1,2.6l0,0h-1.4c0-0.7-0.2-1.3-0.7-1.8
		c-0.4-0.4-1.1-0.7-1.9-0.7c-0.8,0-1.4,0.3-1.9,1c-0.5,0.6-0.7,1.5-0.7,2.4v1.9c0,1,0.2,1.8,0.7,2.4c0.5,0.6,1.1,1,1.9,1
		c0.8,0,1.4-0.2,1.9-0.6c0.4-0.4,0.7-1,0.7-1.8H-82.5z"/>
	<path d="M-72.8,645.3h-4.5l-1,2.7h-1.5l4.1-10.7h1.2l4.1,10.7h-1.5L-72.8,645.3z M-76.8,644h3.6l-1.8-4.9h0L-76.8,644z"/>
	<path d="M-61,645.3c0-0.5-0.2-0.9-0.5-1.2c-0.4-0.3-1-0.6-1.9-0.8c-1.1-0.3-2-0.7-2.6-1.2c-0.6-0.5-0.9-1.2-0.9-2
		c0-0.8,0.3-1.5,1-2.1c0.7-0.6,1.6-0.8,2.6-0.8c1.2,0,2.1,0.3,2.8,1c0.7,0.6,1,1.4,1,2.2l0,0h-1.4c0-0.6-0.2-1.1-0.6-1.5
		c-0.4-0.4-1-0.6-1.8-0.6c-0.7,0-1.3,0.2-1.7,0.5c-0.4,0.3-0.6,0.7-0.6,1.3c0,0.5,0.2,0.9,0.6,1.2c0.4,0.3,1.1,0.6,2,0.8
		c1.1,0.3,2,0.7,2.6,1.2s0.9,1.2,0.9,2c0,0.9-0.4,1.6-1.1,2.1s-1.6,0.8-2.8,0.8c-1.1,0-2-0.3-2.8-0.9c-0.8-0.6-1.2-1.4-1.2-2.3l0,0
		h1.4c0,0.7,0.3,1.2,0.8,1.6s1.1,0.5,1.9,0.5c0.7,0,1.3-0.2,1.7-0.5S-61,645.8-61,645.3z"/>
	<path d="M-47.4,648h-1.4v-4.7H-54v4.7h-1.4v-10.7h1.4v4.8h5.2v-4.8h1.4V648z"/>
</g>
<g>
	<g>
		<path class="st4" d="M-103.5,462.8c-0.8,0.2-1.2,0.3-2,0.5c-0.9-3.9-1.4-5.8-2.3-9.7c0.8-0.2,1.3-0.3,2.1-0.5
			C-104.8,457-104.4,458.9-103.5,462.8z"/>
		<path class="st4" d="M-99.8,454.5c0.1,0.4,0.2,0.6,0.3,1c0.2-0.4,0.4-0.8,0.8-1.1c0.3-0.3,0.7-0.5,1.2-0.5c0.8-0.1,1.4,0,2,0.4
			c0.5,0.4,0.9,1.1,1,2.1c0.3,1.8,0.5,2.7,0.8,4.6c-0.8,0.1-1.2,0.2-2,0.4c-0.3-1.8-0.5-2.7-0.8-4.6c-0.1-0.5-0.3-0.8-0.5-1
			c-0.2-0.2-0.6-0.2-1-0.1c-0.3,0.1-0.5,0.2-0.7,0.3s-0.4,0.3-0.5,0.6c0.4,2.1,0.6,3.2,1,5.3c-0.8,0.2-1.2,0.2-2,0.4
			c-0.6-2.9-0.9-4.3-1.5-7.2C-101,454.7-100.6,454.6-99.8,454.5z"/>
		<path class="st4" d="M-89.9,451c-0.9,0.1-1.3,0.2-2.1,0.3c-0.1-0.6-0.1-0.9-0.2-1.5c0.9-0.1,1.3-0.2,2.2-0.3
			C-90.1,450.2-90,450.4-89.9,451z M-88.7,460.1c-0.8,0.1-1.2,0.2-2,0.3c-0.4-2.9-0.7-4.4-1.1-7.3c0.8-0.1,1.3-0.2,2.1-0.3
			C-89.3,455.7-89.1,457.2-88.7,460.1z"/>
		<path class="st4" d="M-84.1,450.3c0.1,0.7,0.1,1.1,0.2,1.8c0.5-0.1,0.8-0.1,1.3-0.1c0.1,0.6,0.1,0.8,0.1,1.4
			c-0.5,0.1-0.8,0.1-1.3,0.1c0.2,1.5,0.2,2.2,0.4,3.7c0,0.3,0.1,0.5,0.2,0.6c0.1,0.1,0.3,0.2,0.5,0.1c0.1,0,0.2,0,0.3,0
			c0.1,0,0.2,0,0.3-0.1c0.1,0.6,0.2,0.9,0.3,1.4c-0.2,0.1-0.4,0.2-0.6,0.2s-0.4,0.1-0.6,0.1c-0.7,0.1-1.3-0.1-1.7-0.4
			c-0.4-0.3-0.7-0.9-0.8-1.7c-0.2-1.5-0.3-2.2-0.4-3.7c-0.5,0.1-0.7,0.1-1.1,0.1c-0.1-0.6-0.1-0.8-0.2-1.4c0.5-0.1,0.7-0.1,1.1-0.1
			c-0.1-0.7-0.1-1.1-0.2-1.8C-85.4,450.4-85,450.4-84.1,450.3z"/>
		<path class="st4" d="M-77.7,449.8c-0.9,0.1-1.3,0.1-2.1,0.2c0-0.6-0.1-0.9-0.1-1.5c0.9-0.1,1.3-0.1,2.2-0.2
			C-77.7,448.9-77.7,449.2-77.7,449.8z M-77,458.9c-0.8,0.1-1.2,0.1-2,0.2c-0.2-2.9-0.4-4.4-0.6-7.4c0.9-0.1,1.3-0.1,2.1-0.2
			C-77.3,454.5-77.2,456-77,458.9z"/>
		<path class="st4" d="M-69.5,458.6c-0.1-0.2-0.1-0.3-0.2-0.5c-0.1-0.2-0.1-0.4-0.1-0.6c-0.2,0.4-0.5,0.7-0.8,0.9
			c-0.3,0.2-0.7,0.4-1.2,0.4c-0.8,0-1.4-0.1-1.9-0.5c-0.4-0.4-0.7-0.9-0.7-1.6c0-0.7,0.2-1.3,0.8-1.7c0.6-0.4,1.4-0.7,2.5-0.7
			c0.5,0,0.7,0,1.2,0c0-0.2,0-0.4,0-0.6c0-0.4-0.1-0.6-0.3-0.8c-0.2-0.2-0.5-0.3-0.9-0.3c-0.3,0-0.6,0.1-0.8,0.3
			c-0.2,0.2-0.3,0.4-0.3,0.7c-0.8,0-1.2,0-2,0.1l0,0c-0.1-0.6,0.2-1.2,0.8-1.7c0.6-0.5,1.4-0.7,2.4-0.8c0.9,0,1.7,0.2,2.3,0.6
			c0.6,0.4,0.9,1.1,0.9,1.9c0,1.2,0,1.8,0,3.1c0,0.3,0,0.7,0.1,1c0.1,0.3,0.1,0.6,0.3,0.9C-68.2,458.5-68.6,458.5-69.5,458.6z
			 M-71.4,457.3c0.4,0,0.7-0.1,1-0.3s0.5-0.4,0.6-0.6c0-0.4,0-0.6,0-1c-0.5,0-0.7,0-1.2,0c-0.4,0-0.8,0.1-1,0.4
			c-0.2,0.2-0.3,0.5-0.3,0.8c0,0.2,0.1,0.4,0.3,0.6C-71.9,457.2-71.7,457.3-71.4,457.3z"/>
		<path class="st4" d="M-62.6,458.5c-0.8,0-1.2,0-2,0c0-4.3,0-6.4,0-10.7c0.9,0,1.3,0,2.2,0C-62.5,452.1-62.6,454.2-62.6,458.5z"/>
		<path class="st4" d="M-57,449.5c-0.9,0-1.3-0.1-2.2-0.1c0-0.6,0-0.9,0-1.5c0.9,0,1.3,0,2.2,0.1C-56.9,448.6-56.9,448.9-57,449.5z
			 M-57.4,458.7c-0.8,0-1.2-0.1-2-0.1c0.1-3,0.1-4.4,0.2-7.4c0.9,0,1.3,0,2.1,0.1C-57.2,454.2-57.2,455.7-57.4,458.7z"/>
		<path class="st4" d="M-50,457.1c0-0.2-0.1-0.4-0.3-0.6s-0.6-0.4-1.2-0.5c-0.9-0.3-1.6-0.6-2-0.9c-0.4-0.4-0.6-0.9-0.6-1.5
			s0.4-1.2,1-1.6s1.4-0.6,2.3-0.5c1,0.1,1.8,0.4,2.3,0.9c0.6,0.5,0.8,1.1,0.7,1.7l0,0c-0.8-0.1-1.2-0.1-2-0.2c0-0.3-0.1-0.5-0.2-0.7
			c-0.2-0.2-0.5-0.3-0.9-0.4c-0.3,0-0.6,0-0.8,0.2c-0.2,0.1-0.3,0.3-0.3,0.6c0,0.2,0.1,0.4,0.3,0.6c0.2,0.2,0.6,0.3,1.2,0.5
			c0.9,0.3,1.6,0.6,2.1,1c0.4,0.4,0.6,0.9,0.6,1.5c-0.1,0.7-0.4,1.2-1,1.5c-0.6,0.3-1.4,0.5-2.4,0.4s-1.8-0.4-2.3-0.9
			c-0.6-0.5-0.8-1.1-0.7-1.8l0,0c0.8,0,1.1,0.1,1.9,0.1c0,0.4,0.1,0.7,0.3,0.9c0.2,0.2,0.6,0.3,1,0.3s0.7,0,0.9-0.1
			C-50.1,457.5-50,457.3-50,457.1z"/>
		<path class="st4" d="M-42.2,450.7c-0.9-0.1-1.3-0.2-2.1-0.3c0.1-0.6,0.1-0.9,0.2-1.5c0.9,0.1,1.3,0.1,2.2,0.3
			C-42,449.9-42.1,450.2-42.2,450.7z M-43.3,459.8c-0.8-0.1-1.2-0.2-2-0.2c0.3-2.9,0.5-4.4,0.8-7.3c0.8,0.1,1.3,0.1,2.1,0.3
			C-42.7,455.4-42.9,456.9-43.3,459.8z"/>
		<path class="st4" d="M-37.2,453.2c0,0.4,0,0.6-0.1,1.1c0.3-0.3,0.7-0.6,1.1-0.7c0.4-0.1,0.9-0.2,1.3-0.1c0.8,0.1,1.4,0.5,1.7,1
			c0.4,0.5,0.4,1.3,0.3,2.3c-0.3,1.8-0.5,2.7-0.8,4.5c-0.8-0.1-1.2-0.2-2-0.4c0.3-1.8,0.5-2.7,0.8-4.6c0.1-0.5,0-0.9-0.1-1.1
			c-0.2-0.2-0.5-0.4-0.9-0.5c-0.3,0-0.5,0-0.8,0s-0.4,0.2-0.6,0.4c-0.3,2.1-0.5,3.2-0.8,5.3c-0.8-0.1-1.2-0.2-2-0.3
			c0.4-2.9,0.6-4.4,1.1-7.3C-38.4,453-38,453.1-37.2,453.2z"/>
		<path class="st4" d="M-30.4,458.3c0.2-1.1,0.7-2,1.3-2.6c0.7-0.6,1.5-0.8,2.5-0.6c0.4,0.1,0.8,0.3,1.1,0.5c0.3,0.3,0.5,0.6,0.7,1
			c0.1-0.4,0.2-0.5,0.4-0.9c0.7,0.2,1.1,0.3,1.8,0.4c-0.7,2.9-1,4.3-1.7,7.2c-0.2,0.9-0.7,1.6-1.5,1.9c-0.7,0.4-1.7,0.4-2.8,0.2
			c-0.4-0.1-0.8-0.2-1.1-0.4s-0.8-0.4-1.1-0.7c0.3-0.6,0.4-0.8,0.7-1.4c0.3,0.2,0.6,0.4,0.9,0.5c0.3,0.1,0.6,0.3,1,0.3
			c0.5,0.1,1,0.1,1.3-0.1c0.3-0.2,0.5-0.5,0.6-1c0.1-0.3,0.1-0.4,0.1-0.7c-0.3,0.2-0.6,0.4-0.9,0.4s-0.7,0.1-1.1,0
			c-0.9-0.2-1.6-0.7-1.9-1.4C-30.5,460.1-30.6,459.2-30.4,458.3C-30.4,458.3-30.4,458.3-30.4,458.3z M-28.4,458.8
			c-0.1,0.6-0.1,1.2,0,1.6s0.5,0.7,1,0.8c0.3,0.1,0.6,0.1,0.8,0c0.2-0.1,0.4-0.2,0.6-0.4c0.3-1.3,0.4-1.9,0.7-3.2
			c-0.1-0.2-0.2-0.5-0.4-0.6c-0.2-0.2-0.4-0.3-0.8-0.4c-0.5-0.1-0.9,0-1.3,0.4c-0.3,0.4-0.6,0.9-0.7,1.6
			C-28.3,458.7-28.3,458.8-28.4,458.8z"/>
	</g>
</g>
<g class="st3">
	<path d="M-120.9,623.6L-120.9,623.6c0,1-0.3,1.9-1,2.6c-0.7,0.7-1.7,1-2.9,1c-1.2,0-2.2-0.4-2.9-1.3s-1.1-1.9-1.1-3.3v-1.9
		c0-1.3,0.4-2.4,1.1-3.3c0.8-0.9,1.7-1.3,2.9-1.3s2.2,0.3,2.9,1c0.7,0.6,1.1,1.5,1,2.6l0,0h-1.4c0-0.7-0.2-1.3-0.7-1.8
		c-0.4-0.4-1.1-0.7-1.9-0.7c-0.8,0-1.4,0.3-1.9,1c-0.5,0.6-0.7,1.5-0.7,2.4v1.9c0,1,0.2,1.8,0.7,2.4c0.5,0.6,1.1,1,1.9,1
		c0.8,0,1.4-0.2,1.9-0.6c0.4-0.4,0.7-1,0.7-1.8H-120.9z"/>
	<path d="M-108.9,622.6c0,1.3-0.4,2.4-1.2,3.2c-0.8,0.9-1.9,1.3-3.1,1.3c-1.2,0-2.3-0.4-3-1.3c-0.8-0.9-1.2-1.9-1.2-3.2v-1.9
		c0-1.3,0.4-2.4,1.2-3.2c0.8-0.9,1.8-1.3,3-1.3c1.3,0,2.3,0.4,3.1,1.3c0.8,0.9,1.2,1.9,1.2,3.2V622.6z M-110.3,620.7
		c0-1-0.3-1.8-0.8-2.4s-1.2-0.9-2.1-0.9c-0.8,0-1.5,0.3-2,0.9c-0.5,0.6-0.8,1.4-0.8,2.4v1.9c0,1,0.3,1.8,0.8,2.4
		c0.5,0.6,1.2,0.9,2,0.9c0.9,0,1.6-0.3,2.1-0.9c0.5-0.6,0.8-1.4,0.8-2.4V620.7z"/>
	<path d="M-103.3,625.9h5v1.1h-6.5v-10.7h1.4V625.9z"/>
	<path d="M-93.2,625.9h5v1.1h-6.5v-10.7h1.4V625.9z"/>
	<path d="M-78.2,622.1h-4.9v3.8h5.6v1.1h-7.1v-10.7h7v1.1h-5.6v3.5h4.9V622.1z"/>
	<path d="M-66.2,623.6L-66.2,623.6c0,1-0.3,1.9-1,2.6c-0.7,0.7-1.7,1-2.9,1c-1.2,0-2.2-0.4-2.9-1.3s-1.1-1.9-1.1-3.3v-1.9
		c0-1.3,0.4-2.4,1.1-3.3c0.8-0.9,1.7-1.3,2.9-1.3s2.2,0.3,2.9,1c0.7,0.6,1.1,1.5,1,2.6l0,0h-1.4c0-0.7-0.2-1.3-0.7-1.8
		c-0.4-0.4-1.1-0.7-1.9-0.7c-0.8,0-1.4,0.3-1.9,1c-0.5,0.6-0.7,1.5-0.7,2.4v1.9c0,1,0.2,1.8,0.7,2.4c0.5,0.6,1.1,1,1.9,1
		c0.8,0,1.4-0.2,1.9-0.6c0.4-0.4,0.7-1,0.7-1.8H-66.2z"/>
	<path d="M-55.3,617.5h-3.4v9.5h-1.4v-9.5h-3.4v-1.1h8.3V617.5z"/>
	<path d="M-46.7,624.3h-4.5l-1,2.7h-1.5l4.1-10.7h1.2l4.1,10.7h-1.5L-46.7,624.3z M-50.7,623h3.6l-1.8-4.9h0L-50.7,623z"/>
	<path d="M-40.8,627v-10.7h3.5c1.1,0,2,0.2,2.6,0.7c0.6,0.5,0.9,1.2,0.9,2.2c0,0.5-0.2,0.9-0.5,1.3c-0.3,0.4-0.7,0.7-1.2,0.8
		c0.6,0.1,1.2,0.5,1.5,0.9c0.4,0.5,0.6,1.1,0.6,1.7c0,1-0.3,1.7-0.9,2.2c-0.6,0.5-1.5,0.8-2.6,0.8H-40.8z M-39.3,620.9h2.3
		c0.5,0,1-0.1,1.3-0.4c0.3-0.3,0.5-0.7,0.5-1.2c0-0.6-0.2-1-0.5-1.3c-0.4-0.3-0.9-0.4-1.6-0.4h-2V620.9z M-39.3,622v3.9h2.5
		c0.7,0,1.2-0.2,1.5-0.5c0.4-0.3,0.5-0.8,0.5-1.4c0-0.6-0.2-1.1-0.5-1.5c-0.3-0.4-0.8-0.5-1.4-0.5H-39.3z"/>
	<path d="M-27.7,625.9h5v1.1h-6.5v-10.7h1.4V625.9z"/>
	<path d="M-12.8,622.1h-4.9v3.8h5.6v1.1h-7.1v-10.7h7v1.1h-5.6v3.5h4.9V622.1z"/>
</g>
</svg>
