<?xml version="1.0" encoding="utf-8"?>
<!-- Generator: Adobe Illustrator 19.1.1, SVG Export Plug-In . SVG Version: 6.00 Build 0)  -->
<svg version="1.1" id="Layer_1" xmlns="http://www.w3.org/2000/svg" xmlns:xlink="http://www.w3.org/1999/xlink" x="0px" y="0px"
	 viewBox="-288 534 62 69" preserveAspectRatio="xMinYMid" style="enable-background:new -288 534 62 69;" xml:space="preserve">
<style type="text/css">
	.st0{fill:#FFFFFF;}
</style>
<circle class="st0" cx="-249.7" cy="568.4" r="5.7"/>
<g>
	<path class="st0" d="M-249.7,559.5c-4.9,0-9,4-9,9s4,9,9,9s9-4,9-9S-244.7,559.5-249.7,559.5z M-249.7,575.1c-3.7,0-6.7-3-6.7-6.7
		s3-6.7,6.7-6.7s6.7,3,6.7,6.7S-246,575.1-249.7,575.1z"/>
</g>
<g>
	<path class="st0" d="M-258.1,562.9h-9.7c-3,0-5.5,2.5-5.5,5.5s2.5,5.5,5.5,5.5h9.7c-1-1.6-1.5-3.5-1.5-5.5
		C-259.7,566.4-259.1,564.5-258.1,562.9z"/>
</g>
</svg>
