<?xml version="1.0" encoding="utf-8"?>
<!-- Generator: Adobe Illustrator 19.1.1, SVG Export Plug-In . SVG Version: 6.00 Build 0)  -->
<svg version="1.1" id="Layer_1" xmlns="http://www.w3.org/2000/svg" xmlns:xlink="http://www.w3.org/1999/xlink" x="0px" y="0px"
	 viewBox="0 0 119 133.7" style="enable-background:new 0 0 119 133.7;" xml:space="preserve">
<style type="text/css">
	.st0{fill-rule:evenodd;clip-rule:evenodd;fill:#898989;}
	.st1{fill-rule:evenodd;clip-rule:evenodd;fill:#848484;}
	.st2{fill-rule:evenodd;clip-rule:evenodd;fill:#BCBCBC;}
	.st3{opacity:0.4;}
	.st4{fill:#FFFFFF;}
	.st5{fill:#E04148;}
	.st6{fill:#A5A5A5;}
	.st7{fill:none;}
	.st8{fill:#D62727;}
	.st9{fill:none;stroke:#D62727;stroke-miterlimit:10;}
	.st10{fill:#CE0000;}
	.st11{fill:none;stroke:#9B9B9B;stroke-miterlimit:10;}
	.st12{fill:none;stroke:#9B9B9B;stroke-linecap:round;stroke-miterlimit:10;}
	.st13{fill:#999999;}
	.st14{fill:none;stroke:#999999;stroke-width:2;stroke-miterlimit:10;}
	.st15{fill:none;stroke:#000000;stroke-miterlimit:10;}
	.st16{opacity:0.4;fill-rule:evenodd;clip-rule:evenodd;}
	.st17{fill-rule:evenodd;clip-rule:evenodd;stroke:#FFFFFF;stroke-width:3;stroke-miterlimit:10;}
	.st18{fill-rule:evenodd;clip-rule:evenodd;fill:#ED342E;}
	.st19{opacity:0.2;fill-rule:evenodd;clip-rule:evenodd;}
	.st20{filter:url(#Adobe_OpacityMaskFilter);}
	.st21{mask:url(#SVGID_1_);}
	.st22{fill:none;stroke:#000000;stroke-width:2.7824;stroke-miterlimit:10;}
	.st23{fill:#A6D53E;}
	.st24{fill:#D9D9D9;}
	.st25{fill:#526A1E;}
	.st26{fill:#848484;stroke:#CFCFCF;stroke-miterlimit:10;}
	.st27{fill:#D47023;}
	.st28{fill:#E38842;}
	.st29{fill:#B2B2B2;}
	.st30{fill:#DF4148;}
	.st31{fill:#B22936;}
	.st32{filter:url(#Adobe_OpacityMaskFilter_1_);}
	.st33{mask:url(#SVGID_2_);fill:#B22936;}
	.st34{opacity:0.9;fill:#B22936;}
	.st35{filter:url(#Adobe_OpacityMaskFilter_2_);}
	.st36{mask:url(#SVGID_3_);fill:#2C7AB6;}
	.st37{filter:url(#Adobe_OpacityMaskFilter_3_);}
	.st38{mask:url(#SVGID_4_);fill:#2C7AB6;}
	.st39{filter:url(#Adobe_OpacityMaskFilter_4_);}
	
		.st40{mask:url(#SVGID_5_);fill:none;stroke:#2C7AB6;stroke-width:2.0881;stroke-linecap:round;stroke-linejoin:round;stroke-miterlimit:10;}
	.st41{filter:url(#Adobe_OpacityMaskFilter_5_);}
	
		.st42{mask:url(#SVGID_6_);fill:none;stroke:#2C7AB6;stroke-width:2.0881;stroke-linecap:round;stroke-linejoin:round;stroke-miterlimit:10;}
	.st43{fill:#2C7AB6;stroke:#2C7AB6;stroke-linecap:round;stroke-linejoin:round;stroke-miterlimit:10;}
	.st44{filter:url(#Adobe_OpacityMaskFilter_6_);}
	.st45{mask:url(#SVGID_7_);fill:#2C7AB6;}
	.st46{fill:#D89C4C;}
	.st47{fill:#303D74;}
	.st48{fill:#6CA198;}
	.st49{fill:#A52D36;}
	.st50{fill:#686868;}
	.st51{fill:#E85D5D;}
	.st52{fill-rule:evenodd;clip-rule:evenodd;fill:#DD3C3C;}
	.st53{fill-rule:evenodd;clip-rule:evenodd;fill:#E5E5E5;}
	.st54{fill-rule:evenodd;clip-rule:evenodd;fill:#FF7373;}
	.st55{fill:none;stroke:#D6D6D6;stroke-width:1.1111;stroke-miterlimit:10;}
	.st56{opacity:0.5;fill-rule:evenodd;clip-rule:evenodd;}
	.st57{fill-rule:evenodd;clip-rule:evenodd;fill:#EF9A9A;}
	.st58{fill-rule:evenodd;clip-rule:evenodd;fill:#A00E0E;}
	.st59{fill:#858585;}
	.st60{fill:#BF2121;}
	.st61{fill:#1936B2;}
	.st62{fill:#D63232;}
	.st63{opacity:0.28;fill:#FF0000;}
	.st64{opacity:0.28;fill:#00FF12;}
	.st65{fill:#FF0000;}
	.st66{fill:#8D930F;}
</style>
<g>
	<path class="st4" d="M68.8,47h-17c-0.5,0-1-0.5-1-1l0,0c0-0.5,0.5-1,1-1h17c0.5,0,1,0.5,1,1l0,0C69.8,46.5,69.4,47,68.8,47z"/>
	<circle class="st4" cx="65.3" cy="27.5" r="5.5"/>
	<path class="st4" d="M59.8,36c-11,0-20,4.9-20,11v30c0,0,2,6.6,5,10s1.6,14.1,1,16s2.1,4.4,4,5c1.4,0.5,5.8,0.8,8.8,0.9
		c0.1,0,0.2,0.1,0.2,0.1c0.3,0,0.6,0,1,0c0.4,0,0.7,0,1,0c0.1,0,0.2,0,0.2-0.1c3-0.1,7.3-0.5,8.8-0.9c1.9-0.6,4.6-3.1,4-5
		s-2-12.6,1-16s5-10,5-10V47C79.8,40.9,70.9,36,59.8,36z M59.8,55c-9,0-16.4-3.8-16.4-8.5c0-4.7,7.3-8.5,16.4-8.5s16.4,3.8,16.4,8.5
		C76.2,51.2,68.9,55,59.8,55z"/>
	<path class="st4" d="M65.6,45c0.1-0.5,0.2-1,0.2-1.5c0-3-2.5-5.5-5.5-5.5s-5.5,2.5-5.5,5.5c0,0.5,0.1,1,0.2,1.5H65.6z"/>
</g>
<g>
	<path class="st59" d="M69.3,47h-17c-0.5,0-1-0.5-1-1l0,0c0-0.5,0.5-1,1-1h17c0.5,0,1,0.5,1,1l0,0C70.3,46.5,69.9,47,69.3,47z"/>
	<circle class="st59" cx="65.8" cy="27.5" r="5.5"/>
	<path class="st59" d="M60.3,36c-11,0-20,4.9-20,11v30c0,0,2,6.6,5,10s1.6,14.1,1,16s2.1,4.4,4,5c1.4,0.5,5.8,0.8,8.8,0.9
		c0.1,0,0.2,0.1,0.2,0.1c0.3,0,0.6,0,1,0c0.4,0,0.7,0,1,0c0.1,0,0.2,0,0.2-0.1c3-0.1,7.3-0.5,8.8-0.9c1.9-0.6,4.6-3.1,4-5
		s-2-12.6,1-16s5-10,5-10V47C80.3,40.9,71.4,36,60.3,36z M60.3,55c-9,0-16.4-3.8-16.4-8.5c0-4.7,7.3-8.5,16.4-8.5s16.4,3.8,16.4,8.5
		C76.7,51.2,69.4,55,60.3,55z"/>
	<path class="st59" d="M66.1,45c0.1-0.5,0.2-1,0.2-1.5c0-3-2.5-5.5-5.5-5.5s-5.5,2.5-5.5,5.5c0,0.5,0.1,1,0.2,1.5H66.1z"/>
</g>
</svg>
