<?xml version="1.0" encoding="utf-8"?>
<!-- Generator: Adobe Illustrator 19.1.1, SVG Export Plug-In . SVG Version: 6.00 Build 0)  -->
<svg version="1.1" id="Layer_1" xmlns="http://www.w3.org/2000/svg" xmlns:xlink="http://www.w3.org/1999/xlink" x="0px" y="0px"
	 viewBox="-260 502.3 119 133.7" style="enable-background:new -260 502.3 119 133.7;" xml:space="preserve" preserveAspectRatio="xminYmid">
<style type="text/css">
	.st0{fill:#FFFFFF;}
</style>
<g>
	<path class="st0" d="M-191.7,549.3h-17c-0.5,0-1-0.5-1-1l0,0c0-0.5,0.5-1,1-1h17c0.5,0,1,0.5,1,1l0,0
		C-190.7,548.8-191.1,549.3-191.7,549.3z"/>
	<circle class="st0" cx="-195.2" cy="529.8" r="5.5"/>
	<path class="st0" d="M-200.7,538.3c-11,0-20,4.9-20,11v30c0,0,2,6.6,5,10s1.6,14.1,1,16c-0.6,1.9,2.1,4.4,4,5
		c1.4,0.5,5.8,0.8,8.8,0.9c0.1,0,0.2,0.1,0.2,0.1c0.3,0,0.6,0,1,0c0.4,0,0.7,0,1,0c0.1,0,0.2,0,0.2-0.1c3-0.1,7.3-0.5,8.8-0.9
		c1.9-0.6,4.6-3.1,4-5s-2-12.6,1-16s5-10,5-10v-30C-180.7,543.2-189.6,538.3-200.7,538.3z M-200.7,557.3c-9,0-16.4-3.8-16.4-8.5
		s7.3-8.5,16.4-8.5s16.4,3.8,16.4,8.5C-184.3,553.5-191.6,557.3-200.7,557.3z"/>
	<path class="st0" d="M-194.9,547.3c0.1-0.5,0.2-1,0.2-1.5c0-3-2.5-5.5-5.5-5.5s-5.5,2.5-5.5,5.5c0,0.5,0.1,1,0.2,1.5H-194.9z"/>
</g>
<g>
	<path class="st0" d="M-191.2,549.3h-17c-0.5,0-1-0.5-1-1l0,0c0-0.5,0.5-1,1-1h17c0.5,0,1,0.5,1,1l0,0
		C-190.2,548.8-190.6,549.3-191.2,549.3z"/>
	<circle class="st0" cx="-194.7" cy="529.8" r="5.5"/>
	<path class="st0" d="M-200.2,538.3c-11,0-20,4.9-20,11v30c0,0,2,6.6,5,10s1.6,14.1,1,16c-0.6,1.9,2.1,4.4,4,5
		c1.4,0.5,5.8,0.8,8.8,0.9c0.1,0,0.2,0.1,0.2,0.1c0.3,0,0.6,0,1,0c0.4,0,0.7,0,1,0c0.1,0,0.2,0,0.2-0.1c3-0.1,7.3-0.5,8.8-0.9
		c1.9-0.6,4.6-3.1,4-5s-2-12.6,1-16s5-10,5-10v-30C-180.2,543.2-189.1,538.3-200.2,538.3z M-200.2,557.3c-9,0-16.4-3.8-16.4-8.5
		s7.3-8.5,16.4-8.5s16.4,3.8,16.4,8.5C-183.8,553.5-191.1,557.3-200.2,557.3z"/>
	<path class="st0" d="M-194.4,547.3c0.1-0.5,0.2-1,0.2-1.5c0-3-2.5-5.5-5.5-5.5s-5.5,2.5-5.5,5.5c0,0.5,0.1,1,0.2,1.5H-194.4z"/>
</g>
</svg>
