<?xml version="1.0" encoding="utf-8"?>
<!-- Generator: Adobe Illustrator 19.1.1, SVG Export Plug-In . SVG Version: 6.00 Build 0)  -->
<svg version="1.1" id="Layer_1" xmlns="http://www.w3.org/2000/svg" xmlns:xlink="http://www.w3.org/1999/xlink" x="0px" y="0px"
	 viewBox="0 0 40 87" style="enable-background:new 0 0 40 87;" xml:space="preserve">
<style type="text/css">
	.st0{fill:none;stroke:#8C1521;stroke-width:2;stroke-miterlimit:10;}
	.st1{fill-rule:evenodd;clip-rule:evenodd;fill:#898989;}
	.st2{fill-rule:evenodd;clip-rule:evenodd;fill:#848484;}
	.st3{fill-rule:evenodd;clip-rule:evenodd;fill:#BCBCBC;}
	.st4{opacity:0.4;}
	.st5{fill:#FFFFFF;}
	.st6{fill:#E04148;}
	.st7{fill:#A5A5A5;}
	.st8{fill:none;}
	.st9{fill:#D62727;}
	.st10{fill:none;stroke:#D62727;stroke-miterlimit:10;}
	.st11{fill:#CE0000;}
	.st12{fill:none;stroke:#9B9B9B;stroke-miterlimit:10;}
	.st13{fill:none;stroke:#9B9B9B;stroke-linecap:round;stroke-miterlimit:10;}
	.st14{fill:#999999;}
	.st15{fill:#9B9B9B;}
	.st16{fill:none;stroke:#999999;stroke-width:2;stroke-miterlimit:10;}
	.st17{fill:none;stroke:#000000;stroke-miterlimit:10;}
	.st18{fill:#5F5F5F;}
	.st19{fill:none;stroke:#FFFFFF;stroke-width:2;stroke-miterlimit:10;}
	.st20{opacity:0.4;fill-rule:evenodd;clip-rule:evenodd;}
	.st21{fill-rule:evenodd;clip-rule:evenodd;stroke:#FFFFFF;stroke-width:3;stroke-miterlimit:10;}
	.st22{fill-rule:evenodd;clip-rule:evenodd;fill:#ED342E;}
	.st23{opacity:0.2;fill-rule:evenodd;clip-rule:evenodd;}
	.st24{filter:url(#Adobe_OpacityMaskFilter);}
	.st25{mask:url(#SVGID_1_);}
	.st26{fill:none;stroke:#000000;stroke-width:2.7824;stroke-miterlimit:10;}
	.st27{fill:#A6D53E;}
	.st28{fill:#D9D9D9;}
	.st29{fill:#526A1E;}
	.st30{fill:#848484;stroke:#CFCFCF;stroke-miterlimit:10;}
	.st31{fill:#D47023;}
	.st32{fill:#E38842;}
	.st33{fill:#B2B2B2;}
	.st34{fill:#DF4148;}
	.st35{fill:#CFCFCF;}
	.st36{fill:#B22936;}
	.st37{opacity:0.9;fill:#B22936;}
	.st38{opacity:0.9;fill:#CFCFCF;}
	.st39{fill:#E85D5D;}
	.st40{fill:#D89C4C;}
	.st41{fill:#303D74;}
	.st42{fill:#6CA198;}
	.st43{fill:#A52D36;}
	.st44{fill:#686868;}
	.st45{fill-rule:evenodd;clip-rule:evenodd;fill:#DD3C3C;}
	.st46{fill-rule:evenodd;clip-rule:evenodd;fill:#E5E5E5;}
	.st47{fill-rule:evenodd;clip-rule:evenodd;fill:#FF7373;}
	.st48{fill:none;stroke:#D6D6D6;stroke-width:1.1111;stroke-miterlimit:10;}
	.st49{opacity:0.5;fill-rule:evenodd;clip-rule:evenodd;}
	.st50{fill-rule:evenodd;clip-rule:evenodd;fill:#EF9A9A;}
	.st51{fill-rule:evenodd;clip-rule:evenodd;fill:#A00E0E;}
	.st52{fill:#858585;}
	.st53{fill:#BF2121;}
	.st54{fill:#1936B2;}
	.st55{fill:#D63232;}
	.st56{opacity:0.28;fill:#FF0000;}
	.st57{opacity:0.28;fill:#00FF12;}
	.st58{fill:#FF0000;}
	.st59{fill:#8D930F;}
	.st60{filter:url(#Adobe_OpacityMaskFilter_1_);}
	.st61{mask:url(#SVGID_2_);fill:#B22936;}
	.st62{filter:url(#Adobe_OpacityMaskFilter_2_);}
	.st63{mask:url(#SVGID_3_);fill:#2C7AB6;}
	.st64{filter:url(#Adobe_OpacityMaskFilter_3_);}
	.st65{mask:url(#SVGID_4_);fill:#2C7AB6;}
	.st66{filter:url(#Adobe_OpacityMaskFilter_4_);}
	
		.st67{mask:url(#SVGID_5_);fill:none;stroke:#2C7AB6;stroke-width:2.0881;stroke-linecap:round;stroke-linejoin:round;stroke-miterlimit:10;}
	.st68{filter:url(#Adobe_OpacityMaskFilter_5_);}
	
		.st69{mask:url(#SVGID_6_);fill:none;stroke:#2C7AB6;stroke-width:2.0881;stroke-linecap:round;stroke-linejoin:round;stroke-miterlimit:10;}
	.st70{fill:#2C7AB6;stroke:#2C7AB6;stroke-linecap:round;stroke-linejoin:round;stroke-miterlimit:10;}
	.st71{fill:#2C7AB6;stroke:#2C7AB6;stroke-width:1.3717;stroke-linecap:round;stroke-linejoin:round;stroke-miterlimit:10;}
	.st72{fill:#2C7AB6;}
	.st73{fill:#CFCFCF;stroke:#CFCFCF;stroke-width:1.3717;stroke-linecap:round;stroke-linejoin:round;stroke-miterlimit:10;}
	.st74{fill:#7FA311;}
</style>
<g>
	<path class="st35" d="M29,25H12c-0.5,0-1-0.4-1-1v0c0-0.5,0.4-1,1-1h17c0.5,0,1,0.4,1,1v0C30,24.6,29.6,25,29,25z"/>
	<circle class="st35" cx="25.5" cy="5.5" r="5.5"/>
	<path class="st35" d="M20,14C9,14,0,18.9,0,25v30c0,0,2,6.6,5,10s1.6,14.1,1,16s2.1,4.4,4,5c1.4,0.5,5.8,0.8,8.8,0.9
		c0.1,0,0.2,0.1,0.2,0.1c0.3,0,0.6,0,1,0c0.4,0,0.7,0,1,0c0.1,0,0.2,0,0.2-0.1c3-0.1,7.3-0.5,8.8-0.9c1.9-0.6,4.6-3.1,4-5
		s-2-12.6,1-16s5-10,5-10V25C40,18.9,31,14,20,14z M20,33c-9,0-16.4-3.8-16.4-8.5C3.6,19.8,11,16,20,16s16.4,3.8,16.4,8.5
		C36.4,29.2,29,33,20,33z"/>
	<path class="st35" d="M25.8,23c0.1-0.5,0.2-1,0.2-1.5c0-3-2.5-5.5-5.5-5.5S15,18.5,15,21.5c0,0.5,0.1,1,0.2,1.5H25.8z"/>
</g>
</svg>
