<?xml version="1.0" encoding="utf-8"?>
<!-- Generator: Adobe Illustrator 19.1.1, SVG Export Plug-In . SVG Version: 6.00 Build 0)  -->
<svg version="1.1" id="Layer_1" xmlns="http://www.w3.org/2000/svg" xmlns:xlink="http://www.w3.org/1999/xlink" x="0px" y="0px"
	 viewBox="-352 478 62 69" preserveAspectRatio="xMinYMid" style="enable-background:new -352 478 62 69;" xml:space="preserve">
<style type="text/css">
	.st0{fill:none;stroke:#FFFFFF;stroke-miterlimit:10;}
	.st1{fill:#FFFFFF;}
</style>
<polyline class="st0" points="-336.9,510.9 -333.6,514.3 -326.2,506.7 -323.4,509.3 -318.7,503.9 -315.5,506.5 -307.6,497.7 "/>
<polygon class="st1" points="-336.9,514.3 -336.9,528.6 -330.7,528.6 -330.7,514.1 -333.5,517.1 "/>
<polygon class="st1" points="-329.5,513.6 -329.5,528.6 -323.3,528.6 -323.1,512.3 -325.7,509.7 "/>
<polygon class="st1" points="-321.9,510.9 -321.9,528.6 -315.6,528.6 -315.6,509.1 -318.4,507 "/>
<polygon class="st1" points="-314.2,508.4 -314.2,528.6 -308,528.6 -307.9,501.2 -310.7,504.4 "/>
<polygon class="st1" points="-306.6,501.2 -306.6,496.4 -310.9,496.4 "/>
</svg>
