<?xml version="1.0" encoding="utf-8"?>
<!-- Generator: Adobe Illustrator 21.1.0, SVG Export Plug-In . SVG Version: 6.00 Build 0)  -->
<svg version="1.1" id="Layer_1" xmlns="http://www.w3.org/2000/svg" xmlns:xlink="http://www.w3.org/1999/xlink" x="0px" y="0px"
	 viewBox="0 0 300 300" style="enable-background:new 0 0 300 300;" xml:space="preserve">
<style type="text/css">
	.st0{opacity:0.4;fill-rule:evenodd;clip-rule:evenodd;}
	.st1{fill-rule:evenodd;clip-rule:evenodd;stroke:#FFFFFF;stroke-width:3;stroke-miterlimit:10;}
	.st2{fill-rule:evenodd;clip-rule:evenodd;fill:#ED342E;}
</style>
<path class="st0" d="M111.4,28.7c0,0,19.2,25.1,62.5,53c43.6,28.1,83.4,39.5,83.4,39.5l-32.9,63.7c0,0-25.1-8.4-43.3-18.7
	C148.9,226.9,115.6,292,115.6,292s-43.4-22.6-68.1-42.6c42.6-81.8,60.1-122.2,60.1-122.2s-21.9-15.9-34.7-32.3
	C86.2,70,111.4,28.7,111.4,28.7z"/>
<path class="st1" d="M107,10c0,0,18.5,24.1,60.1,50.9c42,27,83.1,37.6,83.1,37.6l-30.6,59.5c0,0-27.1-7.7-44.6-17.7
	c-30.9,58.4-64,122.7-64,122.7s-41.8-21.7-65.5-40.9c40.9-78.6,63.5-121.6,63.5-121.6s-21-15.3-33.4-31.1C88.5,45.6,107,10,107,10z"
	/>
<path class="st2" d="M56.3,218.6l58.9-113.5c0,0,17.4,14.3,39.8,25.7c-24.4,47-59.4,113.3-59.4,113.3S70.7,230.6,56.3,218.6z"/>
<path class="st2" d="M119.4,97.5l23.7-45c0,0,15.3,12.3,39.4,25.7c-12.7,23-23.5,44.8-23.5,44.8S141.2,115.3,119.4,97.5z"/>
</svg>
