<?xml version="1.0" encoding="utf-8"?>
<!-- Generator: Adobe Illustrator 19.1.1, SVG Export Plug-In . SVG Version: 6.00 Build 0)  -->
<svg version="1.1" id="Layer_1" xmlns="http://www.w3.org/2000/svg" xmlns:xlink="http://www.w3.org/1999/xlink" x="0px" y="0px"
	 viewBox="0 0 62 69" preserveAspectRatio="xminYmid" style="enable-background:new 0 0 62 69;" xml:space="preserve">
<style type="text/css">
	.st0{fill:none;}
	.st1{fill:#D62727;}
	.st2{fill:none;stroke:#D62727;stroke-miterlimit:10;}
	.st3{fill:#CE0000;}
	.st4{fill:none;stroke:#9B9B9B;stroke-miterlimit:10;}
	.st5{fill:none;stroke:#9B9B9B;stroke-linecap:round;stroke-miterlimit:10;}
	.st6{fill:#999999;}
	.st7{fill:none;stroke:#999999;stroke-width:2;stroke-miterlimit:10;}
	.st8{fill:none;stroke:#000000;stroke-miterlimit:10;}
	.st9{opacity:0.4;fill-rule:evenodd;clip-rule:evenodd;}
	.st10{fill-rule:evenodd;clip-rule:evenodd;stroke:#FFFFFF;stroke-width:3;stroke-miterlimit:10;}
	.st11{fill-rule:evenodd;clip-rule:evenodd;fill:#ED342E;}
	.st12{opacity:0.2;fill-rule:evenodd;clip-rule:evenodd;}
	.st13{filter:url(#Adobe_OpacityMaskFilter);}
	.st14{mask:url(#SVGID_1_);}
	.st15{fill:none;stroke:#000000;stroke-width:2.7824;stroke-miterlimit:10;}
	.st16{fill:#A6D53E;}
	.st17{fill:#D9D9D9;}
	.st18{fill:#526A1E;}
	.st19{fill:#848484;stroke:#CFCFCF;stroke-miterlimit:10;}
	.st20{fill:#D47023;}
	.st21{fill:#E38842;}
	.st22{fill:#DF4148;}
	.st23{fill:#FFFFFF;}
</style>
<circle class="st15" cx="26.4" cy="28.3" r="14.9"/>
<path d="M46.4,55.9L46.4,55.9c-1,0.7-2.3,0.4-3-0.6l-9.1-13.2c-0.7-1-0.4-2.3,0.6-3l0,0c1-0.7,2.3-0.4,3,0.6L47,52.9
	C47.7,53.9,47.4,55.2,46.4,55.9z"/>
<path d="M20,34.5L20,34.5c-0.4-0.4-0.4-1.1,0-1.5l11.3-11.1c0.4-0.4,1.1-0.4,1.5,0l0,0c0.4,0.4,0.4,1.1,0,1.5L21.5,34.5
	C21.1,34.9,20.4,34.9,20,34.5z"/>
<path d="M20.1,21.7L20.1,21.7c0.4-0.4,1.1-0.4,1.5,0l11.1,11.3c0.4,0.4,0.4,1.1,0,1.5v0c-0.4,0.4-1.1,0.4-1.5,0L20.1,23.3
	C19.7,22.8,19.7,22.1,20.1,21.7z"/>
</svg>
