<?xml version="1.0" encoding="utf-8"?>
<!-- Generator: Adobe Illustrator 19.1.1, SVG Export Plug-In . SVG Version: 6.00 Build 0)  -->
<svg version="1.1" id="Layer_1" xmlns="http://www.w3.org/2000/svg" xmlns:xlink="http://www.w3.org/1999/xlink" x="0px" y="0px"
	 viewBox="-352 478 62 69" preserveAspectRatio="xMinYMid" style="enable-background:new -352 478 62 69;" xml:space="preserve">
<style type="text/css">
	.st0{fill:none;}
	.st1{fill:#FFFFFF;}
	.st2{fill:#D62727;}
</style>
<g>
	<path class="st0" d="M-312.6,503l-6.4,10.6c0,0.2-0.1,0.3-0.2,0.4l7.8,7c2.2-2.2,3.5-5.2,3.5-8.5
		C-307.8,508.6-309.7,505.1-312.6,503z"/>
	<path class="st0" d="M-331.8,512.5c0,6.6,5.4,12,12,12c3,0,5.7-1.1,7.8-2.8l-8.6-7.7c-0.2-0.2-0.2-0.5,0-0.7
		c0.1-0.2,0.4-0.2,0.6-0.1l-3.3-12.2C-328.2,502.5-331.8,507.1-331.8,512.5z"/>
	<path class="st1" d="M-307.8,512.5c0,3.3-1.3,6.3-3.5,8.5l3.8,3.4c3-3.1,4.8-7.3,4.8-11.9c0-5.8-2.9-10.9-7.2-14l-2.7,4.5
		C-309.7,505.1-307.8,508.6-307.8,512.5z"/>
	<path class="st1" d="M-319.8,524.5c-6.6,0-12-5.4-12-12c0-5.4,3.6-10,8.5-11.5l-1.3-5c-7.2,2.1-12.4,8.7-12.4,16.5
		c0,9.5,7.7,17.2,17.2,17.2c4.5,0,8.6-1.7,11.6-4.6l-3.9-3.5C-314.2,523.4-316.9,524.5-319.8,524.5z"/>
	<path class="st1" d="M-319.8,500.5v-5.2c-1.3,0-2.6,0.2-3.8,0.4l1.3,5C-321.5,500.6-320.7,500.5-319.8,500.5z"/>
	<path class="st1" d="M-318.8,495.4v5.2c2,0.2,3.8,0.8,5.4,1.8l2.7-4.4C-313.1,496.5-315.9,495.6-318.8,495.4z"/>
	<path class="st2" d="M-319,513.6l-0.1,0.2c0,0.1-0.1,0.1-0.1,0.1l0.1,0.1C-319,513.9-319,513.8-319,513.6z"/>
</g>
</svg>
