<?xml version="1.0" encoding="utf-8"?>
<!-- Generator: Adobe Illustrator 19.1.1, SVG Export Plug-In . SVG Version: 6.00 Build 0)  -->
<svg version="1.1" id="Layer_1" xmlns="http://www.w3.org/2000/svg" xmlns:xlink="http://www.w3.org/1999/xlink" x="0px" y="0px"
	 viewBox="0 0 62 69" preserveAspectRatio="xminYmid" style="enable-background:new 0 0 62 69;" xml:space="preserve">
<style type="text/css">
	.st0{fill:none;}
	.st1{fill:#D62727;}
	.st2{fill:none;stroke:#D62727;stroke-miterlimit:10;}
	.st3{fill:#CE0000;}
	.st4{fill:none;stroke:#9B9B9B;stroke-miterlimit:10;}
	.st5{fill:none;stroke:#9B9B9B;stroke-linecap:round;stroke-miterlimit:10;}
	.st6{fill:#999999;}
	.st7{fill:none;stroke:#999999;stroke-width:2;stroke-miterlimit:10;}
	.st8{fill:none;stroke:#000000;stroke-miterlimit:10;}
	.st9{opacity:0.4;fill-rule:evenodd;clip-rule:evenodd;}
	.st10{fill-rule:evenodd;clip-rule:evenodd;stroke:#FFFFFF;stroke-width:3;stroke-miterlimit:10;}
	.st11{fill-rule:evenodd;clip-rule:evenodd;fill:#ED342E;}
	.st12{opacity:0.2;fill-rule:evenodd;clip-rule:evenodd;}
	.st13{filter:url(#Adobe_OpacityMaskFilter);}
	.st14{mask:url(#SVGID_1_);}
	.st15{fill:none;stroke:#000000;stroke-width:2.7824;stroke-miterlimit:10;}
	.st16{fill:#A6D53E;}
	.st17{fill:#D9D9D9;}
	.st18{fill:#526A1E;}
	.st19{fill:#848484;stroke:#CFCFCF;stroke-miterlimit:10;}
	.st20{fill:#D47023;}
	.st21{fill:#E38842;}
	.st22{fill:#DF4148;}
	.st23{fill:#FFFFFF;}
</style>
<circle class="st7" cx="31" cy="34.5" r="16.5"/>
<path class="st6" d="M30.7,35.4L30.7,35.4c-0.6,0-1-0.5-1-1v-7.1c0-0.5,0.4-1,1-1h0c0.5,0,1,0.4,1,1v7.1
	C31.7,34.9,31.2,35.4,30.7,35.4z"/>
<path class="st6" d="M31.4,33.9L31.4,33.9c0.4,0.4,0.3,1.1-0.1,1.4l-8.4,7.3c-0.4,0.4-1.1,0.3-1.4-0.1l0,0c-0.4-0.4-0.3-1.1,0.1-1.4
	l8.4-7.3C30.5,33.5,31.1,33.5,31.4,33.9z"/>
<g>
	<path class="st7" d="M24.3,49.6v3.5c0,2.4,2,4.4,4.4,4.4h4.6c2.4,0,4.4-2,4.4-4.4v-3.5C35.7,50.5,33.4,51,31,51
		C28.6,51,26.3,50.5,24.3,49.6z"/>
	<path class="st7" d="M37.7,19.4v-3.7c0-2.4-2-4.4-4.4-4.4h-4.6c-2.4,0-4.4,2-4.4,4.4v3.7c2.1-0.9,4.3-1.4,6.7-1.4
		C33.4,18,35.7,18.5,37.7,19.4z"/>
</g>
</svg>
