<?xml version="1.0" encoding="utf-8"?>
<!-- Generator: Adobe Illustrator 19.1.1, SVG Export Plug-In . SVG Version: 6.00 Build 0)  -->
<svg version="1.1" id="Layer_1" xmlns="http://www.w3.org/2000/svg" xmlns:xlink="http://www.w3.org/1999/xlink" x="0px" y="0px"
	 viewBox="0 0 51.3 44.3" style="enable-background:new 0 0 51.3 44.3;" xml:space="preserve">
<style type="text/css">
	.status_x002D_icon{fill:none;}
	.st0{fill-rule:evenodd;clip-rule:evenodd;fill:#898989;}
	.st1{fill-rule:evenodd;clip-rule:evenodd;fill:#848484;}
	.st2{fill-rule:evenodd;clip-rule:evenodd;fill:#BCBCBC;}
	.st3{opacity:0.4;}
	.st4{fill:#FFFFFF;}
	.st5{fill:#E04148;}
	.st6{fill:#A5A5A5;}
	.st7{fill:none;}
	.st8{fill:#D62727;}
	.st9{fill:none;stroke:#D62727;stroke-miterlimit:10;}
	.st10{fill:#CE0000;}
	.st11{fill:none;stroke:#9B9B9B;stroke-miterlimit:10;}
	.st12{fill:none;stroke:#9B9B9B;stroke-linecap:round;stroke-miterlimit:10;}
	.st13{fill:#999999;}
	.st14{fill:none;stroke:#999999;stroke-width:2;stroke-miterlimit:10;}
	.st15{fill:none;stroke:#000000;stroke-miterlimit:10;}
	.st16{opacity:0.4;fill-rule:evenodd;clip-rule:evenodd;}
	.st17{fill-rule:evenodd;clip-rule:evenodd;stroke:#FFFFFF;stroke-width:3;stroke-miterlimit:10;}
	.st18{fill-rule:evenodd;clip-rule:evenodd;fill:#ED342E;}
	.st19{opacity:0.2;fill-rule:evenodd;clip-rule:evenodd;}
	.st20{filter:url(#Adobe_OpacityMaskFilter);}
	.st21{mask:url(#SVGID_1_);}
	.st22{fill:none;stroke:#000000;stroke-width:2.7824;stroke-miterlimit:10;}
	.st23{fill:#A6D53E;}
	.st24{fill:#D9D9D9;}
	.st25{fill:#526A1E;}
	.st26{fill:#848484;stroke:#CFCFCF;stroke-miterlimit:10;}
	.st27{fill:#D47023;}
	.st28{fill:#E38842;}
	.st29{fill:#B2B2B2;}
	.st30{fill:#DF4148;}
	.st31{fill:#CFCFCF;}
	.st32{fill:#B22936;}
	.st33{opacity:0.9;fill:#B22936;}
	.st34{opacity:0.9;fill:#CFCFCF;}
	.st35{fill:#E85D5D;}
	.st36{fill:#D89C4C;}
	.st37{fill:#303D74;}
	.st38{fill:#6CA198;}
	.st39{fill:#A52D36;}
	.st40{fill:#686868;}
	.st41{fill-rule:evenodd;clip-rule:evenodd;fill:#DD3C3C;}
	.st42{fill-rule:evenodd;clip-rule:evenodd;fill:#E5E5E5;}
	.st43{fill-rule:evenodd;clip-rule:evenodd;fill:#FF7373;}
	.st44{fill:none;stroke:#D6D6D6;stroke-width:1.1111;stroke-miterlimit:10;}
	.st45{opacity:0.5;fill-rule:evenodd;clip-rule:evenodd;}
	.st46{fill-rule:evenodd;clip-rule:evenodd;fill:#EF9A9A;}
	.st47{fill-rule:evenodd;clip-rule:evenodd;fill:#A00E0E;}
	.st48{fill:#858585;}
	.st49{fill:#BF2121;}
	.st50{fill:#1936B2;}
	.st51{fill:#D63232;}
	.st52{opacity:0.28;fill:#FF0000;}
	.st53{opacity:0.28;fill:#00FF12;}
	.st54{fill:#FF0000;}
	.st55{fill:#8D930F;}
	.st56{filter:url(#Adobe_OpacityMaskFilter_1_);}
	.st57{mask:url(#SVGID_2_);fill:#B22936;}
	.st58{filter:url(#Adobe_OpacityMaskFilter_2_);}
	.st59{mask:url(#SVGID_3_);fill:#2C7AB6;}
	.st60{filter:url(#Adobe_OpacityMaskFilter_3_);}
	.st61{mask:url(#SVGID_4_);fill:#2C7AB6;}
	.st62{filter:url(#Adobe_OpacityMaskFilter_4_);}
	
		.st63{mask:url(#SVGID_5_);fill:none;stroke:#2C7AB6;stroke-width:2.0881;stroke-linecap:round;stroke-linejoin:round;stroke-miterlimit:10;}
	.st64{filter:url(#Adobe_OpacityMaskFilter_5_);}
	
		.st65{mask:url(#SVGID_6_);fill:none;stroke:#2C7AB6;stroke-width:2.0881;stroke-linecap:round;stroke-linejoin:round;stroke-miterlimit:10;}
	.st66{fill:#2C7AB6;stroke:#2C7AB6;stroke-linecap:round;stroke-linejoin:round;stroke-miterlimit:10;}
	.st67{fill:#2C7AB6;stroke:#2C7AB6;stroke-width:1.3717;stroke-linecap:round;stroke-linejoin:round;stroke-miterlimit:10;}
	.st68{fill:#2C7AB6;}
	.st69{fill:#CFCFCF;stroke:#CFCFCF;stroke-width:1.3717;stroke-linecap:round;stroke-linejoin:round;stroke-miterlimit:10;}
</style>
<g id="update-icon_1_">
	<polygon class="st69" points="43.2,36 37.8,30.3 48.5,30.3 	"/>
	<polygon class="st69" points="20.1,29.3 25.5,35 14.8,35 	"/>
	<path class="st31" d="M17.7,38.5c-1.3,0.5-2.7,0.8-4.2,0.8c-6.1,0-11.1-5-11.1-11.1c0-6.1,5-11.1,11.1-11.1c0.1,0,0.2,0,0.3,0
		c1.4-8.4,8.7-14.8,17.5-14.8c9.8,0,17.7,7.9,17.7,17.7c0,2.7-0.6,5.2-1.6,7.4h2.5c0.9-2.3,1.4-4.8,1.4-7.4C51.3,9,42.3,0,31.3,0
		C22.1,0,14.4,6.1,12,14.4C5.3,15.1,0,20.8,0,27.7c0,7.4,6,13.4,13.4,13.4c1.5,0,2.9-0.3,4.3-0.7V38.5z"/>
	<g>
		<path class="st31" d="M40.7,37.2c-1.9,2.8-5.1,4.6-8.7,4.6c-5.6,0-10.2-4.4-10.5-9.9h-2.5c0.4,6.9,6,12.3,13,12.3
			c4.3,0,8.1-2.1,10.5-5.3L40.7,37.2z"/>
	</g>
	<path class="st31" d="M32.1,18.2c-5.4,0-10,3.3-12,7.9l1.9,1.9c1.4-4.3,5.3-7.4,10.1-7.4c5.8,0,10.5,4.7,10.5,10.5
		c0,0.7-0.1,1.4-0.2,2.1h2.5c0.1-0.7,0.2-1.4,0.2-2.1C45.1,24.1,39.3,18.2,32.1,18.2z"/>
</g>
</svg>
